<svg xmlns="http://www.w3.org/2000/svg" viewBox="0 0 197.35 43.37"><path d="M322.56,277.44H519.91v41.2H322.56Z" transform="translate(-322.56 -276.35)" style="fill:none"/><path d="M451,291.89v14.83h1.79V291.89Zm13.06,0v14.83h1.79v-8a8.13,8.13,0,0,1,1.53-.93,3.78,3.78,0,0,1,1.54-.36,3,3,0,0,1,1.16.2,1.48,1.48,0,0,1,.69.59,2.62,2.62,0,0,1,.31,1,10,10,0,0,1,.09,1.37v6.07h1.79v-6.91a4.41,4.41,0,0,0-.91-3,3.3,3.3,0,0,0-2.63-1,4.57,4.57,0,0,0-1.84.39,7.3,7.3,0,0,0-1.73,1.08v-5.36Zm-78.7.38a7.4,7.4,0,0,0-5.46,2,7.23,7.23,0,0,0-2,5.37,9,9,0,0,0,.54,3.25,6.07,6.07,0,0,0,1.51,2.3,6.33,6.33,0,0,0,2.35,1.38,9.79,9.79,0,0,0,3,.45,9.68,9.68,0,0,0,2.66-.39,20,20,0,0,0,2.55-.93v-6.09h-5.67v1.65h3.8v3.48a7.79,7.79,0,0,1-1.6.47,9.28,9.28,0,0,1-1.82.18,5.21,5.21,0,0,1-4-1.52,6,6,0,0,1-1.45-4.29,6,6,0,0,1,1.39-4.14,4.83,4.83,0,0,1,3.77-1.53,8.3,8.3,0,0,1,1.89.2,8.7,8.7,0,0,1,1.49.48,10.49,10.49,0,0,1,1.11.62c.37.25.66.45.86.6h.17v-2.24a13.13,13.13,0,0,0-2.73-1A11.16,11.16,0,0,0,385.31,292.27Zm8.51.26v14.19h9.34V305H395.7v-5.27h7.46v-1.68H395.7V294.2h7.46v-1.67Zm19.21,0v14.19h1.89v-7H422v7h1.88V292.53H422v5.56h-7.08v-5.56Zm43.31.48v3.06h-1.21v1.51h1.21v5.66a4,4,0,0,0,.85,2.81,3.32,3.32,0,0,0,2.48.88,7.21,7.21,0,0,0,1.06-.09,9.71,9.71,0,0,0,1.1-.22V305h-.09a6.47,6.47,0,0,1-.69.22,3.74,3.74,0,0,1-.91.12,2.76,2.76,0,0,1-1.13-.17,1.34,1.34,0,0,1-.57-.56,2.26,2.26,0,0,1-.27-.88c0-.32,0-.75,0-1.31v-4.85h3.69v-1.51h-3.69V293ZM432,295.78a4.89,4.89,0,0,0-3.76,1.53,5.84,5.84,0,0,0-1.42,4.15,5.38,5.38,0,0,0,1.49,4.07,5.69,5.69,0,0,0,4.13,1.43,7.51,7.51,0,0,0,2-.25,15,15,0,0,0,1.85-.64v-1.95h-.09a5.65,5.65,0,0,1-1.58.85,5.84,5.84,0,0,1-2.18.43,4.77,4.77,0,0,1-1.5-.23,3.29,3.29,0,0,1-1.18-.68,3.39,3.39,0,0,1-.81-1.19,4.77,4.77,0,0,1-.29-1.72h7.84v-1A5.06,5.06,0,0,0,435.3,297,4.27,4.27,0,0,0,432,295.78Zm79.06,0a4.92,4.92,0,0,0-3.76,1.53,5.88,5.88,0,0,0-1.42,4.15,5.41,5.41,0,0,0,1.49,4.07A5.69,5.69,0,0,0,511.5,307a7.57,7.57,0,0,0,2-.25,15.57,15.57,0,0,0,1.85-.64v-1.95h-.1a5.71,5.71,0,0,1-1.57.85,5.87,5.87,0,0,1-2.18.43,4.83,4.83,0,0,1-1.51-.23,3.25,3.25,0,0,1-1.17-.68,3.15,3.15,0,0,1-.81-1.19,4.56,4.56,0,0,1-.3-1.72h7.85v-1a5,5,0,0,0-1.18-3.58,4.27,4.27,0,0,0-3.31-1.25Zm-68.22,0a11.86,11.86,0,0,0-1.95.17c-.66.12-1.17.22-1.52.32v1.82h.09a11.32,11.32,0,0,1,1.8-.53,7.19,7.19,0,0,1,1.57-.19,7.87,7.87,0,0,1,1.11.07,2.49,2.49,0,0,1,.92.3,1.52,1.52,0,0,1,.61.62,2.19,2.19,0,0,1,.22,1v.28c-1,.05-2,.13-2.93.23a8.19,8.19,0,0,0-2.33.58,3.5,3.5,0,0,0-1.49,1.19,3.36,3.36,0,0,0-.51,1.95,3.21,3.21,0,0,0,1,2.43,3.43,3.43,0,0,0,2.44.95,5.49,5.49,0,0,0,1.36-.15,5.88,5.88,0,0,0,1-.36A5.45,5.45,0,0,0,445,306l.65-.46v1.14h1.78v-7.23a4.17,4.17,0,0,0-.31-1.72,2.79,2.79,0,0,0-.92-1.14,3.68,3.68,0,0,0-1.45-.63,9.2,9.2,0,0,0-1.95-.19Zm47.34,0a11.86,11.86,0,0,0-1.95.17c-.66.12-1.16.22-1.51.32v1.82h.09a11.21,11.21,0,0,1,1.79-.53,7.28,7.28,0,0,1,1.58-.19,8,8,0,0,1,1.11.07,2.49,2.49,0,0,1,.92.3,1.58,1.58,0,0,1,.61.62,2.19,2.19,0,0,1,.22,1v.28c-1,.05-2,.13-2.93.23a8.18,8.18,0,0,0-2.34.58,3.47,3.47,0,0,0-1.48,1.19,3.29,3.29,0,0,0-.52,1.95,3.25,3.25,0,0,0,1,2.43,3.43,3.43,0,0,0,2.44.95,5.57,5.57,0,0,0,1.37-.15,6.19,6.19,0,0,0,1-.36,5.45,5.45,0,0,0,.78-.46l.65-.46v1.14h1.78v-7.23a4.16,4.16,0,0,0-.32-1.72,2.77,2.77,0,0,0-.91-1.14,3.74,3.74,0,0,0-1.45-.63,9.3,9.3,0,0,0-2-.19Zm-9.35,0a5,5,0,0,0-3.79,1.49,5.64,5.64,0,0,0-1.43,4.1,7.3,7.3,0,0,0,.37,2.45,4.72,4.72,0,0,0,1.08,1.73,4.4,4.4,0,0,0,1.65,1,6.5,6.5,0,0,0,2.12.34,6.23,6.23,0,0,0,1.7-.24,12.51,12.51,0,0,0,1.71-.67v-2h-.1l-.54.39-.73.42a5.44,5.44,0,0,1-1,.37,4.82,4.82,0,0,1-1.11.14,3,3,0,0,1-2.43-1,4.54,4.54,0,0,1-.86-3,4.49,4.49,0,0,1,.88-3,3,3,0,0,1,2.41-1,4.6,4.6,0,0,1,1.7.34,6.62,6.62,0,0,1,1.69,1h.1v-2a9.1,9.1,0,0,0-1.62-.63,6.35,6.35,0,0,0-1.79-.26Zm17.46.25v10.65h1.79v-7.56a7.42,7.42,0,0,1,1.48-1,3.79,3.79,0,0,1,1.61-.37,7.35,7.35,0,0,1,.88.05,7,7,0,0,1,.78.13h.1v-1.83l-.63-.09a5.43,5.43,0,0,0-.68,0,4.07,4.07,0,0,0-1.66.36,8.91,8.91,0,0,0-1.88,1.21v-1.57Zm-66.39,1.18A2.72,2.72,0,0,1,434,298a3.2,3.2,0,0,1,.72,2.19h-6.1a3.32,3.32,0,0,1,1-2.11A3.11,3.11,0,0,1,431.89,297.25Zm79.06,0a2.76,2.76,0,0,1,2.13.77,3.2,3.2,0,0,1,.71,2.19h-6.1a3.33,3.33,0,0,1,1-2.11A3.09,3.09,0,0,1,511,297.25Zm-65.27,3.88v3a8.49,8.49,0,0,1-1.45.88,4.09,4.09,0,0,1-1.73.36,2.63,2.63,0,0,1-1.68-.45,1.71,1.71,0,0,1-.55-1.38,1.66,1.66,0,0,1,.47-1.27,3,3,0,0,1,1.25-.69,10.68,10.68,0,0,1,1.75-.28Zm47.35,0v3a8.49,8.49,0,0,1-1.45.88,4.09,4.09,0,0,1-1.73.36,2.66,2.66,0,0,1-1.69-.45,1.74,1.74,0,0,1-.55-1.38,1.67,1.67,0,0,1,.48-1.27,2.91,2.91,0,0,1,1.25-.69,10.49,10.49,0,0,1,1.75-.28Z" transform="translate(-322.56 -276.35)" style="fill:#303233;fill-rule:evenodd"/><path d="M366.29,298a21.69,21.69,0,1,0-21.68,21.69A21.71,21.71,0,0,0,366.29,298Zm-1,0a20.66,20.66,0,1,1-20.65-20.66A20.64,20.64,0,0,1,365.26,298Zm-1.32,0c0-6.86-3.49-13.94-11-16.21a14,14,0,0,0-4.39-.79c-3.47,0-3.59,2-5.22,2a1.43,1.43,0,0,1-1.49-1.43c0-1.38,1.62-2.46,4.2-2.46a13.07,13.07,0,0,1,4.62.77l.06-.17a17.55,17.55,0,0,0-6.11-1c-6.92,0-13.95,3.56-16.22,11a14.39,14.39,0,0,0-.79,4.39c0,3.49,2,3.65,2,5.28a1.42,1.42,0,0,1-1.39,1.45h-.05c-1.37,0-2.46-1.57-2.46-4.22a15.61,15.61,0,0,1,.71-4.61l-.17-.06a20.68,20.68,0,0,0-1,6.13c0,7,3.55,14,11,16.28a14.45,14.45,0,0,0,4.39.77c3.49,0,3.6-2,5.22-2a1.49,1.49,0,0,1,1.52,1.5c0,1.32-1.58,2.41-4.22,2.41a14.6,14.6,0,0,1-4.62-.73l-.06.18a17.16,17.16,0,0,0,6.14,1c6.9,0,14-3.5,16.21-11a13.87,13.87,0,0,0,.77-4.32c0-3.54-2-3.67-2-5.28a1.4,1.4,0,0,1,1.43-1.5c1.39,0,2.47,1.63,2.47,4.27a16,16,0,0,1-.72,4.62l.18.06A19.88,19.88,0,0,0,363.94,298Zm-7.27,5.76a5.73,5.73,0,0,1-5.77,5.54c-4.13,0-6.24-3.5-6.24-6.62a7.48,7.48,0,0,1,4.25-6.91,2.33,2.33,0,0,1-.6-.72,56.07,56.07,0,0,1-5.53,3.49,23.53,23.53,0,0,1-.78,5.47c-1,3.07-3.13,5.29-5.89,5.29a3.31,3.31,0,0,1-3.47-3.5,6.23,6.23,0,0,1,2.17-4.27,29.18,29.18,0,0,1,6.3-3.9c.06-.35.12-.71.18-1.14a3.67,3.67,0,0,1-2.41.85,2.76,2.76,0,0,1-2.52-2.22,3.16,3.16,0,0,1-3-3.24c0-1.38.54-2.58,1.46-2.58a.49.49,0,0,1,.48.54,11.38,11.38,0,0,0-.31,1.79c0,.79.37,1.8,1.32,1.8,0-3.12,2.29-7.15,5-7.15a1.83,1.83,0,0,1,2,1.93c0,2.83-2.82,5.95-5.11,6.72a1.1,1.1,0,0,0,1,.91,4,4,0,0,0,2.52-1.51c.23-1.25,1.14-3.06,2.34-3.06a.71.71,0,0,1,.72.79c0,.89-1,2-1.69,2.81a9.91,9.91,0,0,0-.17,1.81,54.9,54.9,0,0,0,4.74-3.07,5.18,5.18,0,0,1-.12-1.38c0-2.81,1.87-5.95,4.33-5.95a2,2,0,0,1,2.09,2.06c0,2-1.74,3.83-4.19,5.71a2.09,2.09,0,0,0,.95,1.14,3.35,3.35,0,0,1,1.5-.25c.72,0,1.74.19,1.74.91s-1.14,1-2,1a4.74,4.74,0,0,1-1.27-.12c-1.31.35-3.84,1.86-3.84,5.7,0,2.59,1.62,5,4.15,5a3.54,3.54,0,0,0,3.54-3.67c0-1.43-.61-2.95-2-2.95a1.35,1.35,0,0,0-1.38,1.33c-.06,1.2.84,1.32.84,2.1a.78.78,0,0,1-.84.79c-1.2,0-2.12-1.21-2.12-2.7a3.45,3.45,0,0,1,3.62-3.3C355.3,299.05,356.67,301.34,356.67,303.8Zm-4.43-15.14c0-.29-.06-.66-.43-.66-.9,0-2.33,1.93-2.33,4.39C351.26,290.82,352.24,289.5,352.24,288.66Zm-10.64-.25a.38.38,0,0,0-.43-.41c-1.26,0-3.05,3.3-3.05,5.28,2-1.08,3.48-3.53,3.48-4.87Zm-.72,11.25c-2.7,1.31-6.13,3.66-6.13,6.24,0,1,.48,1.56,1.37,1.56,2.64,0,4.27-4.2,4.76-7.8Z" transform="translate(-322.56 -276.35)" style="fill:#2160ad;fill-rule:evenodd"/></svg>