<svg id="Layer_1" data-name="Layer 1" xmlns="http://www.w3.org/2000/svg" viewBox="0 0 579 128.83"><defs><style>.cls-1{fill:#7f3f98;}</style></defs><path class="cls-1" d="M69.22,136.23a64.42,64.42,0,1,1,64.4-64.41,64.38,64.38,0,0,1-64.4,64.41m0-125.8a61.39,61.39,0,1,0,61.37,61.39A61.38,61.38,0,0,0,69.22,10.43M123.8,90.18s-.13.14-.33.07-.2-.14-.2-.23a49,49,0,0,0,2.15-13.74c0-7.85-3.22-12.67-7.32-12.67a4.17,4.17,0,0,0-4.28,4.46c0,4.82,5.89,5.17,5.89,15.7a41.56,41.56,0,0,1-2.32,12.85c-6.61,22.31-27.66,32.65-48.17,32.65-9.47,0-16.19-1.94-18.19-2.84a.29.29,0,0,1-.08-.36c0-.12.18-.21.26-.18A44.61,44.61,0,0,0,64.93,128c7.85,0,12.49-3.2,12.49-7.14A4.41,4.41,0,0,0,73,116.43c-4.82,0-5.18,6.06-15.53,6.06a42.6,42.6,0,0,1-13-2.32c-22.13-6.78-32.67-27.66-32.65-48.35a59.72,59.72,0,0,1,2.87-18.19.29.29,0,0,1,.32-.05.24.24,0,0,1,.19.23A47,47,0,0,0,13,67.53C13,75.39,16.22,80,20.32,80a4.22,4.22,0,0,0,4.28-4.27c0-4.83-5.89-5.36-5.89-15.71A42.66,42.66,0,0,1,21,47c6.78-22.12,27.66-32.49,48.19-32.65a54,54,0,0,1,18.19,3,.28.28,0,0,1,.06.32c-.07.17-.18.19-.24.18a39.74,39.74,0,0,0-13.74-2.28C65.82,15.61,61,18.82,61,22.93a4.28,4.28,0,0,0,4.46,4.28c4.82,0,5.18-5.89,15.52-5.89a42.6,42.6,0,0,1,13,2.32c22.31,6.78,32.46,27.84,32.66,48.18a56,56,0,0,1-2.87,18.36M93.12,74.85c-6.06,0-10.71,4.46-10.71,9.82,0,4.46,2.68,8,6.25,8a2.28,2.28,0,0,0,2.49-2.32c0-2.31-3.07-2.88-2.83-6.35a4.34,4.34,0,0,1,4.44-3.82c4.29,0,6.29,4.15,6.29,8.43-.18,6.61-5,11.2-10.75,11.2C80.81,99.83,76,92.69,76,85c0-11.42,7.5-15.88,11.42-17,0,0,10.27,1.82,9.94-2.68-.14-2-3.08-2.74-5.22-2.83a14.57,14.57,0,0,0-4.75.76A5.79,5.79,0,0,1,84.74,60c7.31-5.53,12.48-10.88,12.48-16.95A5.85,5.85,0,0,0,91,37c-7.31,0-12.85,9.28-12.85,17.66a15.22,15.22,0,0,0,.36,4.11A167.21,167.21,0,0,1,64.15,68a32.72,32.72,0,0,1,.69-5.41c2.14-2.32,5.08-5.79,5.08-8.47a2.1,2.1,0,0,0-2.14-2.32c-3.57,0-6.24,5.35-7,9.1-1.6,2-4.81,4.47-7.49,4.47a3.27,3.27,0,0,1-3-2.68c6.79-2.32,15.17-11.6,15.17-20C65.46,41,64.75,37,59.4,37c-8,0-14.81,11.95-14.81,21.24-2.86,0-3.93-3-3.93-5.36s.9-4.64.9-5.35a1.45,1.45,0,0,0-1.44-1.61c-2.67,0-4.28,3.57-4.28,7.68.18,5.71,3.93,9.28,8.92,9.63.72,3.39,3.75,6.6,7.5,6.6a10.94,10.94,0,0,0,7.14-2.49c-.18,1.25-.36,2.31-.54,3.39-7.85,4.1-13.56,7-18.74,11.59C36,86.09,33.7,91.09,33.7,95c0,5.36,3.39,10.35,10.35,10.35,8.21,0,14.46-6.6,17.49-15.7,1.43-4.29,2-10.52,2.36-16.23A163.85,163.85,0,0,0,80.27,63.07a7.36,7.36,0,0,0,1.78,2.14c-3.74,2-12.66,7.5-12.66,20.52,0,9.28,6.25,19.63,18.56,19.63,10.17,0,17.13-8.38,17.13-16.41,0-7.32-4.11-14.1-12-14.1m-49.07,25c-2.67.13-4.46-1.59-4.46-4.44,0-7.67,10.64-15,18.67-18.92-1.43,10.7-5,22.94-14.21,23.36m5.89-42.11c0-5.89,5.81-17.08,9.37-15.9,4.19,1.4-3.48,12.69-9.37,15.9m33.73-2.67c0-7.32,5-14.44,7.66-13.08C94.4,43.51,89,50.4,83.67,55.05M205.93,80.64V72.35a2.57,2.57,0,0,0-2.68-2.68H188.74a2.29,2.29,0,0,0-2.38,2.38,2.31,2.31,0,0,0,2.38,2.45h11.82v6.14c0,7.22-5.53,13-12.21,13s-12.13-5.75-12.13-13V63c0-7.37,5.22-13.05,12-13.05a11.61,11.61,0,0,1,11.05,6.6,2.53,2.53,0,0,0,3.38,1.15,2.43,2.43,0,0,0,1.08-3.3C200.79,48.33,195.34,45,188.2,45c-9.83,0-17.43,7.83-17.43,18V80.64c0,10.14,7.68,18,17.58,18,9.52,0,17.58-8.21,17.58-18m37.5,17.28a2.42,2.42,0,0,0,0-4.84H220.9V73.43h20.69a2.42,2.42,0,0,0,0-4.84H220.9v-18h22.53a2.42,2.42,0,0,0,0-4.84H218.21a2.58,2.58,0,0,0-2.68,2.69V95.23a2.58,2.58,0,0,0,2.68,2.69Zm58.35-2.38V48.1a2.77,2.77,0,1,0-5.53,0V68.59H272V48.1a2.62,2.62,0,0,0-2.76-2.77,2.66,2.66,0,0,0-2.76,2.77V95.54a2.7,2.7,0,0,0,2.76,2.76A2.61,2.61,0,0,0,272,95.54V73.43h24.23V95.54a2.77,2.77,0,0,0,5.53,0m22.87,3.14c5.37,0,10.05-2.07,12.44-6.29a2.62,2.62,0,0,0-.54-3.61,2.47,2.47,0,0,0-3.46.62,9.48,9.48,0,0,1-8.44,4.45c-5.53,0-8.45-2.84-8.45-8v-.69l11-4.68c8.45-3.61,11.59-6,11.59-12.59s-5.14-10.67-13.28-10.67c-8.36,0-14.5,5.37-14.5,12.82V85.86c0,7.76,5.29,12.82,13.66,12.82M316.2,70.05c0-4.68,3.92-8,9.37-8,5,0,7.83,2.3,7.83,6.29,0,3.61-3.07,5.61-7.83,7.68l-9.37,4Zm42.07-12.82c-5.37,0-10.06,2.07-12.44,6.3a2.61,2.61,0,0,0,.54,3.6,2.47,2.47,0,0,0,3.46-.61,9.48,9.48,0,0,1,8.44-4.45c5.53,0,8.44,2.84,8.44,8v.69l-11,4.68c-8.45,3.61-11.59,6-11.59,12.59s5.14,10.67,13.27,10.67c8.37,0,14.51-5.37,14.51-12.82V70.05c0-7.75-5.29-12.82-13.66-12.82m-8.75,30.32c0-3.6,3.07-5.6,7.83-7.67l9.36-4v10c0,4.69-3.91,8-9.36,8-5,0-7.83-2.31-7.83-6.3m43.9,8.76A2.55,2.55,0,0,0,391,93.69c-3.15-.3-4.91-2.22-4.91-5.83V47.94a2.62,2.62,0,0,0-5.23,0V87.86a11.21,11.21,0,0,0,2.39,7.29,9.16,9.16,0,0,0,7.44,3.53,2.57,2.57,0,0,0,2.69-2.37M405.7,58V47.94a2.61,2.61,0,0,0-5.22,0V58h-6.37a2.42,2.42,0,0,0,0,4.84h6.37V84.25a14.9,14.9,0,0,0,3.69,10.14c2.6,2.83,5.91,3.91,10,3.91a2.58,2.58,0,0,0,2.68-2.69,2.48,2.48,0,0,0-2.61-2.3c-5.76,0-8.52-3.84-8.52-9.06V62.84h8.75a2.42,2.42,0,0,0,0-4.84Zm17,38.08a2.49,2.49,0,0,0,2.61,2.22A2.54,2.54,0,0,0,428,95.69V71.75a9.29,9.29,0,0,1,18.58,0V95.69a2.61,2.61,0,0,0,5.22,0V71.75a14,14,0,0,0-13.82-14.13A13.68,13.68,0,0,0,428,62V47.94a2.54,2.54,0,0,0-2.61-2.61c-1.53,0-2.61,1.15-2.61,3ZM465,80.64V63c0-7.37,5.45-13.05,12.44-13.05,5.29,0,9.21,2.3,11.43,6.6a2.53,2.53,0,0,0,3.38,1.15,2.43,2.43,0,0,0,1.08-3.3c-2.92-6.06-8.6-9.44-15.89-9.44a17.7,17.7,0,0,0-17.89,18V80.64a17.7,17.7,0,0,0,17.89,18c7.29,0,13-3.37,15.89-9.44a2.43,2.43,0,0,0-1.08-3.3,2.53,2.53,0,0,0-3.38,1.15c-2.22,4.3-6.14,6.6-11.43,6.6-7,0-12.44-5.68-12.44-13m47.36-23.41c-5.37,0-10.06,2.07-12.43,6.3a2.6,2.6,0,0,0,.53,3.6,2.47,2.47,0,0,0,3.46-.61,9.48,9.48,0,0,1,8.44-4.45c5.53,0,8.44,2.84,8.44,8v.69l-11,4.68c-8.44,3.61-11.59,6-11.59,12.59s5.14,10.67,13.28,10.67c8.37,0,14.51-5.37,14.51-12.82V70.05c0-7.75-5.3-12.82-13.67-12.82M503.6,87.55c0-3.6,3.07-5.6,7.83-7.67l9.36-4v10c0,4.69-3.91,8-9.36,8-5,0-7.83-2.31-7.83-6.3m44-29.94c-7.68,0-13.05,5.61-13.05,14v24a2.61,2.61,0,1,0,5.22,0v-24c0-5.14,2.69-9,7.9-9,.85,0,2.15.31,2.84.31a2.34,2.34,0,0,0,2.46-2.46A2.57,2.57,0,0,0,550.79,58a11.45,11.45,0,0,0-3.22-.39m22.1,41.07c5.38,0,10.06-2.07,12.44-6.29a2.61,2.61,0,0,0-.54-3.61,2.46,2.46,0,0,0-3.45.62,9.5,9.5,0,0,1-8.45,4.45c-5.52,0-8.44-2.84-8.44-8v-.69l11-4.68c8.44-3.61,11.59-6,11.59-12.59s-5.14-10.67-13.28-10.67c-8.37,0-14.51,5.37-14.51,12.82V85.86c0,7.76,5.3,12.82,13.66,12.82m-8.44-28.63c0-4.68,3.92-8,9.37-8,5,0,7.82,2.3,7.82,6.29,0,3.61-3.07,5.61-7.82,7.68l-9.37,4Z" transform="translate(-4.8 -7.4)"/></svg>