<?xml version="1.0" encoding="UTF-8"?>
<svg width="408px" height="56px" viewBox="0 0 408 56" version="1.1" xmlns="http://www.w3.org/2000/svg" xmlns:xlink="http://www.w3.org/1999/xlink">
    <!-- Generator: Sketch 47.1 (45422) - http://www.bohemiancoding.com/sketch -->
    <title>Logo</title>
    <desc>Created with Sketch.</desc>
    <defs></defs>
    <g id="Styleguide" stroke="none" stroke-width="1" fill="none" fill-rule="evenodd">
        <g transform="translate(-100.000000, -186.000000)" id="Logo" fill-rule="nonzero">
            <g transform="translate(100.000000, 186.000000)">
                <path d="M86.81,7.66 L86.33,7.39 C86.3648086,7.26271378 86.3849396,7.13186286 86.39,7 C86.39,6.61 83.57,4.51 78.68,4.51 C74,4.48 72,5.92 72,7.78 C72,12.7 89.68,5.5 89.68,16.36 C89.68,20.36 85.84,23.36 78.16,23.36 C70.82,23.38 68.72,21 68,21 C67.82,21 67.73,21.15 67.58,21.24 L67.19,21.15 L69.68,16.05 L70.16,16.29 C70.16,16.41 70.1,16.53 70.1,16.77 C70.1,18.54 73.97,19.77 77.81,19.77 C83.27,19.77 85.13,18.21 85.13,16.56 C85.13,10.68 67.69,17.97 67.69,8.01 C67.73,3 73,0.94 78.86,0.94 C82.0667549,1.03673596 85.2163337,1.81390475 88.1,3.22 C88.49,3.22 88.55,3.1 88.64,3.01 L89.12,3.16 L86.81,7.66 Z" id="Shape" fill="#008A82"></path>
                <path d="M112,6.23 C114.282498,8.00942294 115.570005,10.7779346 115.46,13.67 C115.46,19.96 110.62,23.39 104.62,23.39 C102.614584,23.4197458 100.629481,22.9850767 98.82,22.12 L97.16,24.12 L94.73,24.12 L97.23,21.12 C94.9394868,19.3469639 93.6499463,16.5740792 93.77,13.68 C93.77,7.39 98.61,3.96 104.61,3.96 C106.615416,3.93025418 108.600519,4.36492333 110.41,5.23 L112.07,3.23 L114.49,3.23 L112,6.23 Z M108.26,7.82 C107.127594,7.25538827 105.87509,6.97400379 104.61,7 C100.61,7 97.46,9.31 97.46,13.66 C97.3975625,15.4775069 98.1273235,17.2325821 99.46,18.47 L108.26,7.82 Z M101,19.51 C102.13013,20.0699531 103.379062,20.3478748 104.64,20.32 C108.64,20.32 111.79,18.01 111.79,13.66 C111.865275,11.8502704 111.15425,10.0964084 109.84,8.85 L101,19.51 Z" id="Shape" fill="#008A82"></path>
                <path d="M124.84,22 C124.84,22.57 124.94,22.78 125.57,22.78 L125.57,23.14 L120.42,23.14 L120.42,22.78 C121.04,22.78 121.15,22.57 121.15,22 L121.15,5.34 C121.15,4.77 121.05,4.56 120.42,4.56 L120.42,4.2 L133,4.2 C137.52,4.2 139.92,6.59 139.92,9.63 C139.92,12.67 138.02,14.63 134.82,15.17 L139.58,22 C139.94,22.52 140.15,22.78 140.7,22.78 L140.7,23.14 L134.93,23.14 L134.93,22.78 C135.24,22.78 135.29,22.68 135.29,22.57 C135.29,22.46 135.21,22.23 134.95,21.87 L130.19,15.08 L124.83,15.08 L124.84,22 Z M124.92,12 L132.8,12 C134.67,12 136.18,11.27 136.18,9.63 C136.18,7.99 134.67,7.26 132.8,7.26 L124.92,7.26 L124.92,12 Z" id="Shape" fill="#008A82"></path>
                <path d="M145.2,22.76 C145.77,22.76 145.88,22.55 145.88,21.98 L145.88,5.34 C145.88,4.77 145.78,4.56 145.2,4.56 L145.2,4.2 L150.35,4.2 L150.35,4.56 C149.67,4.56 149.57,4.77 149.57,5.34 L149.57,20.06 L161.57,20.06 C162.19,20.06 162.45,19.85 162.45,19.44 L162.81,19.44 L162.81,23.7 L162.45,23.7 C162.45,23.34 162.19,23.13 161.57,23.13 L145.2,23.13 L145.2,22.76 Z" id="Shape" fill="#008A82"></path>
                <path d="M165.58,23.13 L165.58,22.77 C166.05,22.77 166.2,22.61 166.58,21.77 L173.68,5.77 C173.839581,5.53866694 173.948617,5.27629881 174,5 C174,4.71 173.79,4.58 173.45,4.53 L173.45,4.2 L179.12,4.2 L179.12,4.56 C178.73,4.61 178.57,4.77 178.57,4.95 C178.594851,5.19101436 178.673447,5.42338514 178.8,5.63 L186.34,21.78 C186.7,22.59 186.81,22.78 187.34,22.78 L187.34,23.14 L182.17,23.14 L182.17,22.78 C182.51,22.78 182.64,22.65 182.64,22.52 C182.64,22.23 182.41,21.87 180.64,18.15 L171.72,18.15 C170.21,21.53 169.82,22.05 169.82,22.39 C169.817218,22.4942624 169.857413,22.5950849 169.931164,22.6688358 C170.004915,22.7425866 170.105738,22.7827818 170.21,22.78 L170.21,23.14 L165.58,23.13 Z M179.13,15.13 L176,8.36 L172.93,15.17 L179.13,15.13 Z" id="Shape" fill="#008A82"></path>
                <path d="M211.34,22 C211.34,22.57 211.52,22.78 212.04,22.78 L212.04,23.14 L207.23,23.14 L207.23,22.78 C207.49,22.78 207.75,22.73 207.75,22.57 C207.75,22.41 207.59,22.23 207.26,21.87 L195.56,9.29 L195.56,22 C195.56,22.57 195.69,22.78 196.26,22.78 L196.26,23.14 L191.66,23.14 L191.66,22.78 C192.23,22.78 192.28,22.57 192.28,22 L192.28,5.34 C192.28,4.77 192.23,4.56 191.66,4.56 L191.66,4.2 L197.2,4.2 L197.2,4.56 C196.71,4.56 196.5,4.66 196.5,4.9 C196.5,4.98 196.6,5.11 196.79,5.29 L208.07,17.29 L208.07,5.34 C208.07,4.77 208.02,4.56 207.39,4.56 L207.39,4.2 L212,4.2 L212,4.56 C211.48,4.56 211.3,4.77 211.3,5.34 L211.34,22 Z" id="Shape" fill="#008A82"></path>
                <path d="M218.39,5.34 C218.39,4.77 218.29,4.56 217.66,4.56 L217.66,4.2 L229.15,4.2 C235.75,4.2 238.56,7.97 238.56,13.66 C238.56,19.95 235.08,23.12 229.72,23.12 L217.66,23.12 L217.66,22.76 C218.28,22.76 218.39,22.55 218.39,21.98 L218.39,5.34 Z M222.08,20.06 L229.72,20.06 C232.94,20.06 234.87,18.4 234.87,13.66 C234.87,8.66 232.27,7.26 228.87,7.26 L222.11,7.26 L222.08,20.06 Z" id="Shape" fill="#008A82"></path>
                <path d="M243.77,22.76 C244.34,22.76 244.45,22.55 244.45,21.98 L244.45,5.34 C244.45,4.77 244.35,4.56 243.77,4.56 L243.77,4.2 L260.64,4.2 C261.26,4.2 261.52,3.99 261.52,3.63 L261.88,3.63 L261.88,7.94 L261.52,7.94 C261.52,7.47 261.26,7.26 260.64,7.26 L248.13,7.26 L248.13,11.89 L256.29,11.89 C256.91,11.89 257.17,11.68 257.17,11.21 L257.53,11.21 L257.53,15.58 L257.17,15.58 C257.17,15.16 256.91,14.96 256.29,14.96 L248.13,14.96 L248.13,20.06 L260.87,20.06 C261.49,20.06 261.75,19.85 261.75,19.44 L262.11,19.44 L262.11,23.7 L261.75,23.7 C261.75,23.34 261.49,23.13 260.87,23.13 L243.77,23.13 L243.77,22.76 Z" id="Shape" fill="#008A82"></path>
                <path d="M277,22 C277,22.57 277.13,22.78 277.81,22.78 L277.81,23.14 L272.5,23.14 L272.5,22.78 C273.18,22.78 273.28,22.57 273.28,22 L273.28,7.27 L267,7.27 C266.38,7.27 266.12,7.48 266.12,7.92 L265.76,7.92 L265.76,3.57 L266.12,3.57 C266.12,3.99 266.38,4.19 267,4.19 L283.22,4.19 C283.84,4.19 284.1,3.98 284.1,3.57 L284.46,3.57 L284.46,7.92 L284.1,7.92 C284.1,7.48 283.84,7.27 283.22,7.27 L277,7.27 L277,22 Z" id="Shape" fill="#008A82"></path>
                <path d="M304.87,9.76 L304.45,9.53 C304.480547,9.41234033 304.497326,9.29153102 304.5,9.17 C304.5,8.83 302.06,7.01 297.82,7.01 C293.76,7.01 292.02,8.26 292.02,9.87 C292.02,14.13 307.33,7.87 307.33,17.31 C307.33,20.74 304,23.39 297.33,23.39 C290.99,23.39 289.17,21.39 288.57,21.39 C288.41,21.39 288.34,21.52 288.21,21.6 L287.87,21.52 L290,17.07 L290.42,17.28 C290.42,17.38 290.37,17.49 290.37,17.7 C290.37,19.23 293.72,20.33 297.05,20.33 C301.78,20.33 303.39,18.98 303.39,17.55 C303.39,12.45 288.28,18.77 288.28,10.14 C288.28,5.77 292.88,3.95 297.93,3.95 C300.708237,4.04241664 303.435124,4.72413836 305.93,5.95 C306.27,5.95 306.32,5.85 306.4,5.77 L306.82,5.9 L304.87,9.76 Z" id="Shape" fill="#008A82"></path>
                <path d="M75.57,47.57 L75.57,53 C75.57,53.57 75.7,53.78 76.38,53.78 L76.38,54.14 L71.21,54.14 L71.21,53.78 C71.78,53.78 71.89,53.57 71.89,53 L71.89,36.34 C71.89,35.77 71.79,35.56 71.21,35.56 L71.21,35.2 L76.38,35.2 L76.38,35.56 C75.7,35.56 75.57,35.77 75.57,36.34 L75.57,43.52 L84.28,36.52 C84.8,36.08 85.01,35.97 85.01,35.82 C85.01,35.67 84.85,35.56 84.67,35.56 L84.67,35.2 L91,35.2 L91,35.56 C90.2550939,35.7564957 89.5688639,36.130491 89,36.65 L81.72,42.53 L90.37,53 C90.6369351,53.4319551 91.0858986,53.7189973 91.59,53.78 L91.59,54.14 L85.59,54.14 L85.59,53.78 C85.93,53.78 86.03,53.7 86.03,53.55 C86.03,53.4 85.82,53.16 85.61,52.9 L78.9,44.82 L75.57,47.57 Z" id="Shape" fill="#008A82"></path>
                <path d="M116.91,44.66 C116.91,50.95 112.07,54.38 106.07,54.38 C100.07,54.38 95.23,51 95.23,44.66 C95.23,38.32 100.07,34.94 106.07,34.94 C112.07,34.94 116.91,38.37 116.91,44.66 Z M98.91,44.66 C98.91,49 102.11,51.32 106.06,51.32 C110.01,51.32 113.21,49.01 113.21,44.66 C113.21,40.31 110,38 106.07,38 C102.14,38 98.92,40.32 98.92,44.66 L98.91,44.66 Z" id="Shape" fill="#008A82"></path>
                <path d="M143.93,35.2 L143.93,35.56 C143.33,35.56 143.23,35.77 143.23,36.34 L143.23,53 C143.23,53.57 143.33,53.78 143.93,53.78 L143.93,54.14 L138.93,54.14 L138.93,53.78 C139.45,53.78 139.55,53.57 139.55,53 L139.55,41.31 L139.5,41.31 L132.79,54.13 L132.43,54.13 L125.8,41.18 L125.75,41.18 L125.75,53 C125.75,53.57 125.85,53.78 126.53,53.78 L126.53,54.14 L121.9,54.14 L121.9,53.78 C122.47,53.78 122.58,53.57 122.58,53 L122.58,36.34 C122.58,35.77 122.48,35.56 121.9,35.56 L121.9,35.2 L127.67,35.2 L127.67,35.56 C127.33,35.56 126.99,35.74 126.99,36.05 C126.99,36.36 127.17,36.52 127.56,37.27 L132.81,47.27 L138.58,36.56 C138.726853,36.3581845 138.826008,36.125683 138.87,35.88 C138.87,35.65 138.64,35.54 138.19,35.52 L138.19,35.2 L143.93,35.2 Z" id="Shape" fill="#008A82"></path>
                <path d="M154,53 C154,53.57 154.1,53.78 154.73,53.78 L154.73,54.14 L149.58,54.14 L149.58,53.78 C150.2,53.78 150.31,53.57 150.31,53 L150.31,36.34 C150.31,35.77 150.21,35.56 149.58,35.56 L149.58,35.2 L162,35.2 C166.11,35.2 168.19,37.28 168.19,40.58 C168.19,43.88 166.52,46 162,46 L154,46 L154,53 Z M154,42.91 L162,42.91 C164,42.91 164.55,42.29 164.55,40.6 C164.55,38.91 163.98,38.29 162,38.29 L154,38.29 L154,42.91 Z" id="Shape" fill="#008A82"></path>
                <path d="M172.66,53.76 C173.23,53.76 173.34,53.55 173.34,52.98 L173.34,36.34 C173.34,35.77 173.24,35.56 172.66,35.56 L172.66,35.2 L189.53,35.2 C190.15,35.2 190.41,34.99 190.41,34.63 L190.77,34.63 L190.77,38.95 L190.41,38.95 C190.41,38.48 190.15,38.27 189.53,38.27 L177,38.27 L177,42.9 L185.16,42.9 C185.78,42.9 186.04,42.69 186.04,42.22 L186.4,42.22 L186.4,46.59 L186.04,46.59 C186.04,46.17 185.78,45.97 185.16,45.97 L177,45.97 L177,51.07 L189.74,51.07 C190.36,51.07 190.62,50.86 190.62,50.45 L191,50.45 L191,54.7 L190.64,54.7 C190.64,54.34 190.38,54.13 189.76,54.13 L172.66,54.13 L172.66,53.76 Z" id="Shape" fill="#008A82"></path>
                <path d="M205.86,53 C205.86,53.57 205.99,53.78 206.67,53.78 L206.67,54.14 L201.39,54.14 L201.39,53.78 C202.07,53.78 202.17,53.57 202.17,53 L202.17,38.26 L195.9,38.26 C195.28,38.26 195.02,38.47 195.02,38.91 L194.66,38.91 L194.66,34.57 L195,34.57 C195,34.99 195.26,35.19 195.88,35.19 L212.1,35.19 C212.72,35.19 212.98,34.98 212.98,34.57 L213.34,34.57 L213.34,38.91 L213,38.91 C213,38.47 212.74,38.26 212.12,38.26 L205.85,38.26 L205.86,53 Z" id="Shape" fill="#008A82"></path>
                <path d="M214,54.13 L214,53.77 C214.47,53.77 214.62,53.61 215,52.77 L222.1,36.77 C222.250287,36.533209 222.349092,36.2674573 222.39,35.99 C222.39,35.7 222.18,35.57 221.84,35.52 L221.84,35.2 L227.51,35.2 L227.51,35.56 C227.12,35.61 226.96,35.77 226.96,35.95 C226.984851,36.1910144 227.063447,36.4233851 227.19,36.63 L234.73,52.78 C235.09,53.59 235.2,53.78 235.73,53.78 L235.73,54.14 L230.56,54.14 L230.56,53.78 C230.9,53.78 231.03,53.65 231.03,53.52 C231.03,53.23 230.8,52.87 229.03,49.15 L220.11,49.15 C218.6,52.53 218.21,53.05 218.21,53.39 C218.207218,53.4942624 218.247413,53.5950849 218.321164,53.6688358 C218.394915,53.7425866 218.495738,53.7827818 218.6,53.78 L218.6,54.14 L214,54.13 Z M227.55,46.13 L224.43,39.32 L221.36,46.13 L227.55,46.13 Z" id="Shape" fill="#008A82"></path>
                <path d="M259.74,53 C259.74,53.57 259.92,53.78 260.44,53.78 L260.44,54.14 L255.63,54.14 L255.63,53.78 C255.89,53.78 256.15,53.73 256.15,53.57 C256.15,53.41 255.99,53.23 255.66,52.87 L244,40.29 L244,53 C244,53.57 244.13,53.78 244.7,53.78 L244.7,54.14 L240.1,54.14 L240.1,53.78 C240.67,53.78 240.72,53.57 240.72,53 L240.72,36.34 C240.72,35.77 240.67,35.56 240.1,35.56 L240.1,35.2 L245.64,35.2 L245.64,35.56 C245.15,35.56 244.94,35.66 244.94,35.9 C244.94,35.98 245.04,36.11 245.23,36.29 L256.51,48.29 L256.51,36.34 C256.51,35.77 256.46,35.56 255.83,35.56 L255.83,35.2 L260.48,35.2 L260.48,35.56 C259.96,35.56 259.78,35.77 259.78,36.34 L259.74,53 Z" id="Shape" fill="#008A82"></path>
                <path d="M282.15,40.76 L281.73,40.53 C281.760911,40.4124129 281.777696,40.2915604 281.78,40.17 C281.78,39.83 279.34,38.01 275.1,38.01 C271.04,38.01 269.3,39.26 269.3,40.87 C269.3,45.13 284.61,38.87 284.61,48.31 C284.61,51.74 281.28,54.39 274.61,54.39 C268.27,54.39 266.45,52.39 265.85,52.39 C265.69,52.39 265.62,52.52 265.49,52.6 L265.15,52.52 L267.31,48.1 L267.73,48.31 C267.73,48.41 267.68,48.52 267.68,48.73 C267.68,50.26 271.03,51.36 274.36,51.36 C279.09,51.36 280.7,50.01 280.7,48.58 C280.7,43.48 265.59,49.8 265.59,41.17 C265.59,36.8 270.19,34.98 275.24,34.98 C278.01828,35.0721132 280.745229,35.7538506 283.24,36.98 C283.58,36.98 283.63,36.88 283.71,36.8 L284.13,36.93 L282.15,40.76 Z" id="Shape" fill="#008A82"></path>
                <path d="M289.27,53.76 C289.84,53.76 289.95,53.55 289.95,52.98 L289.95,36.34 C289.95,35.77 289.85,35.56 289.27,35.56 L289.27,35.2 L306.14,35.2 C306.76,35.2 307.02,34.99 307.02,34.63 L307.38,34.63 L307.38,38.95 L307,38.95 C307,38.48 306.74,38.27 306.12,38.27 L293.64,38.27 L293.64,42.9 L301.8,42.9 C302.42,42.9 302.68,42.69 302.68,42.22 L303.04,42.22 L303.04,46.59 L302.68,46.59 C302.68,46.17 302.42,45.97 301.8,45.97 L293.64,45.97 L293.64,51.07 L306.38,51.07 C307,51.07 307.26,50.86 307.26,50.45 L307.62,50.45 L307.62,54.7 L307.26,54.7 C307.26,54.34 307,54.13 306.38,54.13 L289.27,54.13 L289.27,53.76 Z" id="Shape" fill="#008A82"></path>
                <path d="M312.49,35.2 L328.77,35.2 C329.39,35.2 329.65,34.99 329.65,34.63 L330,34.63 L330,38.95 L329.64,38.95 C329.64,38.48 329.38,38.27 328.76,38.27 L316.91,38.27 L316.91,42.9 L324.55,42.9 C325.17,42.9 325.43,42.69 325.43,42.22 L325.79,42.22 L325.79,46.59 L325.43,46.59 C325.43,46.17 325.17,45.97 324.55,45.97 L316.91,45.97 L316.91,52.97 C316.91,53.54 317.01,53.75 317.59,53.75 L317.59,54.11 L312.49,54.11 L312.49,53.75 C313.11,53.75 313.22,53.54 313.22,52.97 L313.22,36.34 C313.22,35.77 313.12,35.56 312.49,35.56 L312.49,35.2 Z" id="Shape" fill="#008A82"></path>
                <path d="M355.41,44.66 C355.41,50.95 350.57,54.38 344.57,54.38 C338.57,54.38 333.73,51 333.73,44.66 C333.73,38.32 338.57,34.94 344.57,34.94 C350.57,34.94 355.41,38.37 355.41,44.66 Z M337.41,44.66 C337.41,49 340.61,51.32 344.56,51.32 C348.51,51.32 351.71,49.01 351.71,44.66 C351.71,40.31 348.52,38 344.57,38 C340.62,38 337.42,40.32 337.42,44.66 L337.41,44.66 Z" id="Shape" fill="#008A82"></path>
                <path d="M380.17,53 C380.17,53.57 380.35,53.78 380.87,53.78 L380.87,54.14 L376.06,54.14 L376.06,53.78 C376.32,53.78 376.58,53.73 376.58,53.57 C376.58,53.41 376.42,53.23 376.09,52.87 L364.39,40.31 L364.39,53 C364.39,53.57 364.52,53.78 365.09,53.78 L365.09,54.14 L360.49,54.14 L360.49,53.78 C361.06,53.78 361.11,53.57 361.11,53 L361.11,36.34 C361.11,35.77 361.06,35.56 360.49,35.56 L360.49,35.2 L366,35.2 L366,35.56 C365.51,35.56 365.3,35.66 365.3,35.9 C365.3,35.98 365.4,36.11 365.59,36.29 L376.87,48.29 L376.87,36.34 C376.87,35.77 376.82,35.56 376.19,35.56 L376.19,35.2 L380.84,35.2 L380.84,35.56 C380.32,35.56 380.14,35.77 380.14,36.34 L380.17,53 Z" id="Shape" fill="#008A82"></path>
                <path d="M387.21,36.34 C387.21,35.77 387.11,35.56 386.48,35.56 L386.48,35.2 L398,35.2 C404.6,35.2 407.41,38.97 407.41,44.66 C407.41,50.95 403.93,54.12 398.57,54.12 L386.48,54.12 L386.48,53.76 C387.1,53.76 387.21,53.55 387.21,52.98 L387.21,36.34 Z M390.9,51.06 L398.54,51.06 C401.76,51.06 403.69,49.4 403.69,44.66 C403.69,39.66 401.09,38.26 397.69,38.26 L390.9,38.26 L390.9,51.06 Z" id="Shape" fill="#008A82"></path>
                <polygon id="Shape" fill="#181716" points="7.88 0 7.88 7.75 0.13 7.75 0.13 0"></polygon>
                <polygon id="Shape" fill="#C5C6C6" points="7.75 47.5 7.75 55.25 0 55.25 0 47.5"></polygon>
                <polygon id="Shape" fill="#181716" points="17.35 0 17.35 7.75 9.6 7.75 9.6 0"></polygon>
                <polygon id="Shape" fill="#181716" points="26.83 0 26.83 7.75 19.08 7.75 19.08 0"></polygon>
                <polygon id="Shape" fill="#181716" points="36.3 0 36.3 7.75 28.55 7.75 28.55 0"></polygon>
                <polygon id="Shape" fill="#181716" points="45.77 0 45.77 7.75 38 7.75 38 0"></polygon>
                <polygon id="Shape" fill="#181716" points="55.25 0 55.25 7.75 47.5 7.75 47.5 0"></polygon>
                <polygon id="Shape" fill="#181716" points="17.35 9.5 17.35 17.25 9.6 17.25 9.6 9.5"></polygon>
                <polygon id="Shape" fill="#008A82" points="17.35 37.88 17.35 45.63 9.6 45.63 9.6 37.88"></polygon>
                <polygon id="Shape" fill="#E3000B" points="26.83 9.5 26.83 17.25 19.08 17.25 19.08 9.5"></polygon>
                <polygon id="Shape" fill="#181716" points="36.3 9.5 36.3 17.25 28.55 17.25 28.55 9.5"></polygon>
                <polygon id="Shape" fill="#FFED00" points="45.77 9.5 45.77 17.25 38 17.25 38 9.5"></polygon>
                <polygon id="Shape" fill="#181716" points="55.25 9.5 55.25 17.25 47.5 17.25 47.5 9.5"></polygon>
                <polygon id="Shape" fill="#181716" points="26.83 19 26.83 26.75 19.08 26.75 19.08 19"></polygon>
                <polygon id="Shape" fill="#009EE3" points="36.3 19 36.3 26.75 28.55 26.75 28.55 19"></polygon>
                <polygon id="Shape" fill="#181716" points="45.77 19 45.77 26.75 38 26.75 38 19"></polygon>
                <polygon id="Shape" fill="#181716" points="55.25 19 55.25 26.75 47.5 26.75 47.5 19"></polygon>
                <polygon id="Shape" fill="#181716" points="26.83 28.5 26.83 36.25 19.08 36.25 19.08 28.5"></polygon>
                <polygon id="Shape" fill="#181716" points="36.3 28.5 36.3 36.25 28.55 36.25 28.55 28.5"></polygon>
                <polygon id="Shape" fill="#181716" points="45.77 28.5 45.77 36.25 38 36.25 38 28.5"></polygon>
                <polygon id="Shape" fill="#181716" points="55.25 28.5 55.25 36.25 47.5 36.25 47.5 28.5"></polygon>
                <polygon id="Shape" fill="#181716" points="45.77 38 45.77 45.75 38 45.75 38 38"></polygon>
                <polygon id="Shape" fill="#50AE2F" points="55.25 38 55.25 45.75 47.5 45.75 47.5 38"></polygon>
                <polygon id="Shape" fill="#181716" points="55.25 47.5 55.25 55.25 47.5 55.25 47.5 47.5"></polygon>
            </g>
        </g>
    </g>
</svg>