<svg xmlns="http://www.w3.org/2000/svg" viewBox="0 0 206.72 120"><path d="M457.12,298.06c-.13-20.93-16.16-37.76-36.59-38.4-22.68-.7-38.76,17.77-39.14,37.56-.38,20.6,15.38,38.51,36.57,39.2C440.1,337.13,457,319.21,457.12,298.06Zm-78.63-2.73c-.49,0-.8-.07-1.1-.08-1.83,0-3.66,0-5.48,0a1.28,1.28,0,0,0-1.4,1c-2.35,6-4.74,11.92-7.12,17.88-.07.2-.1.42-.18.75,2.26,0,4.4,0,6.53,0a1.27,1.27,0,0,0,1.4-1c1.7-4.36,3.45-8.72,5.18-13.07Zm91.75-.08c-1.31,0-2.4,0-3.5,0a.94.94,0,0,0-1,.73c-2.34,6-4.71,12-7.06,18-.1.24-.16.49-.28.88,1.12,0,2.13-.06,3.13,0a1.26,1.26,0,0,0,1.46-1c2.16-5.57,4.36-11.12,6.54-16.68C469.73,296.61,469.94,296.05,470.24,295.25Zm13,.2c-1.42-.49-2.18-.28-2.57.69q-3.5,8.89-7,17.81a8.48,8.48,0,0,0-.27.84,9.72,9.72,0,0,1,1,0c1,.17,1.4-.26,1.75-1.18,2.26-5.87,4.59-11.72,6.89-17.57A5.17,5.17,0,0,0,483.21,295.45Z" transform="translate(-319.85 -238.04)" style="fill:#c92128"/><path d="M457.12,298.06c-.08,21.15-17,39.07-39.16,38.36-21.19-.69-36.95-18.6-36.57-39.2.38-19.79,16.46-38.26,39.14-37.56C441,260.3,457,277.13,457.12,298.06Zm-27.59.21.23-.07c.11.26.23.51.33.77q2.93,7.35,5.83,14.71a1.48,1.48,0,0,0,1.58,1.07c2,0,3.94,0,5.91,0a1.3,1.3,0,0,0,1.39-.93q3.45-8.7,6.92-17.4c.32-.8.18-1-.69-1-1.94,0-3.88,0-5.83,0a1.14,1.14,0,0,0-1.25.93c-.79,2.58-1.63,5.14-2.46,7.71-.33,1-.67,2-1.06,3.19a5.29,5.29,0,0,1-.32-.63c-1.07-3.35-2.16-6.69-3.19-10.05a1.38,1.38,0,0,0-1.54-1.16c-3.8.05-7.6,0-11.39,0-1.28,0-1.28,0-1.29,1.34v2a5.68,5.68,0,0,0-5.12-3.28c-4.33,0-6.8,2.46-8.07,6.5a7.38,7.38,0,0,1-.2-1.28c-.22-3-1.74-4.73-4.67-5.09a29.64,29.64,0,0,0-4.42-.11,1.33,1.33,0,0,0-.91.74c-.65,1.47-1.21,3-1.81,4.48a5.86,5.86,0,0,1-.3.55,46.8,46.8,0,0,1-.14-4.86c0-.65-.22-1-.91-1q-2.61,0-5.22,0a1,1,0,0,0-1.1.79c-.71,1.83-1.45,3.65-2.16,5.47a6,6,0,0,0-.19.82c.64,0,1.18,0,1.71,0,.77-.07,1,.24,1,1,0,3.41,0,6.81,0,10.22,0,.75.24,1.06,1,1,1.54-.05,3.07,0,4.61,0,1.23,0,1.28-.05,1.28-1.28,0-3.35,0-6.69,0-10,0-.69.2-1,.89-.93s1.16,0,1.74,0c2.27,0,2.9.6,3,2.92q.09,4.14,0,8.28c0,.81.27,1.08,1.07,1.06,1.53-.05,3.07-.05,4.61,0a1.36,1.36,0,0,0,1.49-1c.31-.87.69-1.72,1.06-2.63a3.59,3.59,0,0,1,.36.27,9.65,9.65,0,0,0,7.79,3.41,1.45,1.45,0,0,0,1.56-1.09c.5-1.38,1.06-2.73,1.6-4.09a5.29,5.29,0,0,1,.29-.52,33.75,33.75,0,0,1,.2,4.79c0,.63.19.91.85.9,1.71,0,3.42,0,5.13,0a1.16,1.16,0,0,0,1.2-.82c.67-1.71,1.35-3.43,2-5.14.28-.67.13-1-.62-1-1.77-.08-1.77-.09-1.77-1.86v-7.63Z" transform="translate(-319.85 -238.04)" style="fill:#c92128"/><path d="M378.49,295.33l-2.17,5.48c-1.73,4.35-3.48,8.71-5.18,13.07a1.27,1.27,0,0,1-1.4,1c-2.13-.06-4.27,0-6.53,0,.08-.33.11-.55.18-.75,2.38-6,4.77-11.92,7.12-17.88a1.28,1.28,0,0,1,1.4-1c1.82.06,3.65,0,5.48,0C377.69,295.26,378,295.3,378.49,295.33Z" transform="translate(-319.85 -238.04)" style="fill:#c92128"/><path d="M470.24,295.25c-.3.8-.51,1.36-.73,1.93-2.18,5.56-4.38,11.11-6.54,16.68a1.26,1.26,0,0,1-1.46,1c-1-.07-2,0-3.13,0,.12-.39.18-.64.28-.88,2.35-6,4.72-12,7.06-18a.94.94,0,0,1,1-.73C467.84,295.27,468.93,295.25,470.24,295.25Z" transform="translate(-319.85 -238.04)" style="fill:#c92128"/><path d="M483.21,295.45a5.17,5.17,0,0,1-.19.64c-2.3,5.85-4.63,11.7-6.89,17.57-.35.92-.78,1.35-1.75,1.18a9.72,9.72,0,0,0-1,0,8.48,8.48,0,0,1,.27-.84q3.5-8.91,7-17.81C481,295.17,481.79,295,483.21,295.45Z" transform="translate(-319.85 -238.04)" style="fill:#c92128"/><path d="M429.53,298.27v7.63c0,1.77,0,1.78,1.77,1.86.75,0,.9.34.62,1-.69,1.71-1.37,3.43-2,5.14a1.16,1.16,0,0,1-1.2.82c-1.71,0-3.42,0-5.13,0-.66,0-.86-.27-.85-.9a33.75,33.75,0,0,0-.2-4.79,5.29,5.29,0,0,0-.29.52c-.54,1.36-1.1,2.71-1.6,4.09a1.45,1.45,0,0,1-1.56,1.09,9.65,9.65,0,0,1-7.79-3.41,3.59,3.59,0,0,0-.36-.27c-.37.91-.75,1.76-1.06,2.63a1.36,1.36,0,0,1-1.49,1c-1.54,0-3.08,0-4.61,0-.8,0-1.07-.25-1.07-1.06q0-4.14,0-8.28c-.06-2.32-.69-2.9-3-2.92-.58,0-1.17,0-1.74,0s-.89.24-.89.93c0,3.35,0,6.69,0,10,0,1.23-.05,1.28-1.28,1.28-1.54,0-3.07,0-4.61,0-.77,0-1-.29-1-1,0-3.41,0-6.81,0-10.22,0-.77-.22-1.08-1-1-.53,0-1.07,0-1.71,0a6,6,0,0,1,.19-.82c.71-1.82,1.45-3.64,2.16-5.47a1,1,0,0,1,1.1-.79q2.61,0,5.22,0c.69,0,.92.31.91,1a46.8,46.8,0,0,0,.14,4.86,5.86,5.86,0,0,0,.3-.55c.6-1.5,1.16-3,1.81-4.48a1.33,1.33,0,0,1,.91-.74,29.64,29.64,0,0,1,4.42.11c2.93.36,4.45,2.1,4.67,5.09a7.38,7.38,0,0,0,.2,1.28c1.27-4,3.74-6.5,8.07-6.5a5.68,5.68,0,0,1,5.12,3.28v-2c0-1.33,0-1.34,1.29-1.34,3.79,0,7.59,0,11.39,0a1.38,1.38,0,0,1,1.54,1.16c1,3.36,2.12,6.7,3.19,10.05a5.29,5.29,0,0,0,.32.63c.39-1.17.73-2.18,1.06-3.19.83-2.57,1.67-5.13,2.46-7.71a1.14,1.14,0,0,1,1.25-.93c1.95,0,3.89,0,5.83,0,.87,0,1,.19.69,1q-3.45,8.7-6.92,17.4a1.3,1.3,0,0,1-1.39.93c-2,0-3.94,0-5.91,0a1.48,1.48,0,0,1-1.58-1.07q-2.9-7.37-5.83-14.71c-.1-.26-.22-.51-.33-.77Zm-9.27,9.5h0c.61,0,1.22,0,1.82,0,.21,0,.58-.28.58-.43a12.48,12.48,0,0,0-.11-3.06c-.56-2.5-3.36-2.6-5-1.93a2.84,2.84,0,0,0-1.64,3.09,2.9,2.9,0,0,0,2.76,2.36Z" transform="translate(-319.85 -238.04)" style="fill:#fff"/><path d="M420.26,307.77H418.7a2.9,2.9,0,0,1-2.76-2.36,2.84,2.84,0,0,1,1.64-3.09c1.61-.67,4.41-.57,5,1.93a12.48,12.48,0,0,1,.11,3.06c0,.15-.37.41-.58.43-.6.06-1.21,0-1.82,0Z" transform="translate(-319.85 -238.04)" style="fill:#c92128"/><rect width="206.72" height="120" style="fill:none"/></svg>