<svg xmlns="http://www.w3.org/2000/svg" viewBox="0 0 120 76.79"><path d="M455.14,298.06c-.13-20.93-16.16-37.76-36.59-38.4-22.68-.71-38.76,17.77-39.14,37.56-.38,20.6,15.38,38.51,36.57,39.19C438.12,337.13,455.06,319.21,455.14,298.06Zm-78.62-2.73c-.5,0-.81-.08-1.11-.08-1.83,0-3.66,0-5.48,0a1.27,1.27,0,0,0-1.4,1c-2.35,6-4.74,11.93-7.11,17.89a5.5,5.5,0,0,0-.19.74c2.26,0,4.4,0,6.54,0a1.26,1.26,0,0,0,1.39-1c1.7-4.37,3.45-8.72,5.18-13.08Zm91.74-.08c-1.31,0-2.4,0-3.5,0a1,1,0,0,0-1,.73c-2.34,6-4.71,12-7.06,18-.1.24-.16.49-.28.87,1.12,0,2.13-.05,3.13,0a1.26,1.26,0,0,0,1.46-1c2.16-5.57,4.36-11.13,6.54-16.69C467.75,296.61,468,296,468.26,295.25Zm13,.19c-1.42-.49-2.18-.28-2.56.69q-3.51,8.91-7,17.81c-.09.24-.16.49-.27.85a7.56,7.56,0,0,1,1,0c1,.17,1.4-.26,1.76-1.18,2.25-5.87,4.58-11.72,6.89-17.58A6,6,0,0,0,481.23,295.44Z" transform="translate(-361.23 -259.64)" style="fill:#c92128"/><path d="M455.14,298.06c-.08,21.15-17,39.07-39.16,38.35-21.19-.68-37-18.59-36.57-39.19.38-19.79,16.46-38.27,39.14-37.56C439,260.3,455,277.13,455.14,298.06Zm-27.59.21.23-.07c.11.26.23.51.33.77q2.92,7.35,5.83,14.7a1.46,1.46,0,0,0,1.58,1.07c2,0,3.94,0,5.91,0a1.31,1.31,0,0,0,1.39-.93q3.45-8.7,6.92-17.4c.32-.8.19-1-.69-1-1.94,0-3.88,0-5.82,0a1.12,1.12,0,0,0-1.25.93c-.8,2.58-1.64,5.14-2.47,7.71-.32,1-.67,2-1.05,3.19a4.43,4.43,0,0,1-.33-.63c-1.07-3.35-2.16-6.69-3.19-10.06a1.37,1.37,0,0,0-1.54-1.15c-3.8.05-7.6,0-11.39,0-1.28,0-1.28,0-1.29,1.33v2a5.69,5.69,0,0,0-5.12-3.29c-4.33,0-6.8,2.47-8.07,6.5a6.3,6.3,0,0,1-.19-1.27c-.22-3-1.75-4.73-4.68-5.09a29.64,29.64,0,0,0-4.42-.12,1.37,1.37,0,0,0-.91.75c-.65,1.47-1.21,3-1.81,4.48a5,5,0,0,1-.3.55c-.14-1.66-.16-3.26-.14-4.86,0-.66-.22-1-.91-1-1.74,0-3.48,0-5.22,0a1.07,1.07,0,0,0-1.1.79c-.71,1.83-1.45,3.65-2.16,5.48a8.07,8.07,0,0,0-.19.82c.64,0,1.18,0,1.71,0,.77-.07,1,.24,1,1,0,3.4,0,6.81,0,10.22,0,.74.24,1.05,1,1,1.54,0,3.07,0,4.61,0,1.23,0,1.28-.05,1.29-1.28,0-3.35,0-6.7,0-10,0-.69.2-1,.89-.93s1.16,0,1.74,0c2.27,0,2.9.6,3,2.92.06,2.75.07,5.52,0,8.28,0,.81.28,1.08,1.07,1.05,1.53,0,3.07,0,4.61,0a1.39,1.39,0,0,0,1.5-1c.31-.87.68-1.72,1.05-2.64a2,2,0,0,1,.36.28,9.64,9.64,0,0,0,7.79,3.4,1.44,1.44,0,0,0,1.56-1.09c.5-1.37,1.06-2.73,1.6-4.09.08-.18.2-.34.29-.51a33.75,33.75,0,0,1,.2,4.79c0,.63.19.91.85.9,1.71,0,3.42,0,5.13,0a1.18,1.18,0,0,0,1.2-.82q1-2.58,2.05-5.14c.27-.68.12-1-.63-1-1.77-.08-1.77-.1-1.77-1.86v-7.63Z" transform="translate(-361.23 -259.64)" style="fill:#c92128"/><path d="M376.52,295.33l-2.18,5.47c-1.73,4.36-3.48,8.71-5.18,13.08a1.26,1.26,0,0,1-1.39,1c-2.14-.05-4.28,0-6.54,0a5.5,5.5,0,0,1,.19-.74c2.37-6,4.76-11.92,7.11-17.89a1.27,1.27,0,0,1,1.4-1c1.82.06,3.65,0,5.48,0C375.71,295.25,376,295.29,376.52,295.33Z" transform="translate(-361.23 -259.64)" style="fill:#c92128"/><path d="M468.26,295.25c-.3.79-.51,1.36-.73,1.92-2.18,5.56-4.38,11.12-6.54,16.69a1.26,1.26,0,0,1-1.46,1c-1-.07-2,0-3.13,0,.12-.38.18-.63.28-.87,2.35-6,4.72-12,7.06-18a1,1,0,0,1,1-.73C465.86,295.27,467,295.25,468.26,295.25Z" transform="translate(-361.23 -259.64)" style="fill:#c92128"/><path d="M481.23,295.44a6,6,0,0,1-.18.64c-2.31,5.86-4.64,11.71-6.89,17.58-.36.92-.79,1.35-1.76,1.18a7.56,7.56,0,0,0-1,0c.11-.36.18-.61.27-.85q3.49-8.9,7-17.81C479.05,295.16,479.81,295,481.23,295.44Z" transform="translate(-361.23 -259.64)" style="fill:#c92128"/><path d="M427.55,298.27v7.63c0,1.76,0,1.78,1.77,1.86.75,0,.9.33.63,1q-1.05,2.57-2.05,5.14a1.18,1.18,0,0,1-1.2.82c-1.71,0-3.42,0-5.13,0-.66,0-.86-.27-.85-.9a33.75,33.75,0,0,0-.2-4.79c-.09.17-.21.33-.29.51-.54,1.36-1.1,2.72-1.6,4.09a1.44,1.44,0,0,1-1.56,1.09,9.64,9.64,0,0,1-7.79-3.4,2,2,0,0,0-.36-.28c-.37.92-.74,1.77-1.05,2.64a1.39,1.39,0,0,1-1.5,1c-1.54,0-3.08,0-4.61,0-.79,0-1.07-.24-1.07-1.05,0-2.76,0-5.53,0-8.28-.06-2.32-.69-2.9-3-2.92-.58,0-1.16,0-1.74,0s-.89.24-.89.93c0,3.34,0,6.69,0,10,0,1.23-.06,1.28-1.29,1.28-1.54,0-3.07,0-4.61,0-.77,0-1-.29-1-1,0-3.41,0-6.82,0-10.22,0-.77-.22-1.08-1-1-.53,0-1.07,0-1.71,0a8.07,8.07,0,0,1,.19-.82c.71-1.83,1.45-3.65,2.16-5.48a1.07,1.07,0,0,1,1.1-.79c1.74,0,3.48,0,5.22,0,.69,0,.92.31.91,1,0,1.6,0,3.2.14,4.86a5,5,0,0,0,.3-.55c.6-1.5,1.16-3,1.81-4.48a1.37,1.37,0,0,1,.91-.75,29.64,29.64,0,0,1,4.42.12c2.93.36,4.46,2.1,4.68,5.09a6.3,6.3,0,0,0,.19,1.27c1.27-4,3.74-6.49,8.07-6.5a5.69,5.69,0,0,1,5.12,3.29v-2c0-1.33,0-1.33,1.29-1.33,3.79,0,7.59,0,11.39,0a1.37,1.37,0,0,1,1.54,1.15c1,3.37,2.12,6.71,3.19,10.06a4.43,4.43,0,0,0,.33.63c.38-1.17.73-2.18,1.05-3.19.83-2.57,1.67-5.13,2.47-7.71a1.12,1.12,0,0,1,1.25-.93c1.94,0,3.88,0,5.82,0,.88,0,1,.19.69,1q-3.45,8.7-6.92,17.4a1.31,1.31,0,0,1-1.39.93c-2,0-3.94,0-5.91,0a1.46,1.46,0,0,1-1.58-1.07q-2.9-7.35-5.83-14.7c-.1-.26-.22-.51-.33-.77Zm-9.27,9.5h0c.61,0,1.22,0,1.82,0,.21,0,.58-.28.58-.43a12.48,12.48,0,0,0-.11-3.06c-.56-2.5-3.36-2.6-5-1.93a2.84,2.84,0,0,0-1.64,3.09,2.9,2.9,0,0,0,2.76,2.35C417.24,307.78,417.76,307.77,418.28,307.77Z" transform="translate(-361.23 -259.64)" style="fill:#fff"/><path d="M418.28,307.77c-.52,0-1,0-1.56,0a2.9,2.9,0,0,1-2.76-2.35,2.84,2.84,0,0,1,1.64-3.09c1.61-.67,4.41-.57,5,1.93a12.48,12.48,0,0,1,.11,3.06c0,.15-.37.41-.58.43-.6.06-1.21,0-1.82,0Z" transform="translate(-361.23 -259.64)" style="fill:#c92128"/></svg>