<svg xmlns="http://www.w3.org/2000/svg" viewBox="0 0 150 116.3"><path d="M353.59,326.35a2.31,2.31,0,0,1,.53.9,3.77,3.77,0,0,1,.16,1.16,3.24,3.24,0,0,1-1.17,2.59,4,4,0,0,1-2.86,1,5.46,5.46,0,0,1-1.58-.27,7.63,7.63,0,0,1-1.38-.58l-.37.58h-.53l-.16-4h.69c.16.48.32,1,.48,1.33a3.18,3.18,0,0,0,.74,1.11,3.72,3.72,0,0,0,1,.79,2.74,2.74,0,0,0,1.33.27,3.22,3.22,0,0,0,1-.16,2.2,2.2,0,0,0,.69-.43,1.25,1.25,0,0,0,.37-.63,2.34,2.34,0,0,0,.1-.85,2.4,2.4,0,0,0-.42-1.32,2.23,2.23,0,0,0-1.16-.9c-.37-.16-.8-.32-1.22-.48a11.63,11.63,0,0,1-1.22-.47,4,4,0,0,1-1.53-1.17,3,3,0,0,1-.53-1.9,3.84,3.84,0,0,1,.26-1.27,3,3,0,0,1,.8-1.06,4.16,4.16,0,0,1,1.11-.69,3.94,3.94,0,0,1,1.38-.26,4,4,0,0,1,1.42.26,8,8,0,0,1,1.17.58l.32-.58h.74l.05,3.92h-.69a8.22,8.22,0,0,0-.42-1.27,5.5,5.5,0,0,0-.58-1.11,2.31,2.31,0,0,0-.85-.74,2.2,2.2,0,0,0-1.27-.27,1.75,1.75,0,0,0-1.32.53,1.54,1.54,0,0,0-.53,1.22,1.89,1.89,0,0,0,.37,1.27,2.43,2.43,0,0,0,1.06.84,6.36,6.36,0,0,0,1.16.48l1.11.48,1,.47A5.08,5.08,0,0,1,353.59,326.35Z" transform="translate(-346.23 -239.89)" style="fill:#204d25"/><path d="M363.22,324.55a4.28,4.28,0,0,1,.74,1.32,6,6,0,0,1,.26,1.75,4.49,4.49,0,0,1-.32,1.74,4,4,0,0,1-.84,1.38,4.86,4.86,0,0,1-1.22.9,3.49,3.49,0,0,1-1.43.32,4.12,4.12,0,0,1-1.21-.16,6.93,6.93,0,0,1-.8-.37h0v2.43a1,1,0,0,0,.11.48c.05.16.21.21.37.26a3.71,3.71,0,0,0,.58.16,2.7,2.7,0,0,0,.58.05v.53h-4.55v-.53a1.57,1.57,0,0,0,.48-.05.93.93,0,0,0,.42-.11.89.89,0,0,0,.37-.26,1.65,1.65,0,0,0,.1-.48v-8.67a1.65,1.65,0,0,0-.1-.48,2.44,2.44,0,0,0-.32-.37,1.68,1.68,0,0,0-.42-.16,1.91,1.91,0,0,0-.53-.05v-.53l2.8-.16.11.11v.9h0a4.39,4.39,0,0,1,1.06-.85,2.84,2.84,0,0,1,1.27-.32,3,3,0,0,1,1.38.32A4.61,4.61,0,0,1,363.22,324.55Zm-1.38,5.87a3.82,3.82,0,0,0,.48-1.21,7.28,7.28,0,0,0,.16-1.54,5.52,5.52,0,0,0-.16-1.27,3.43,3.43,0,0,0-.43-1.11,2.54,2.54,0,0,0-.74-.79,1.86,1.86,0,0,0-1.11-.32,2.25,2.25,0,0,0-1.06.26,2.93,2.93,0,0,0-.74.64v4.81a1.17,1.17,0,0,0,.27.48,2.22,2.22,0,0,0,.37.42,1.37,1.37,0,0,0,.53.32,1.5,1.5,0,0,0,.74.11,2,2,0,0,0,.9-.27A.86.86,0,0,0,361.84,330.42Z" transform="translate(-346.23 -239.89)" style="fill:#204d25"/><path d="M373.32,331.59a6.5,6.5,0,0,1-.69.21,2.78,2.78,0,0,1-.68.1,1.44,1.44,0,0,1-1-.31,1.28,1.28,0,0,1-.47-.9h-.06a3.84,3.84,0,0,1-1.16.9,3.23,3.23,0,0,1-1.48.31,2.22,2.22,0,0,1-1.54-.58,2,2,0,0,1-.58-1.48,2.15,2.15,0,0,1,.16-.85,1.93,1.93,0,0,1,.42-.68,2.22,2.22,0,0,1,.53-.43l.64-.32c.26-.1.74-.26,1.53-.52s1.27-.48,1.54-.59v-.79a1.5,1.5,0,0,0-.06-.42,1.8,1.8,0,0,0-.21-.59,1.4,1.4,0,0,0-1.32-.74,2.77,2.77,0,0,0-.69.11,2.52,2.52,0,0,0-.48.26,1.62,1.62,0,0,0,.06.48,2.48,2.48,0,0,1,.05.58.77.77,0,0,1-.26.53,1.06,1.06,0,0,1-.75.27.62.62,0,0,1-.58-.32,1.56,1.56,0,0,1-.21-.64,1.43,1.43,0,0,1,.27-.74,3.83,3.83,0,0,1,.68-.63,3.38,3.38,0,0,1,.9-.37,3.54,3.54,0,0,1,1.06-.16,8.47,8.47,0,0,1,1.22.1,2.33,2.33,0,0,1,1,.43,2,2,0,0,1,.64.84A3.64,3.64,0,0,1,372,326v4.13a1.67,1.67,0,0,0,.1.53,1.9,1.9,0,0,0,.32.31,2.07,2.07,0,0,0,.37.11h.53v.48Zm-2.85-4.34a10.58,10.58,0,0,0-1.22.42c-.37.16-.69.32-1,.48a2.69,2.69,0,0,0-.63.68,1.82,1.82,0,0,0-.27.9,1.19,1.19,0,0,0,.37,1,1.36,1.36,0,0,0,.9.32,2.41,2.41,0,0,0,1.06-.27,2.89,2.89,0,0,0,.74-.69Z" transform="translate(-346.23 -239.89)" style="fill:#204d25"/><path d="M380.57,324.65a1.24,1.24,0,0,1-.21.75.76.76,0,0,1-.64.31.9.9,0,0,1-.68-.26.74.74,0,0,1-.27-.53.61.61,0,0,1,.06-.32c0-.1.05-.21.05-.32a1.7,1.7,0,0,0-.9.32,2.86,2.86,0,0,0-.9.9v4.76a1,1,0,0,0,.11.48.62.62,0,0,0,.37.26,1.33,1.33,0,0,0,.52.11,2.6,2.6,0,0,0,.59.05v.53h-4.29v-.53a.92.92,0,0,0,.37-.05c.16,0,.27-.05.37-.05a.55.55,0,0,0,.32-.27,1,1,0,0,0,.11-.47v-5a2.51,2.51,0,0,0-.11-.53,2.55,2.55,0,0,0-.32-.42,1.63,1.63,0,0,0-.37-.16,1.54,1.54,0,0,0-.47-.05v-.53l2.69-.16.11.1v1.17h.05a3.38,3.38,0,0,1,1.17-1,2.7,2.7,0,0,1,1.16-.37,1.13,1.13,0,0,1,.85.32A2.16,2.16,0,0,1,380.57,324.65Z" transform="translate(-346.23 -239.89)" style="fill:#204d25"/><path d="M388.67,329.84a3.92,3.92,0,0,1-1.38,1.53,3.56,3.56,0,0,1-2,.59,3.88,3.88,0,0,1-1.74-.37,3.09,3.09,0,0,1-1.22-1,4.22,4.22,0,0,1-.74-1.37,5.92,5.92,0,0,1-.21-1.7,4.91,4.91,0,0,1,.26-1.53,5.27,5.27,0,0,1,.74-1.38,4.27,4.27,0,0,1,1.17-.95,3.21,3.21,0,0,1,1.58-.37,4.37,4.37,0,0,1,1.54.27,2.71,2.71,0,0,1,1.06.79,3.9,3.9,0,0,1,.58,1.11,5.53,5.53,0,0,1,.21,1.38v.53h-5.5a6.46,6.46,0,0,0,.16,1.48,3.77,3.77,0,0,0,.47,1.16,1.92,1.92,0,0,0,.85.74,2.31,2.31,0,0,0,1.22.27,2.15,2.15,0,0,0,1.27-.37,3,3,0,0,0,1-1.27Zm-1.8-3.12a6,6,0,0,0-.06-1,3.43,3.43,0,0,0-.26-.9,1.63,1.63,0,0,0-.53-.63,1.46,1.46,0,0,0-.85-.27,1.76,1.76,0,0,0-1.42.74,3.64,3.64,0,0,0-.64,2l3.76.05Z" transform="translate(-346.23 -239.89)" style="fill:#204d25"/><path d="M398.08,327.67a4.19,4.19,0,0,1-1.16,3.07,3.6,3.6,0,0,1-2.7,1.27,3.8,3.8,0,0,1-1.32-.21,9,9,0,0,1-1.22-.53l-.63,1-.53-.1a13.31,13.31,0,0,0,.05-1.49v-9.78a2.35,2.35,0,0,0-.1-.59,1.75,1.75,0,0,0-.32-.42,2.28,2.28,0,0,0-.53-.16,2.75,2.75,0,0,0-.58-.05v-.53l3-.16.11.11v5.39h0a3.12,3.12,0,0,1,1.11-.79,3.4,3.4,0,0,1,1.22-.27,3.27,3.27,0,0,1,2.54,1.22A4.37,4.37,0,0,1,398.08,327.67Zm-1.74.05a5.08,5.08,0,0,0-.16-1.27,3.66,3.66,0,0,0-.42-1.11,2.79,2.79,0,0,0-.74-.79,2,2,0,0,0-1.12-.32,2,2,0,0,0-1,.21,3.76,3.76,0,0,0-.79.64v4.76c.05.11.1.26.21.48a3.2,3.2,0,0,0,.37.53,2.61,2.61,0,0,0,.58.37,2,2,0,0,0,2.43-.8A5,5,0,0,0,396.34,327.72Z" transform="translate(-346.23 -239.89)" style="fill:#204d25"/><path d="M407.19,331.59c-.27.1-.48.15-.69.21a2.86,2.86,0,0,1-.69.1,1.47,1.47,0,0,1-1-.31,1.28,1.28,0,0,1-.47-.9h-.05a4,4,0,0,1-1.17.9,3.23,3.23,0,0,1-1.48.31,2.18,2.18,0,0,1-1.53-.58,2,2,0,0,1-.59-1.48,2.34,2.34,0,0,1,.16-.85,1.82,1.82,0,0,1,.43-.68,2,2,0,0,1,.52-.43l.64-.32c.26-.1.74-.26,1.53-.52s1.27-.48,1.54-.59v-.79a1.78,1.78,0,0,0-.05-.42,2.06,2.06,0,0,0-.22-.59,1.37,1.37,0,0,0-.47-.52,1.34,1.34,0,0,0-.85-.22,2.85,2.85,0,0,0-.69.11,2.13,2.13,0,0,0-.47.26,1.93,1.93,0,0,0,.05.48,2.48,2.48,0,0,1,.05.58.73.73,0,0,1-.26.53,1.06,1.06,0,0,1-.74.27.6.6,0,0,1-.58-.32,1.1,1.1,0,0,1,0-1.38,3.92,3.92,0,0,1,.69-.63,3.25,3.25,0,0,1,.9-.37,3.48,3.48,0,0,1,1.05-.16,8.47,8.47,0,0,1,1.22.1,2.28,2.28,0,0,1,.95.43,2,2,0,0,1,.64.84,3.46,3.46,0,0,1,.21,1.38v4.13a1.43,1.43,0,0,0,.11.53,1.81,1.81,0,0,0,.31.31,2.07,2.07,0,0,0,.37.11h.53v.48Zm-2.86-4.34a10.58,10.58,0,0,0-1.22.42c-.37.16-.69.32-1,.48a2.56,2.56,0,0,0-.64.68,1.81,1.81,0,0,0-.26.9,1.17,1.17,0,0,0,.37,1,1.34,1.34,0,0,0,.9.32,2.34,2.34,0,0,0,1-.27,3.11,3.11,0,0,0,.75-.69Z" transform="translate(-346.23 -239.89)" style="fill:#204d25"/><path d="M417.19,331.74h-4v-.52a1.17,1.17,0,0,0,.42-.06c.16,0,.26-.05.37-.05a.54.54,0,0,0,.32-.26,1.15,1.15,0,0,0,.1-.48v-4.18a1.93,1.93,0,0,0-.42-1.32,1.21,1.21,0,0,0-1-.48,1.73,1.73,0,0,0-.8.16,3.06,3.06,0,0,0-.63.32,1.56,1.56,0,0,0-.43.42c-.1.16-.21.26-.21.37v4.71a1.17,1.17,0,0,0,.11.48.67.67,0,0,0,.37.26,1,1,0,0,0,.37.11c.1,0,.26,0,.42,0v.53h-4v-.53a.92.92,0,0,0,.37,0c.16,0,.27-.06.37-.06a.54.54,0,0,0,.32-.26,1.15,1.15,0,0,0,.1-.48v-5a1.61,1.61,0,0,0-.1-.53,2,2,0,0,0-.32-.37,1.63,1.63,0,0,0-.37-.16,1.32,1.32,0,0,0-.48-.06v-.52l2.7-.16.11.1v1.17h.05l.48-.48c.21-.16.37-.32.58-.48a1.61,1.61,0,0,1,.74-.31,2.49,2.49,0,0,1,.95-.16,2.08,2.08,0,0,1,1.75.74,3.17,3.17,0,0,1,.58,2v4.23a1,1,0,0,0,.11.48.55.55,0,0,0,.31.26,3.08,3.08,0,0,0,.32.11c.11,0,.21,0,.43,0v.47Z" transform="translate(-346.23 -239.89)" style="fill:#204d25"/><path d="M427,331.74h-2.49c-.42-.63-.9-1.27-1.38-2s-1-1.42-1.53-2.06l-.69.64v1.95a1,1,0,0,0,.11.48.62.62,0,0,0,.37.26,1.14,1.14,0,0,0,.37.11,1.05,1.05,0,0,0,.42.05v.53h-4v-.53a.92.92,0,0,0,.37-.05c.16,0,.27-.05.37-.05a.94.94,0,0,0,.37-.27,1,1,0,0,0,.11-.47v-9.47a2.36,2.36,0,0,0-.11-.59,2.43,2.43,0,0,0-.32-.42.74.74,0,0,0-.52-.16,2.83,2.83,0,0,0-.59-.05v-.53l3-.16.1.11v8.67l1.38-1.37c.48-.48.9-1,1.27-1.32a.83.83,0,0,0,.16-.22.41.41,0,0,0,.05-.21c0-.16-.1-.26-.37-.32l-.69-.15v-.53h3.6v.53a5.14,5.14,0,0,0-1.22.52,2.73,2.73,0,0,0-.79.59,3.44,3.44,0,0,0-.58.53c-.27.26-.58.58-1,1,.48.58,1,1.22,1.54,2s.95,1.32,1.22,1.69a3.43,3.43,0,0,0,.63.64,2,2,0,0,0,.85.16v.52Z" transform="translate(-346.23 -239.89)" style="fill:#204d25"/><path d="M433,327.78a2.1,2.1,0,0,1,.52.68,2.54,2.54,0,0,1,.16,1,2.28,2.28,0,0,1-.84,1.85,3.48,3.48,0,0,1-2.23.74,3.66,3.66,0,0,1-1.32-.27,2.15,2.15,0,0,1-.84-.47l-.16.53h-.64l-.1-2.86h.58a6.68,6.68,0,0,0,.26.74,6.41,6.41,0,0,0,.53.79,3.16,3.16,0,0,0,.79.64,2.2,2.2,0,0,0,1,.26A1.67,1.67,0,0,0,432,331a1.39,1.39,0,0,0,.42-1.05,1,1,0,0,0-.16-.59,1.12,1.12,0,0,0-.42-.42,2.11,2.11,0,0,0-.69-.32c-.26-.1-.58-.21-.9-.31a3.79,3.79,0,0,1-.85-.32,5.47,5.47,0,0,1-.79-.48,2.37,2.37,0,0,1-.58-.69,2,2,0,0,1-.21-1,2.25,2.25,0,0,1,.74-1.69,2.7,2.7,0,0,1,2-.69,7.51,7.51,0,0,1,1,.1,2.84,2.84,0,0,1,.8.32l.21-.42h.58l.11,2.64h-.59a2.67,2.67,0,0,0-.74-1.43,1.89,1.89,0,0,0-1.42-.52,1.58,1.58,0,0,0-1.06.31,1,1,0,0,0-.37.85,2,2,0,0,0,.1.63,1.53,1.53,0,0,0,.37.43,4.2,4.2,0,0,0,.64.32,9.7,9.7,0,0,0,1,.31,6.13,6.13,0,0,1,1,.43A1.18,1.18,0,0,1,433,327.78Z" transform="translate(-346.23 -239.89)" style="fill:#204d25"/><path d="M440.15,331.43c-.37.16-.69.26-1,.37A3.72,3.72,0,0,1,438,332a1.63,1.63,0,0,1-1.43-.53,2.5,2.5,0,0,1-.42-1.48v-5.56h-1.48v-.79h1.48v-2.54h1.48v2.54h2.33v.79h-2.33v4.55a4.26,4.26,0,0,0,.05.85,2,2,0,0,0,.16.58,1,1,0,0,0,.42.37,1.32,1.32,0,0,0,.69.11,3,3,0,0,0,.64-.06,1.51,1.51,0,0,0,.58-.1v.74Z" transform="translate(-346.23 -239.89)" style="fill:#204d25"/><path d="M445.07,331.74h-3.92v-.52a.78.78,0,0,0,.37-.06c.16,0,.27-.05.37-.05a.54.54,0,0,0,.32-.26,1.13,1.13,0,0,0,.11-.48v-5a1.6,1.6,0,0,0-.11-.47,1.71,1.71,0,0,0-.32-.37,1.8,1.8,0,0,0-.47-.16c-.21-.06-.37-.06-.53-.11v-.53l2.86-.16.1.11v6.67a.93.93,0,0,0,.11.47.68.68,0,0,0,.37.27,1,1,0,0,0,.37.1.78.78,0,0,0,.37.06v.52Zm-1-11.48a1.29,1.29,0,0,1-.31.85,1.14,1.14,0,0,1-.74.37,1.08,1.08,0,0,1-.75-.32,1,1,0,0,1-.31-.74,1.06,1.06,0,0,1,.31-.79,1.09,1.09,0,0,1,1.54,0A.77.77,0,0,1,444.06,320.26Z" transform="translate(-346.23 -239.89)" style="fill:#204d25"/><path d="M452.32,320a.88.88,0,0,1-.21.63.77.77,0,0,1-.59.27,1.68,1.68,0,0,1-.47-.11,1.29,1.29,0,0,1-.37-.27,2.55,2.55,0,0,1-.32-.42,3.3,3.3,0,0,0-.26-.37c-.38,0-.64.27-.85.79a6.44,6.44,0,0,0-.32,2.39v.84h2.12v.8h-2.12v5.87a1,1,0,0,0,.11.48.67.67,0,0,0,.37.26,1.6,1.6,0,0,0,.53.11,2.48,2.48,0,0,0,.58,0v.53h-4.29v-.53a.92.92,0,0,0,.37,0c.16,0,.27-.06.37-.06a.54.54,0,0,0,.32-.26,1.13,1.13,0,0,0,.11-.48V324.5h-1.64v-.8h1.64v-.53a4.64,4.64,0,0,1,1-3,2.92,2.92,0,0,1,2.43-1.17,2.11,2.11,0,0,1,1.11.27A.73.73,0,0,1,452.32,320Z" transform="translate(-346.23 -239.89)" style="fill:#204d25"/><path d="M457,331.43c-.37.16-.68.26-1,.37a3.84,3.84,0,0,1-1.17.16,1.62,1.62,0,0,1-1.42-.53A2.43,2.43,0,0,1,453,330v-5.56h-1.48v-.79H453v-2.54h1.48v2.54h2.33v.79h-2.33v4.55a3.56,3.56,0,0,0,.06.85,1.71,1.71,0,0,0,.16.58,1,1,0,0,0,.42.37,1.3,1.3,0,0,0,.69.11,2.89,2.89,0,0,0,.63-.06,1.43,1.43,0,0,0,.58-.1v.74Z" transform="translate(-346.23 -239.89)" style="fill:#204d25"/><path d="M465.23,329.84a3.92,3.92,0,0,1-1.38,1.53,3.56,3.56,0,0,1-2,.59,3.88,3.88,0,0,1-1.74-.37,3.09,3.09,0,0,1-1.22-1,4.22,4.22,0,0,1-.74-1.37,5.92,5.92,0,0,1-.21-1.7,4.91,4.91,0,0,1,.26-1.53,4.59,4.59,0,0,1,.74-1.38,4.27,4.27,0,0,1,1.17-.95,3.22,3.22,0,0,1,1.59-.37,4.36,4.36,0,0,1,1.53.27,2.71,2.71,0,0,1,1.06.79,3.9,3.9,0,0,1,.58,1.11,5.53,5.53,0,0,1,.21,1.38v.53h-5.4a7.07,7.07,0,0,0,.16,1.48,4,4,0,0,0,.48,1.16,1.92,1.92,0,0,0,.85.74,2.3,2.3,0,0,0,1.21.27,2.13,2.13,0,0,0,1.27-.37,3,3,0,0,0,1-1.27Zm-1.85-3.12a6,6,0,0,0-.06-1,3.86,3.86,0,0,0-.26-.9,1.63,1.63,0,0,0-.53-.63,1.46,1.46,0,0,0-.85-.27,1.78,1.78,0,0,0-1.43.74,3.64,3.64,0,0,0-.63,2l3.76.05Z" transform="translate(-346.23 -239.89)" style="fill:#204d25"/><path d="M470.15,331.74h-4v-.52a1.14,1.14,0,0,0,.42-.06c.16,0,.27-.05.37-.05a.92.92,0,0,0,.37-.26,1,1,0,0,0,.11-.48V320.9a2,2,0,0,0-.11-.58,3.2,3.2,0,0,0-.31-.43,2.91,2.91,0,0,0-.53-.16,4.24,4.24,0,0,0-.64-.1v-.53l3.07-.16.11.11v11.21a1.15,1.15,0,0,0,.1.48.66.66,0,0,0,.37.26.92.92,0,0,0,.37.11,1.13,1.13,0,0,0,.43.05v.58Z" transform="translate(-346.23 -239.89)" style="fill:#204d25"/><path d="M476.76,327.78a2.13,2.13,0,0,1,.53.68,2.54,2.54,0,0,1,.16,1,2.26,2.26,0,0,1-.85,1.85,3.43,3.43,0,0,1-2.22.74,3.62,3.62,0,0,1-1.32-.27,2.21,2.21,0,0,1-.85-.47l-.16.53h-.63l-.11-2.86h.58a6.91,6.91,0,0,0,.27.74,6.41,6.41,0,0,0,.53.79,3,3,0,0,0,.79.64,2.2,2.2,0,0,0,1,.26,1.63,1.63,0,0,0,1.21-.37,1.36,1.36,0,0,0,.43-1.05,1.13,1.13,0,0,0-.16-.59,1.2,1.2,0,0,0-.42-.42,2.21,2.21,0,0,0-.69-.32c-.27-.1-.58-.21-.9-.31a3.62,3.62,0,0,1-.85-.32,5,5,0,0,1-.79-.48,2.1,2.1,0,0,1-.58-.69,2,2,0,0,1-.22-1,2.28,2.28,0,0,1,.74-1.69,2.74,2.74,0,0,1,2-.69,7.68,7.68,0,0,1,1,.1,2.77,2.77,0,0,1,.79.32l.22-.42h.58l.1,2.64h-.58a2.67,2.67,0,0,0-.74-1.43,1.92,1.92,0,0,0-1.43-.52,1.61,1.61,0,0,0-1.06.31,1.07,1.07,0,0,0-.37.85,2,2,0,0,0,.11.63,1.53,1.53,0,0,0,.37.43,4.54,4.54,0,0,0,.63.32c.27.1.59.21,1,.31a5.68,5.68,0,0,1,1,.43A1.14,1.14,0,0,1,476.76,327.78Z" transform="translate(-346.23 -239.89)" style="fill:#204d25"/><path d="M486.13,329.84a3.92,3.92,0,0,1-1.38,1.53,3.56,3.56,0,0,1-2,.59,3.88,3.88,0,0,1-1.74-.37,3.09,3.09,0,0,1-1.22-1,4.22,4.22,0,0,1-.74-1.37,5.92,5.92,0,0,1-.21-1.7,4.91,4.91,0,0,1,.26-1.53,4.59,4.59,0,0,1,.74-1.38,4.27,4.27,0,0,1,1.17-.95,3.21,3.21,0,0,1,1.58-.37,4.37,4.37,0,0,1,1.54.27,2.71,2.71,0,0,1,1.06.79,3.9,3.9,0,0,1,.58,1.11,5.53,5.53,0,0,1,.21,1.38v.53h-5.4a7.07,7.07,0,0,0,.16,1.48,4,4,0,0,0,.48,1.16,1.92,1.92,0,0,0,.85.74,2.3,2.3,0,0,0,1.21.27,2.13,2.13,0,0,0,1.27-.37,3,3,0,0,0,1-1.27Zm-1.85-3.12a6,6,0,0,0-.06-1,3.86,3.86,0,0,0-.26-.9,1.63,1.63,0,0,0-.53-.63,1.46,1.46,0,0,0-.85-.27,1.78,1.78,0,0,0-1.43.74,3.64,3.64,0,0,0-.63,2l3.76.05Z" transform="translate(-346.23 -239.89)" style="fill:#204d25"/><path d="M496.23,331.74h-4v-.52a1.19,1.19,0,0,0,.43-.06c.16,0,.26-.05.37-.05a.57.57,0,0,0,.32-.26,1.15,1.15,0,0,0,.1-.48v-4.18a2,2,0,0,0-.42-1.32,1.23,1.23,0,0,0-1-.48,1.71,1.71,0,0,0-.79.16,2.92,2.92,0,0,0-.64.32,1.68,1.68,0,0,0-.42.42c-.1.16-.21.26-.21.37v4.71a1.17,1.17,0,0,0,.11.48.67.67,0,0,0,.37.26,1,1,0,0,0,.37.11,1.18,1.18,0,0,0,.42,0v.53h-4v-.53a1,1,0,0,0,.37,0c.16,0,.26-.06.37-.06a.57.57,0,0,0,.32-.26,1.15,1.15,0,0,0,.1-.48v-5a1.61,1.61,0,0,0-.1-.53,2.51,2.51,0,0,0-.32-.37,1.86,1.86,0,0,0-.37-.16,1.32,1.32,0,0,0-.48-.06v-.52l2.7-.16.11.1v1.17H490l.48-.48c.21-.16.37-.32.58-.48a1.61,1.61,0,0,1,.74-.31,2.45,2.45,0,0,1,.95-.16,2.09,2.09,0,0,1,1.75.74,3.17,3.17,0,0,1,.58,2v4.23a1.15,1.15,0,0,0,.1.48.57.57,0,0,0,.32.26,1.34,1.34,0,0,0,.32.11c.11,0,.21,0,.42,0v.47Z" transform="translate(-346.23 -239.89)" style="fill:#204d25"/><path d="M364,347.19a2.33,2.33,0,0,1,.53.9,3.55,3.55,0,0,1,.16,1.17,3.22,3.22,0,0,1-1.17,2.59,4,4,0,0,1-2.85,1,5.53,5.53,0,0,1-1.59-.27,8.81,8.81,0,0,1-1.38-.58l-.26.58h-.69l-.1-4h.68c.16.48.32.95.48,1.32a3,3,0,0,0,.74,1.11,3.76,3.76,0,0,0,1,.8,2.69,2.69,0,0,0,1.32.26,2.91,2.91,0,0,0,1-.16,1.63,1.63,0,0,0,.69-.42,1.25,1.25,0,0,0,.37-.63,2.14,2.14,0,0,0,.11-.85,2.38,2.38,0,0,0-.43-1.32,2.18,2.18,0,0,0-1.16-.9c-.37-.16-.79-.32-1.22-.48s-.84-.32-1.21-.48a3.82,3.82,0,0,1-1.54-1.16,3,3,0,0,1-.53-1.9,3.57,3.57,0,0,1,.27-1.27,2.89,2.89,0,0,1,.79-1.06,3.92,3.92,0,0,1,1.11-.69,4,4,0,0,1,1.38-.27,4,4,0,0,1,1.43.27,8.37,8.37,0,0,1,1.16.58l.32-.58h.69l.05,3.91h-.69a8.59,8.59,0,0,0-.42-1.27,5.78,5.78,0,0,0-.58-1.11,2.4,2.4,0,0,0-.85-.74,2.29,2.29,0,0,0-1.27-.26,1.75,1.75,0,0,0-1.32.53,1.53,1.53,0,0,0-.53,1.21,1.87,1.87,0,0,0,.37,1.27,2.87,2.87,0,0,0,1.06.85,7.16,7.16,0,0,0,1.16.48l1.11.47,1,.48A2.15,2.15,0,0,1,364,347.19Z" transform="translate(-346.23 -239.89)" style="fill:#204d25"/><path d="M373.64,345.4a4,4,0,0,1,.74,1.32,6,6,0,0,1,.27,1.74,4.7,4.7,0,0,1-.32,1.75,4,4,0,0,1-.85,1.38,4.93,4.93,0,0,1-1.22.9,3.47,3.47,0,0,1-1.42.31,3.88,3.88,0,0,1-1.22-.16,4.53,4.53,0,0,1-.79-.37h-.06v2.44a1,1,0,0,0,.11.47c.05.16.21.22.37.27s.32.1.58.16a2.75,2.75,0,0,0,.58.05v.53h-4.55v-.53a1.57,1.57,0,0,0,.48-.05,1,1,0,0,0,.42-.11.92.92,0,0,0,.37-.26,1.39,1.39,0,0,0,.11-.48v-8.68a1.34,1.34,0,0,0-.11-.47,1.71,1.71,0,0,0-.32-.37,1.36,1.36,0,0,0-.42-.16,1.91,1.91,0,0,0-.53-.05v-.53l2.81-.16.1.1v.9h.06a4.35,4.35,0,0,1,1.05-.84,2.75,2.75,0,0,1,1.27-.32,2.84,2.84,0,0,1,1.38.32A3.69,3.69,0,0,1,373.64,345.4Zm-1.32,5.87a3.57,3.57,0,0,0,.47-1.22,6.54,6.54,0,0,0,.16-1.53,5,5,0,0,0-.16-1.27,3.25,3.25,0,0,0-.42-1.11,2.58,2.58,0,0,0-.74-.8,2,2,0,0,0-1.11-.31,2.25,2.25,0,0,0-1.06.26,2.92,2.92,0,0,0-.74.63v4.82a1.14,1.14,0,0,0,.26.48,5.5,5.5,0,0,0,.37.42,1.5,1.5,0,0,0,.53.32,1.68,1.68,0,0,0,.74.1,1.9,1.9,0,0,0,.9-.26A1.16,1.16,0,0,0,372.32,351.27Z" transform="translate(-346.23 -239.89)" style="fill:#204d25"/><path d="M383.8,352.43a4.32,4.32,0,0,1-.69.21,2.38,2.38,0,0,1-.69.11,1.43,1.43,0,0,1-1-.32,1.22,1.22,0,0,1-.48-.9h-.05a3.48,3.48,0,0,1-1.17.9,3.2,3.2,0,0,1-1.48.32,2.2,2.2,0,0,1-1.53-.58,2,2,0,0,1-.58-1.48,2.11,2.11,0,0,1,.16-.85,1.84,1.84,0,0,1,.42-.69,2,2,0,0,1,.53-.42l.63-.32,1.54-.53c.74-.26,1.27-.47,1.53-.58v-.79a1.85,1.85,0,0,0-.05-.43,2,2,0,0,0-.21-.58,1.6,1.6,0,0,0-.48-.53,1.34,1.34,0,0,0-.85-.21,2.36,2.36,0,0,0-.68.11,2.06,2.06,0,0,0-.48.26,1.93,1.93,0,0,0,.05.48,2.08,2.08,0,0,1,.06.58.74.74,0,0,1-.27.53,1,1,0,0,1-.74.26.6.6,0,0,1-.58-.31,1.51,1.51,0,0,1-.21-.64,1.38,1.38,0,0,1,.26-.74,4.86,4.86,0,0,1,.69-.64,4,4,0,0,1,.9-.37,3.88,3.88,0,0,1,1.06-.15,8.44,8.44,0,0,1,1.21.1,2,2,0,0,1,1.59,1.27,3.43,3.43,0,0,1,.21,1.38V351a1.6,1.6,0,0,0,.11.53c.05.11.21.21.32.32s.21,0,.37.11h.53v.47ZM380.89,348c-.48.16-.9.27-1.22.42s-.69.32-1,.48a2.45,2.45,0,0,0-.64.69,1.75,1.75,0,0,0-.26.9,1.16,1.16,0,0,0,.37,1,1.34,1.34,0,0,0,.9.32,2.55,2.55,0,0,0,1.06-.26,3.78,3.78,0,0,0,.74-.69Z" transform="translate(-346.23 -239.89)" style="fill:#204d25"/><path d="M391,345.45a1.21,1.21,0,0,1-.21.74.76.76,0,0,1-.63.32.91.91,0,0,1-.69-.27.73.73,0,0,1-.26-.53.67.67,0,0,1,.05-.31c0-.11.05-.22.05-.32a1.64,1.64,0,0,0-.9.32,2.86,2.86,0,0,0-.9.9v4.76a1,1,0,0,0,.11.47.68.68,0,0,0,.37.27,1.67,1.67,0,0,0,.53.1,2.08,2.08,0,0,0,.58.06v.53H384.8V352a.78.78,0,0,0,.37-.06c.16,0,.27,0,.38,0a.55.55,0,0,0,.31-.26,1,1,0,0,0,.11-.48v-5a2.09,2.09,0,0,0-.11-.53,1.34,1.34,0,0,0-.31-.37,3,3,0,0,0-.38-.15,1.24,1.24,0,0,0-.47-.06v-.53l2.7-.16.1.11v1.16h.06a3.43,3.43,0,0,1,1.16-1,2.7,2.7,0,0,1,1.16-.37,1.09,1.09,0,0,1,.85.32A1.93,1.93,0,0,1,391,345.45Z" transform="translate(-346.23 -239.89)" style="fill:#204d25"/><path d="M399.14,350.69a3.82,3.82,0,0,1-1.37,1.53,3.55,3.55,0,0,1-2,.58,3.77,3.77,0,0,1-1.75-.37,3,3,0,0,1-1.21-.95,4.09,4.09,0,0,1-.74-1.38,5.85,5.85,0,0,1-.22-1.69,4.82,4.82,0,0,1,.27-1.53,4.27,4.27,0,0,1,.74-1.38,4.19,4.19,0,0,1,1.16-.95,3.16,3.16,0,0,1,1.59-.37,4.47,4.47,0,0,1,1.54.26,2.63,2.63,0,0,1,1.05.8,3.46,3.46,0,0,1,.59,1.11,6,6,0,0,1,.21,1.37v.53h-5.51a7,7,0,0,0,.16,1.48,4,4,0,0,0,.48,1.17,1.92,1.92,0,0,0,.85.74,2.3,2.3,0,0,0,1.21.26,2.07,2.07,0,0,0,1.27-.37,2.86,2.86,0,0,0,1-1.27Zm-1.85-3.13a7.11,7.11,0,0,0-.05-1,3.3,3.3,0,0,0-.27-.9,1.54,1.54,0,0,0-1.37-.9,1.78,1.78,0,0,0-1.43.74,3.71,3.71,0,0,0-.64,2l3.76.05Z" transform="translate(-346.23 -239.89)" style="fill:#204d25"/><path d="M408.51,348.52a4.19,4.19,0,0,1-1.17,3.07,3.63,3.63,0,0,1-2.69,1.27,3.87,3.87,0,0,1-1.33-.22,7.74,7.74,0,0,1-1.21-.52l-.64.95-.53-.11a13.13,13.13,0,0,0,.05-1.48v-9.74a2.35,2.35,0,0,0-.1-.58,1.53,1.53,0,0,0-.32-.42,2,2,0,0,0-.53-.16,2.7,2.7,0,0,0-.58-.05V340l3-.16.1.11v5.39h.05a3.16,3.16,0,0,1,1.12-.79,3.31,3.31,0,0,1,1.21-.27,3.27,3.27,0,0,1,2.54,1.22A4.07,4.07,0,0,1,408.51,348.52Zm-1.7.05a5.51,5.51,0,0,0-.15-1.27,3.67,3.67,0,0,0-.43-1.11,2.54,2.54,0,0,0-.74-.79,1.9,1.9,0,0,0-1.11-.32,2,2,0,0,0-1,.21,4.41,4.41,0,0,0-.8.63v4.77a3.47,3.47,0,0,0,.21.47,4.25,4.25,0,0,0,.37.53,2,2,0,0,0,.59.37,1.68,1.68,0,0,0,.79.16,1.89,1.89,0,0,0,1.64-1A5.14,5.14,0,0,0,406.81,348.57Z" transform="translate(-346.23 -239.89)" style="fill:#204d25"/><path d="M417.61,352.43a4.32,4.32,0,0,1-.69.21,2.38,2.38,0,0,1-.69.11,1.43,1.43,0,0,1-1-.32,1.22,1.22,0,0,1-.48-.9h-.05a3.48,3.48,0,0,1-1.17.9,3.23,3.23,0,0,1-1.48.32,2.2,2.2,0,0,1-1.53-.58,2,2,0,0,1-.58-1.48,2.11,2.11,0,0,1,.16-.85,1.84,1.84,0,0,1,.42-.69,2,2,0,0,1,.53-.42l.63-.32,1.54-.53c.74-.26,1.27-.47,1.53-.58v-.79a1.85,1.85,0,0,0-.05-.43,2,2,0,0,0-.21-.58A1.6,1.6,0,0,0,414,345a1.34,1.34,0,0,0-.85-.21,2.36,2.36,0,0,0-.68.11,1.87,1.87,0,0,0-.48.26,1.93,1.93,0,0,0,.05.48,2.08,2.08,0,0,1,.06.58.74.74,0,0,1-.27.53,1,1,0,0,1-.74.26.6.6,0,0,1-.58-.31,1.51,1.51,0,0,1-.21-.64,1.38,1.38,0,0,1,.26-.74,4.37,4.37,0,0,1,.69-.64,4,4,0,0,1,.9-.37,3.88,3.88,0,0,1,1.06-.15,8.44,8.44,0,0,1,1.21.1A2,2,0,0,1,416,345.5a3.43,3.43,0,0,1,.21,1.38V351a1.6,1.6,0,0,0,.11.53c.05.11.21.21.32.32s.21,0,.37.11h.53v.47ZM414.75,348c-.47.16-.9.27-1.22.42s-.68.32-1,.48a2.45,2.45,0,0,0-.64.69,1.85,1.85,0,0,0-.26.9,1.19,1.19,0,0,0,.37,1,1.34,1.34,0,0,0,.9.32,2.55,2.55,0,0,0,1.06-.26,3.29,3.29,0,0,0,.74-.69Z" transform="translate(-346.23 -239.89)" style="fill:#204d25"/><path d="M427.61,352.59h-4v-.53a1.36,1.36,0,0,0,.42-.05c.16,0,.27-.05.37-.05a.55.55,0,0,0,.32-.27,1,1,0,0,0,.11-.47V347a2,2,0,0,0-.43-1.33,1.23,1.23,0,0,0-1-.47,1.76,1.76,0,0,0-.8.16,3.7,3.7,0,0,0-.63.31,1.56,1.56,0,0,0-.42.43c-.11.16-.21.26-.21.37v4.71a1.3,1.3,0,0,0,.1.47.68.68,0,0,0,.37.27,1.08,1.08,0,0,0,.37.1,1,1,0,0,0,.42.06v.52h-4v-.52a.78.78,0,0,0,.37-.06c.16,0,.27-.05.37-.05a.52.52,0,0,0,.32-.27,1,1,0,0,0,.11-.47v-5a1.66,1.66,0,0,0-.11-.53,2,2,0,0,0-.32-.37l-.37-.16a1.48,1.48,0,0,0-.47-.05v-.53l2.7-.16.1.11v1.16h.06l.47-.47c.21-.16.37-.32.58-.48a1.67,1.67,0,0,1,.74-.32,2.75,2.75,0,0,1,1-.16,2.07,2.07,0,0,1,1.74.75,3.16,3.16,0,0,1,.58,2v4.24a1,1,0,0,0,.11.47.55.55,0,0,0,.32.27,2,2,0,0,0,.32.1,3.72,3.72,0,0,0,.42.06v.47Z" transform="translate(-346.23 -239.89)" style="fill:#204d25"/><path d="M437.45,352.59H435c-.42-.63-.9-1.27-1.37-2s-1-1.43-1.54-2.06l-.68.63v2a1.15,1.15,0,0,0,.1.48.67.67,0,0,0,.37.26,2.38,2.38,0,0,0,.79.16v.53h-4V352A.92.92,0,0,0,429,352c.16,0,.27-.06.37-.06a.92.92,0,0,0,.37-.26,1,1,0,0,0,.11-.48v-9.47a2,2,0,0,0-.11-.58,2.54,2.54,0,0,0-.31-.42.78.78,0,0,0-.53-.16,2.3,2.3,0,0,0-.58-.06V340l3-.16.11.1v8.63l1.37-1.38c.48-.47.9-.95,1.27-1.32a.61.61,0,0,0,.16-.21.37.37,0,0,0,.06-.21c0-.16-.11-.27-.38-.32s-.47-.11-.68-.16v-.53h3.59v.53a5.48,5.48,0,0,0-1.21.53,2.62,2.62,0,0,0-.8.58,6.69,6.69,0,0,0-.58.53c-.26.26-.58.58-1,.95.47.58.95,1.22,1.53,2l1.22,1.7a3.64,3.64,0,0,0,.63.63,1.81,1.81,0,0,0,.85.16v.58Z" transform="translate(-346.23 -239.89)" style="fill:#204d25"/><path d="M445.28,350.69a3.85,3.85,0,0,1-1.38,1.53,3.52,3.52,0,0,1-1.95.58,3.77,3.77,0,0,1-1.75-.37,3.07,3.07,0,0,1-1.22-.95,4.47,4.47,0,0,1-.74-1.38,5.85,5.85,0,0,1-.21-1.69,4.82,4.82,0,0,1,.27-1.53,4.27,4.27,0,0,1,.74-1.38,3.92,3.92,0,0,1,1.16-.95,3.16,3.16,0,0,1,1.59-.37,4.37,4.37,0,0,1,1.53.26,2.6,2.6,0,0,1,1.06.8,3.44,3.44,0,0,1,.58,1.11,5.53,5.53,0,0,1,.21,1.37v.53h-5.39a6.4,6.4,0,0,0,.16,1.48,3.73,3.73,0,0,0,.47,1.17,1.92,1.92,0,0,0,.85.74,2.31,2.31,0,0,0,1.22.26,2.08,2.08,0,0,0,1.27-.37,2.85,2.85,0,0,0,1-1.27Zm-1.8-3.13a7.11,7.11,0,0,0-.05-1,3.3,3.3,0,0,0-.27-.9,1.54,1.54,0,0,0-1.37-.9,1.78,1.78,0,0,0-1.43.74,3.71,3.71,0,0,0-.64,2l3.76.05Z" transform="translate(-346.23 -239.89)" style="fill:#204d25"/><path d="M455.44,352.59h-4v-.53a1.33,1.33,0,0,0,.42-.05c.16,0,.27-.05.37-.05a.55.55,0,0,0,.32-.27,1,1,0,0,0,.11-.47V347a2,2,0,0,0-.43-1.33,1.23,1.23,0,0,0-1-.47,1.68,1.68,0,0,0-.79.16,3.49,3.49,0,0,0-.64.31,1.56,1.56,0,0,0-.42.43c-.11.16-.21.26-.21.37v4.71a1.3,1.3,0,0,0,.1.47.68.68,0,0,0,.37.27,3.26,3.26,0,0,0,.8.16v.52h-4v-.52a.78.78,0,0,0,.37-.06c.16,0,.27-.05.38-.05a.53.53,0,0,0,.31-.27.93.93,0,0,0,.11-.47v-5a1.43,1.43,0,0,0-.11-.53,2.42,2.42,0,0,0-.31-.37l-.38-.16a1.48,1.48,0,0,0-.47-.05v-.53l2.7-.16.1.11v1.16h.06a3.47,3.47,0,0,1,.47-.47c.21-.16.37-.32.58-.48a1.72,1.72,0,0,1,.74-.32,2.75,2.75,0,0,1,1-.16,2.07,2.07,0,0,1,1.74.75,3.16,3.16,0,0,1,.59,2v4.24a1.06,1.06,0,0,0,.1.47.55.55,0,0,0,.32.27,2,2,0,0,0,.32.1,3.72,3.72,0,0,0,.42.06v.47Z" transform="translate(-346.23 -239.89)" style="fill:#204d25"/><path d="M468.4,347.19a2.21,2.21,0,0,1,.53.9,3.55,3.55,0,0,1,.16,1.17,3.24,3.24,0,0,1-1.16,2.59,4,4,0,0,1-2.86,1,5.53,5.53,0,0,1-1.59-.27,8.3,8.3,0,0,1-1.37-.58l-.37.58h-.59l-.1-4h.69c.15.48.31.95.47,1.32A3,3,0,0,0,463,351a3.76,3.76,0,0,0,1,.8,2.69,2.69,0,0,0,1.32.26,3,3,0,0,0,1-.16,2.07,2.07,0,0,0,.68-.42,1.25,1.25,0,0,0,.37-.63,2.14,2.14,0,0,0,.11-.85,2.45,2.45,0,0,0-.42-1.32,2.24,2.24,0,0,0-1.17-.9c-.37-.16-.79-.32-1.21-.48s-.85-.32-1.22-.48a3.82,3.82,0,0,1-1.54-1.16,3,3,0,0,1-.52-1.9,3.56,3.56,0,0,1,.26-1.27,2.89,2.89,0,0,1,.79-1.06,3.92,3.92,0,0,1,1.11-.69,3.79,3.79,0,0,1,2.81,0,8.37,8.37,0,0,1,1.16.58l.32-.58h.69l.05,3.91h-.69a8.59,8.59,0,0,0-.42-1.27,5.78,5.78,0,0,0-.58-1.11,2.32,2.32,0,0,0-.85-.74,2.29,2.29,0,0,0-1.27-.26,1.75,1.75,0,0,0-1.32.53,1.53,1.53,0,0,0-.53,1.21,1.92,1.92,0,0,0,.37,1.27,2.87,2.87,0,0,0,1.06.85,7.16,7.16,0,0,0,1.16.48l1.11.47,1,.48A3.36,3.36,0,0,1,468.4,347.19Z" transform="translate(-346.23 -239.89)" style="fill:#204d25"/><path d="M478.51,348.41a5.86,5.86,0,0,1-.27,1.69,3.8,3.8,0,0,1-.79,1.43,4,4,0,0,1-1.32,1,4.44,4.44,0,0,1-1.7.32,3.58,3.58,0,0,1-1.27-.22,3.77,3.77,0,0,1-1.11-.63l-.68.85c-.22.26-.32.42-.38.42l-.47-.37,1.11-1.38a4.49,4.49,0,0,1-.79-1.32,4.08,4.08,0,0,1-.32-1.69,4.41,4.41,0,0,1,1.11-3.12,3.76,3.76,0,0,1,2.91-1.22,3.59,3.59,0,0,1,1.32.21,4.38,4.38,0,0,1,1.06.58l.9-1.16.48.37-1,1.22a4.27,4.27,0,0,1,.85,1.32A4.39,4.39,0,0,1,478.51,348.41Zm-2.22-2.59a1.9,1.9,0,0,0-.69-.74,2.1,2.1,0,0,0-1.06-.27,1.85,1.85,0,0,0-1.11.32,2.84,2.84,0,0,0-.74.85,3.68,3.68,0,0,0-.37,1.16,9.07,9.07,0,0,0-.11,1.27,8.25,8.25,0,0,0,.05,1.11,6,6,0,0,0,.22,1Zm0,5.29a4.27,4.27,0,0,0,.42-1.22,7.77,7.77,0,0,0,.1-2.54,5.05,5.05,0,0,0-.21-1l-3.75,4.71a2.68,2.68,0,0,0,.68.79,1.71,1.71,0,0,0,1.06.32,1.67,1.67,0,0,0,1-.32A2.48,2.48,0,0,0,476.29,351.11Z" transform="translate(-346.23 -239.89)" style="fill:#204d25"/><path d="M486.07,345.45a1.21,1.21,0,0,1-.21.74.76.76,0,0,1-.63.32.91.91,0,0,1-.69-.27.73.73,0,0,1-.26-.53.67.67,0,0,1,.05-.31.74.74,0,0,0,.05-.32,1.64,1.64,0,0,0-.9.32,3.49,3.49,0,0,0-.9.9v4.76a.93.93,0,0,0,.11.47.68.68,0,0,0,.37.27,1.67,1.67,0,0,0,.53.1,2.08,2.08,0,0,0,.58.06v.53h-4.29V352a.78.78,0,0,0,.37-.06c.16,0,.27,0,.37,0a.54.54,0,0,0,.32-.26,1.13,1.13,0,0,0,.11-.48v-5a2.64,2.64,0,0,0-.11-.53,1.2,1.2,0,0,0-.32-.37,2.34,2.34,0,0,0-.37-.15,1.24,1.24,0,0,0-.47-.06v-.53l2.7-.16.1.11v1.16h.05a3.55,3.55,0,0,1,1.17-1,2.7,2.7,0,0,1,1.16-.37,1.09,1.09,0,0,1,.85.32A1.93,1.93,0,0,1,486.07,345.45Z" transform="translate(-346.23 -239.89)" style="fill:#204d25"/><path d="M425.17,245.82c0,4.81-2.43,9.52-3.91,9.52s-3.92-4.71-3.92-9.52c0-3.7,1.75-5.93,3.92-5.93S425.17,242.12,425.17,245.82Z" transform="translate(-346.23 -239.89)" style="fill:#6abd45"/><path d="M407.93,256.45c4,1.91,8.94,1.7,9.52.48s-2.38-5.13-6.46-7c-3.12-1.48-5.66-.84-6.5,1S404.8,255,407.93,256.45Z" transform="translate(-346.23 -239.89)" style="fill:#6abd45"/><path d="M434.59,256.72c-4,1.9-8.94,1.69-9.52.47s2.38-5.13,6.45-7c3.13-1.48,5.67-.85,6.51,1S437.66,255.24,434.59,256.72Z" transform="translate(-346.23 -239.89)" style="fill:#6abd45"/><path d="M393.43,269.73c4.81,0,9.52,2.44,9.52,3.92s-4.71,3.91-9.52,3.91c-3.71,0-5.93-1.74-5.93-3.91S389.67,269.73,393.43,269.73Z" transform="translate(-346.23 -239.89)" style="fill:#6abd45"/><path d="M404,287c1.91-4,1.69-9,.48-9.53s-5.14,2.38-7,6.46c-1.48,3.12-.85,5.66.95,6.5S402.58,290.1,404,287Z" transform="translate(-346.23 -239.89)" style="fill:#6abd45"/><path d="M404.28,260.32c1.9,4,1.69,8.94.47,9.52s-5.13-2.38-7-6.45c-1.48-3.13-.84-5.67,1-6.51S402.85,257.25,404.28,260.32Z" transform="translate(-346.23 -239.89)" style="fill:#6abd45"/><path d="M417.29,301.53c0-4.81,2.43-9.52,3.92-9.52s3.91,4.71,3.91,9.52c0,3.71-1.74,5.93-3.91,5.93S417.29,305.24,417.29,301.53Z" transform="translate(-346.23 -239.89)" style="fill:#6abd45"/><path d="M434.59,290.9c-4-1.91-8.94-1.69-9.52-.48s2.38,5.13,6.45,7c3.13,1.48,5.67.85,6.51-.95S437.66,292.33,434.59,290.9Z" transform="translate(-346.23 -239.89)" style="fill:#6abd45"/><path d="M407.93,290.63c4-1.9,8.94-1.69,9.52-.47s-2.38,5.13-6.46,7c-3.12,1.49-5.66.85-6.5-.95S404.8,292.12,407.93,290.63Z" transform="translate(-346.23 -239.89)" style="fill:#6abd45"/><path d="M449.09,277.62c-4.81,0-9.52-2.44-9.52-3.92s4.71-3.91,9.52-3.91c3.7,0,5.93,1.74,5.93,3.91S452.79,277.62,449.09,277.62Z" transform="translate(-346.23 -239.89)" style="fill:#6abd45"/><path d="M438.46,260.32c-1.91,4-1.7,8.94-.48,9.52s5.13-2.38,7-6.45c1.48-3.13.84-5.67-1-6.51S439.88,257.25,438.46,260.32Z" transform="translate(-346.23 -239.89)" style="fill:#6abd45"/><path d="M438.19,287c-1.9-4-1.69-9-.48-9.53s5.14,2.38,7,6.46c1.48,3.12.85,5.66-.95,6.5S439.67,290.1,438.19,287Z" transform="translate(-346.23 -239.89)" style="fill:#6abd45"/></svg>