<svg xmlns="http://www.w3.org/2000/svg" viewBox="0 0 185.59 25.17"><path d="M368,289l-.21-.13a.88.88,0,0,0,0-.17c0-.18-1.28-1.14-3.51-1.14s-3,.64-3,1.49c0,2.24,8.05-1,8.05,3.91,0,1.82-1.75,3.19-5.25,3.19a8.64,8.64,0,0,1-4.62-1.08c-.09,0-.13.07-.2.11l-.17,0,1.13-2.32.22.11a2,2,0,0,0,0,.22c0,.8,1.76,1.36,3.51,1.36,2.49,0,3.34-.71,3.34-1.46,0-2.68-8,.64-8-3.89,0-2.29,2.42-3.22,5.09-3.22a10.24,10.24,0,0,1,4.21,1c.18,0,.21-.05.25-.09l.22.07Z" transform="translate(-328.44 -285.46)" style="fill:#028b83"/><path d="M379.46,288.3a4.09,4.09,0,0,1,1.57,3.38c0,2.87-2.2,4.43-4.93,4.43a5.79,5.79,0,0,1-2.65-.58l-.75.91h-1.11l1.14-1.36a4.1,4.1,0,0,1-1.58-3.39c0-2.87,2.21-4.43,4.94-4.43a6,6,0,0,1,2.64.58l.76-.91h1.1Zm-1.71.72a3.4,3.4,0,0,0-1.66-.37,3,3,0,0,0-3.25,3,2.83,2.83,0,0,0,.91,2.19Zm-3.3,5.32a3.4,3.4,0,0,0,1.66.37,3,3,0,0,0,3.25-3,2.84,2.84,0,0,0-.89-2.19Z" transform="translate(-328.44 -285.46)" style="fill:#028b83"/><path d="M385.31,295.48c0,.26,0,.35.33.35V296h-2.35v-.17c.29,0,.34-.09.34-.35v-7.59c0-.26-.05-.36-.34-.36v-.16H389c2.06,0,3.16,1.09,3.16,2.47a2.48,2.48,0,0,1-2.33,2.53l2.17,3.11c.17.24.26.35.51.35V296H389.9v-.17c.15,0,.17,0,.17-.09a.67.67,0,0,0-.16-.32l-2.17-3.09H385.3Zm0-4.56h3.59c.86,0,1.54-.33,1.54-1.08s-.68-1.08-1.54-1.08h-3.59Z" transform="translate(-328.44 -285.46)" style="fill:#028b83"/><path d="M394.58,295.82c.26,0,.31-.09.31-.35v-7.58c0-.26,0-.36-.31-.36v-.16h2.35v.16c-.31,0-.36.1-.36.36v6.71H402c.28,0,.4-.1.4-.29h.16v1.94h-.16c0-.16-.12-.26-.4-.26h-7.46Z" transform="translate(-328.44 -285.46)" style="fill:#028b83"/><path d="M403.87,296v-.16c.21,0,.28-.07.45-.46l3.24-7.28a.93.93,0,0,0,.14-.36c0-.13-.09-.19-.25-.21v-.15H410v.16c-.17,0-.25.1-.25.18a.68.68,0,0,0,.11.31l3.43,7.36c.17.37.22.45.46.45V296h-2.36v-.17c.16,0,.22-.06.22-.11a12.63,12.63,0,0,0-.91-2h-4.07a14.78,14.78,0,0,0-.86,1.94.15.15,0,0,0,.05.12.12.12,0,0,0,.12.05V296Zm6.17-3.64-1.43-3.08-1.4,3.1Z" transform="translate(-328.44 -285.46)" style="fill:#028b83"/><path d="M424.71,295.48c0,.26.08.35.32.35V296h-2.19v-.17c.12,0,.24,0,.24-.09s-.08-.16-.23-.32l-5.33-5.73v5.79c0,.26.06.35.32.35V296h-2.09v-.17c.26,0,.28-.09.28-.35v-7.59c0-.26,0-.36-.28-.36v-.16h2.52v.16c-.22,0-.32.05-.32.16s.05.09.13.18l5.14,5.46v-5.44c0-.26,0-.36-.31-.36v-.16H425v.16c-.24,0-.32.1-.32.36Z" transform="translate(-328.44 -285.46)" style="fill:#028b83"/><path d="M427.92,287.89c0-.26,0-.36-.33-.36v-.16h5.23c3,0,4.29,1.72,4.29,4.31,0,2.86-1.58,4.31-4,4.31h-5.49v-.17c.28,0,.33-.09.33-.35Zm1.68,6.71h3.48c1.47,0,2.35-.76,2.35-2.92s-1.18-2.92-2.73-2.92h-3.08Z" transform="translate(-328.44 -285.46)" style="fill:#028b83"/><path d="M439.48,295.82c.26,0,.31-.09.31-.35v-7.58c0-.26,0-.36-.31-.36v-.16h7.69c.28,0,.4-.1.4-.26h.16v2h-.16c0-.21-.12-.31-.4-.31h-5.7v2.11h3.72c.28,0,.4-.09.4-.31h.16v2h-.16c0-.19-.12-.28-.4-.28h-3.72v2.33h5.8c.29,0,.4-.1.4-.29h.17v1.94h-.17c0-.16-.11-.26-.4-.26h-7.79Z" transform="translate(-328.44 -285.46)" style="fill:#028b83"/><path d="M454.62,295.48c0,.26.06.35.37.35V296h-2.42v-.17c.31,0,.36-.09.36-.35v-6.71h-2.86c-.29,0-.41.09-.41.29h-.16v-2h.16c0,.19.12.29.41.29h7.38c.29,0,.41-.1.41-.29H458v2h-.16c0-.2-.12-.29-.41-.29h-2.83Z" transform="translate(-328.44 -285.46)" style="fill:#028b83"/><path d="M467.32,289.9l-.19-.1a1,1,0,0,0,0-.17c0-.15-1.11-1-3-1s-2.64.57-2.64,1.3c0,1.94,7-.91,7,3.39,0,1.56-1.52,2.77-4.56,2.77a7.65,7.65,0,0,1-4-.91c-.07,0-.1.06-.16.1l-.16,0,1-2,.19.1a1.83,1.83,0,0,0,0,.19c0,.7,1.53,1.2,3,1.2,2.16,0,2.89-.62,2.89-1.27,0-2.32-6.88.56-6.88-3.37,0-2,2.09-2.82,4.4-2.82a8.89,8.89,0,0,1,3.64.91.23.23,0,0,0,.21-.08l.19.05Z" transform="translate(-328.44 -285.46)" style="fill:#028b83"/><path d="M362.86,307.13v2.47c0,.26.06.36.37.36v.16h-2.35V310c.26,0,.31-.1.31-.36V302c0-.26-.05-.35-.31-.35v-.17h2.35v.17c-.31,0-.37.09-.37.35v3.27l4-3.19c.24-.2.33-.25.33-.32s-.07-.11-.15-.11v-.17h2.88v.17a2.24,2.24,0,0,0-.91.49l-3.31,2.68,3.94,4.77a.75.75,0,0,0,.55.36v.16h-2.73V310c.15,0,.2,0,.2-.11s-.1-.18-.19-.3l-3.06-3.68Z" transform="translate(-328.44 -285.46)" style="fill:#028b83"/><path d="M381.7,305.8c0,2.87-2.21,4.43-4.94,4.43s-4.94-1.54-4.94-4.43,2.2-4.43,4.94-4.43S381.7,302.94,381.7,305.8Zm-8.2,0a3.26,3.26,0,1,0,3.26-3,3,3,0,0,0-3.26,3Z" transform="translate(-328.44 -285.46)" style="fill:#028b83"/><path d="M394,301.49v.17c-.27,0-.32.09-.32.35v7.59c0,.26.05.36.32.36v.16h-2.27V310c.23,0,.28-.1.28-.36v-5.32h0l-3.06,5.83h-.16l-3-5.89h0v5.38c0,.26,0,.36.36.36v.16H384V310c.26,0,.31-.1.31-.36V302c0-.26,0-.35-.31-.35v-.17h2.63v.17c-.16,0-.31.08-.31.22s.08.21.26.55l2.39,4.56,2.63-4.88a.85.85,0,0,0,.13-.31c0-.1-.11-.15-.31-.16v-.15Z" transform="translate(-328.44 -285.46)" style="fill:#028b83"/><path d="M398.59,309.6c0,.26.05.36.33.36v.16h-2.34V310c.28,0,.33-.1.33-.36V302c0-.26-.05-.35-.33-.35v-.17h5.66c1.87,0,2.81.95,2.81,2.45s-.76,2.47-2.81,2.47h-3.65Zm0-4.6h3.65c.91,0,1.16-.28,1.16-1.05s-.26-1.05-1.16-1.05h-3.65Z" transform="translate(-328.44 -285.46)" style="fill:#028b83"/><path d="M407.09,310c.26,0,.31-.1.31-.36V302c0-.26,0-.35-.31-.35v-.17h7.69c.28,0,.4-.09.4-.26h.16v2h-.16c0-.21-.12-.31-.4-.31h-5.71V305h3.72c.28,0,.4-.1.4-.31h.16v2h-.16c0-.19-.12-.28-.4-.28h-3.72v2.32h5.8c.28,0,.4-.09.4-.28h.18v1.93h-.17c0-.16-.12-.26-.4-.26h-7.79Z" transform="translate(-328.44 -285.46)" style="fill:#028b83"/><path d="M422.21,309.6c0,.26.06.36.37.36v.16h-2.4V310c.31,0,.35-.1.35-.36v-6.71h-2.85c-.28,0-.4.09-.4.29h-.17v-2h.16c0,.2.12.29.4.29h7.39c.28,0,.4-.1.4-.29h.16v2h-.15c0-.2-.12-.29-.4-.29h-2.86Z" transform="translate(-328.44 -285.46)" style="fill:#028b83"/><path d="M425.92,310.11V310c.22,0,.28-.07.46-.45l3.23-7.29a.78.78,0,0,0,.13-.36c0-.13-.09-.19-.25-.21v-.15h2.59v.17c-.18,0-.25.09-.25.17a.67.67,0,0,0,.1.31l3.44,7.36c.16.37.21.46.45.46v.16h-2.35V310c.15,0,.21-.06.21-.12a11.16,11.16,0,0,0-.91-2h-4.06a17,17,0,0,0-.87,1.93.17.17,0,0,0,.05.12.16.16,0,0,0,.13.06v.16Zm6.17-3.64-1.42-3.1-1.39,3.1Z" transform="translate(-328.44 -285.46)" style="fill:#028b83"/><path d="M446.76,309.6c0,.26.08.36.32.36v.16h-2.19V310c.11,0,.23,0,.23-.1s-.07-.16-.22-.32l-5.31-5.73v5.79c0,.26.06.36.32.36v.16h-2.1V310c.26,0,.28-.1.28-.36V302c0-.26,0-.35-.28-.35v-.17h2.53v.17c-.23,0-.32,0-.32.15s0,.1.13.18l5.14,5.46V302c0-.26,0-.35-.31-.35v-.17h2.12v.17c-.24,0-.32.09-.32.35Z" transform="translate(-328.44 -285.46)" style="fill:#028b83"/><path d="M457,304l-.19-.1a.88.88,0,0,0,0-.16c0-.16-1.11-1-3-1s-2.65.57-2.65,1.3c0,1.95,7-.91,7,3.39,0,1.57-1.52,2.77-4.56,2.77a7.7,7.7,0,0,1-4-.91c-.07,0-.1.06-.16.1l-.16,0,1-2,.19.09c0,.05,0,.1,0,.2,0,.69,1.52,1.19,3,1.19,2.15,0,2.89-.61,2.89-1.26,0-2.33-6.89.55-6.89-3.38,0-2,2.1-2.82,4.4-2.82a8.86,8.86,0,0,1,3.64.91c.16,0,.18,0,.22-.08l.19.06Z" transform="translate(-328.44 -285.46)" style="fill:#028b83"/><path d="M460.21,310c.26,0,.31-.1.31-.36V302c0-.26,0-.35-.31-.35v-.17h7.68c.29,0,.41-.09.41-.26h.16v2h-.17c0-.21-.12-.31-.4-.31H462.2V305h3.72c.28,0,.4-.1.4-.31h.16v2h-.16c0-.19-.12-.28-.4-.28H462.2v2.32H468c.29,0,.41-.09.41-.28h.16v1.93h-.16c0-.16-.12-.26-.41-.26h-7.79Z" transform="translate(-328.44 -285.46)" style="fill:#028b83"/><path d="M470.79,301.49h7.41c.29,0,.4-.09.4-.26h.16v2h-.16c0-.21-.12-.31-.4-.31h-5.4V305h3.48c.28,0,.4-.1.4-.31h.17v2h-.17c0-.19-.12-.28-.4-.28H472.8v3.19c0,.26.05.35.31.35v.17h-2.32v-.17c.28,0,.33-.09.33-.35V302c0-.26-.05-.35-.33-.35Z" transform="translate(-328.44 -285.46)" style="fill:#028b83"/><path d="M490.34,305.8c0,2.87-2.21,4.43-4.94,4.43s-4.94-1.54-4.94-4.43,2.21-4.43,4.94-4.43S490.34,302.94,490.34,305.8Zm-8.2,0a3.26,3.26,0,1,0,3.26-3,3,3,0,0,0-3.26,3Z" transform="translate(-328.44 -285.46)" style="fill:#028b83"/><path d="M501.62,309.6c0,.26.08.36.32.36v.16h-2.19V310c.11,0,.23,0,.23-.1s-.07-.16-.22-.32l-5.33-5.72v5.78c0,.26.06.36.32.36v.16h-2.1V310c.26,0,.29-.1.29-.36V302c0-.26,0-.35-.29-.35v-.17h2.51v.17c-.22,0-.32,0-.32.15s.05.1.14.18l5.13,5.46V302c0-.26,0-.35-.31-.35v-.17h2.12v.17c-.23,0-.32.09-.32.35Z" transform="translate(-328.44 -285.46)" style="fill:#028b83"/><path d="M504.82,302c0-.26,0-.35-.33-.35v-.17h5.25c3,0,4.29,1.72,4.29,4.31,0,2.87-1.59,4.31-4,4.31h-5.51V310c.28,0,.33-.1.33-.36Zm1.69,6.71H510c1.46,0,2.34-.76,2.34-2.92s-1.18-2.91-2.73-2.91h-3.09Z" transform="translate(-328.44 -285.46)" style="fill:#028b83"/><polygon points="3.59 0 3.59 3.53 0.06 3.53 0.06 0 3.59 0" style="fill:#191817"/><polygon points="3.53 21.64 3.53 25.17 0 25.17 0 21.64 3.53 21.64" style="fill:#c6c6c5"/><polygon points="7.9 0 7.9 3.53 4.37 3.53 4.37 0 7.9 0" style="fill:#191817"/><polygon points="12.22 0 12.22 3.53 8.69 3.53 8.69 0 12.22 0" style="fill:#191817"/><polygon points="16.54 0 16.54 3.53 13.01 3.53 13.01 0 16.54 0" style="fill:#191817"/><polygon points="20.85 0 20.85 3.53 17.31 3.53 17.31 0 20.85 0" style="fill:#191817"/><polygon points="25.17 0 25.17 3.53 21.64 3.53 21.64 0 25.17 0" style="fill:#191817"/><polygon points="7.9 4.33 7.9 7.86 4.37 7.86 4.37 4.33 7.9 4.33" style="fill:#191817"/><polygon points="7.9 17.25 7.9 20.79 4.37 20.79 4.37 17.25 7.9 17.25" style="fill:#028b83"/><polygon points="12.22 4.33 12.22 7.86 8.69 7.86 8.69 4.33 12.22 4.33" style="fill:#e21f26"/><polygon points="16.54 4.33 16.54 7.86 13.01 7.86 13.01 4.33 16.54 4.33" style="fill:#191817"/><polygon points="20.85 4.33 20.85 7.86 17.31 7.86 17.31 4.33 20.85 4.33" style="fill:#fdec09"/><polygon points="25.17 4.33 25.17 7.86 21.64 7.86 21.64 4.33 25.17 4.33" style="fill:#191817"/><polygon points="12.22 8.65 12.22 12.19 8.69 12.19 8.69 8.65 12.22 8.65" style="fill:#191817"/><polygon points="16.54 8.65 16.54 12.19 13.01 12.19 13.01 8.65 16.54 8.65" style="fill:#219cd8"/><polygon points="20.85 8.65 20.85 12.19 17.31 12.19 17.31 8.65 20.85 8.65" style="fill:#191817"/><polygon points="25.17 8.65 25.17 12.19 21.64 12.19 21.64 8.65 25.17 8.65" style="fill:#191817"/><polygon points="12.22 12.98 12.22 16.51 8.69 16.51 8.69 12.98 12.22 12.98" style="fill:#191817"/><polygon points="16.54 12.98 16.54 16.51 13.01 16.51 13.01 12.98 16.54 12.98" style="fill:#191817"/><polygon points="20.85 12.98 20.85 16.51 17.31 16.51 17.31 12.98 20.85 12.98" style="fill:#191817"/><polygon points="25.17 12.98 25.17 16.51 21.64 16.51 21.64 12.98 25.17 12.98" style="fill:#191817"/><polygon points="20.85 17.31 20.85 20.84 17.31 20.84 17.31 17.31 20.85 17.31" style="fill:#191817"/><polygon points="25.17 17.31 25.17 20.84 21.64 20.84 21.64 17.31 25.17 17.31" style="fill:#51ae47"/><polygon points="25.17 21.64 25.17 25.17 21.64 25.17 21.64 21.64 25.17 21.64" style="fill:#191817"/></svg>