<svg xmlns="http://www.w3.org/2000/svg" viewBox="0 0 223.94 120"><path d="M226.77,221.24l-.22-.13a1,1,0,0,0,0-.17c0-.18-1.28-1.14-3.51-1.14s-3,.64-3,1.49c0,2.24,8-1,8,3.91,0,1.82-1.75,3.19-5.24,3.19a8.7,8.7,0,0,1-4.63-1.08c-.08,0-.13.07-.19.11l-.18,0,1.13-2.32.22.11a2,2,0,0,0,0,.22c0,.8,1.77,1.36,3.52,1.36,2.48,0,3.33-.71,3.33-1.46,0-2.68-7.94.64-7.94-3.89,0-2.29,2.42-3.23,5.08-3.23a10.37,10.37,0,0,1,4.21,1c.18,0,.21-.05.25-.09l.22.07Z" transform="translate(-167.2 -170.84)" style="fill:#028b83"/><path d="M238.24,220.58a4.13,4.13,0,0,1,1.58,3.39c0,2.87-2.21,4.43-4.94,4.43a5.88,5.88,0,0,1-2.64-.58l-.76.91h-1.11l1.14-1.36a4.06,4.06,0,0,1-1.57-3.39c0-2.87,2.2-4.43,4.93-4.43a5.92,5.92,0,0,1,2.65.58l.75-.91h1.11Zm-1.7.73a3.46,3.46,0,0,0-1.67-.37,3,3,0,0,0-3.25,3,2.83,2.83,0,0,0,.91,2.19Zm-3.31,5.32a3.4,3.4,0,0,0,1.66.37,3,3,0,0,0,3.26-3,2.86,2.86,0,0,0-.89-2.19Z" transform="translate(-167.2 -170.84)" style="fill:#028b83"/><path d="M244.09,227.77c0,.26,0,.35.33.35v.17h-2.34v-.17c.28,0,.33-.09.33-.35v-7.59c0-.26,0-.36-.33-.36v-.16h5.73c2.06,0,3.15,1.09,3.15,2.47a2.48,2.48,0,0,1-2.32,2.53l2.16,3.11c.17.24.26.35.51.35v.17h-2.62v-.17c.14,0,.16,0,.16-.09a.72.72,0,0,0-.15-.32l-2.17-3.09h-2.44Zm0-4.56h3.59c.85,0,1.54-.33,1.54-1.08s-.69-1.08-1.54-1.08h-3.59Z" transform="translate(-167.2 -170.84)" style="fill:#028b83"/><path d="M253.36,228.11c.26,0,.31-.09.31-.35v-7.58c0-.26,0-.36-.31-.36v-.16h2.35v.16c-.31,0-.35.1-.35.36v6.7h5.46c.28,0,.4-.09.4-.28h.17v1.94h-.17c0-.16-.12-.26-.4-.26h-7.46Z" transform="translate(-167.2 -170.84)" style="fill:#028b83"/><path d="M262.65,228.28v-.16c.21,0,.28-.07.45-.46l3.24-7.29a.83.83,0,0,0,.14-.35c0-.13-.09-.19-.25-.21v-.15h2.59v.16c-.18,0-.25.1-.25.18a.67.67,0,0,0,.1.31l3.43,7.36c.17.37.22.45.46.45v.17h-2.35v-.17c.15,0,.21-.06.21-.11a12.63,12.63,0,0,0-.91-2h-4.06a16.37,16.37,0,0,0-.87,1.94.18.18,0,0,0,.05.12.15.15,0,0,0,.13.05v.17Zm6.17-3.64-1.43-3.09L266,224.66Z" transform="translate(-167.2 -170.84)" style="fill:#028b83"/><path d="M283.49,227.77c0,.26.09.35.32.35v.17h-2.19v-.17c.12,0,.24,0,.24-.09s-.08-.16-.23-.32L276.3,222v5.79c0,.26.06.35.32.35v.17h-2.09v-.17c.26,0,.28-.09.28-.35v-7.59c0-.26,0-.36-.28-.36v-.16h2.52v.16c-.22,0-.32.05-.32.16s0,.09.14.18l5.13,5.46v-5.44c0-.26,0-.36-.31-.36v-.16h2.1v.16c-.23,0-.32.1-.32.36Z" transform="translate(-167.2 -170.84)" style="fill:#028b83"/><path d="M286.7,220.18c0-.26,0-.36-.33-.36v-.16h5.24c3,0,4.28,1.72,4.28,4.31,0,2.86-1.58,4.31-4,4.31h-5.5v-.17c.28,0,.33-.09.33-.35Zm1.69,6.7h3.48c1.46,0,2.34-.75,2.34-2.91s-1.18-2.92-2.73-2.92H288.4Z" transform="translate(-167.2 -170.84)" style="fill:#028b83"/><path d="M298.27,228.11c.26,0,.31-.09.31-.35v-7.58c0-.26-.05-.36-.31-.36v-.16H306c.28,0,.4-.1.4-.26h.17v2h-.17c0-.21-.12-.31-.4-.31h-5.7v2.11H304c.28,0,.4-.09.4-.31h.16v2h-.16c0-.19-.12-.28-.4-.28h-3.72v2.32h5.81c.28,0,.4-.09.4-.28h.16v1.94h-.16c0-.16-.12-.26-.4-.26h-7.79Z" transform="translate(-167.2 -170.84)" style="fill:#028b83"/><path d="M313.4,227.77c0,.26.06.35.37.35v.17h-2.42v-.17c.31,0,.36-.09.36-.35v-6.71h-2.86c-.28,0-.4.09-.4.29h-.17v-2h.17c0,.19.12.29.4.29h7.39c.28,0,.4-.1.4-.29h.16v2h-.16c0-.2-.12-.29-.4-.29H313.4Z" transform="translate(-167.2 -170.84)" style="fill:#028b83"/><path d="M326.1,222.19l-.19-.1a1,1,0,0,0,0-.17c0-.15-1.11-1-3-1s-2.64.57-2.64,1.3c0,1.94,7-.91,7,3.39,0,1.56-1.52,2.77-4.56,2.77a7.74,7.74,0,0,1-4-.91c-.07,0-.1.06-.16.1l-.16,0,1-2,.19.1a1.25,1.25,0,0,0,0,.19c0,.7,1.53,1.2,3.05,1.2,2.15,0,2.88-.62,2.88-1.27,0-2.32-6.88.56-6.88-3.37,0-2,2.1-2.82,4.4-2.82a8.86,8.86,0,0,1,3.64.91c.16,0,.18-.05.22-.09l.19.06Z" transform="translate(-167.2 -170.84)" style="fill:#028b83"/><path d="M221.65,239.42v2.47c0,.26.06.35.36.35v.17h-2.35v-.17c.26,0,.31-.09.31-.35V234.3c0-.26-.05-.35-.31-.35v-.17H222V234c-.3,0-.36.09-.36.35v3.27l4-3.19c.24-.2.34-.25.34-.32s-.08-.11-.16-.11v-.17h2.88V234a2.19,2.19,0,0,0-.91.49l-3.31,2.68,3.94,4.77a.71.71,0,0,0,.55.35v.17h-2.73v-.17c.16,0,.2,0,.2-.1s-.09-.18-.19-.3l-3.06-3.68Z" transform="translate(-167.2 -170.84)" style="fill:#028b83"/><path d="M240.48,238.09c0,2.87-2.21,4.43-4.94,4.43s-4.94-1.54-4.94-4.43,2.21-4.43,4.94-4.43S240.48,235.23,240.48,238.09Zm-8.2,0a3.26,3.26,0,1,0,3.26-3,3,3,0,0,0-3.26,3Z" transform="translate(-167.2 -170.84)" style="fill:#028b83"/><path d="M252.79,233.78V234c-.28,0-.32.09-.32.35v7.59c0,.26,0,.35.32.35v.17h-2.28v-.17c.24,0,.28-.09.28-.35v-5.33h0l-3.06,5.84h-.16l-3-5.89h0v5.38c0,.26.05.35.36.35v.17h-2.11v-.17c.26,0,.31-.09.31-.35V234.3c0-.26-.05-.35-.31-.35v-.17h2.63V234c-.16,0-.31.08-.31.22s.08.21.26.55l2.39,4.56,2.63-4.88a.71.71,0,0,0,.13-.31c0-.1-.1-.15-.31-.16v-.15Z" transform="translate(-167.2 -170.84)" style="fill:#028b83"/><path d="M257.37,241.89c0,.26.05.35.34.35v.17h-2.35v-.17c.28,0,.33-.09.33-.35V234.3c0-.26,0-.35-.33-.35v-.17H261c1.87,0,2.82.95,2.82,2.45s-.76,2.47-2.82,2.47h-3.65Zm0-4.6H261c.91,0,1.16-.28,1.16-1s-.26-1.05-1.16-1.05h-3.65Z" transform="translate(-167.2 -170.84)" style="fill:#028b83"/><path d="M265.87,242.24c.26,0,.31-.1.31-.36V234.3c0-.26,0-.35-.31-.35v-.17h7.69c.28,0,.4-.09.4-.26h.16v2H274c0-.21-.12-.31-.4-.31h-5.71v2.11h3.72c.28,0,.4-.1.4-.31h.16v2H272c0-.19-.12-.28-.4-.28h-3.72V241h5.8c.29,0,.4-.1.4-.28h.18v1.93h-.17c0-.16-.11-.26-.4-.26h-7.79Z" transform="translate(-167.2 -170.84)" style="fill:#028b83"/><path d="M281,241.89c0,.26.06.35.37.35v.17H279v-.17c.31,0,.36-.09.36-.35v-6.71h-2.86c-.28,0-.4.09-.4.29h-.17v-2h.16c0,.2.12.29.4.29h7.39c.28,0,.4-.1.4-.29h.16v2h-.15c0-.2-.12-.29-.4-.29H281Z" transform="translate(-167.2 -170.84)" style="fill:#028b83"/><path d="M284.7,242.4v-.16c.22,0,.29-.07.46-.46l3.23-7.28a.93.93,0,0,0,.14-.36c0-.13-.1-.19-.25-.21v-.15h2.58V234c-.18,0-.25.09-.25.17a.81.81,0,0,0,.1.31l3.44,7.36c.16.37.21.45.45.45v.17h-2.35v-.17c.15,0,.21-.05.21-.11a11.16,11.16,0,0,0-.91-2h-4.06a17,17,0,0,0-.87,1.93.18.18,0,0,0,.05.12.14.14,0,0,0,.13.05v.17Zm6.18-3.64-1.42-3.1-1.4,3.1Z" transform="translate(-167.2 -170.84)" style="fill:#028b83"/><path d="M305.54,241.89c0,.26.08.35.32.35v.17h-2.19v-.17c.12,0,.24,0,.24-.09s-.08-.16-.23-.32l-5.31-5.73v5.79c0,.26.06.35.32.35v.17h-2.1v-.17c.26,0,.29-.09.29-.35V234.3c0-.26,0-.35-.29-.35v-.17h2.53V234c-.23,0-.32,0-.32.15s0,.1.13.18l5.14,5.46V234.3c0-.26,0-.35-.31-.35v-.17h2.12V234c-.24,0-.32.09-.32.35Z" transform="translate(-167.2 -170.84)" style="fill:#028b83"/><path d="M315.75,236.31l-.19-.1a.88.88,0,0,0,0-.16c0-.16-1.11-1-3-1s-2.64.57-2.64,1.3c0,1.94,7-.91,7,3.39,0,1.57-1.52,2.77-4.56,2.77a7.74,7.74,0,0,1-4-.91c-.07,0-.1.06-.16.1l-.15,0,1-2,.19.09c0,.05,0,.1,0,.19,0,.7,1.52,1.2,3,1.2,2.16,0,2.89-.61,2.89-1.26,0-2.33-6.88.55-6.88-3.38,0-2,2.09-2.82,4.39-2.82a8.9,8.9,0,0,1,3.65.91c.15,0,.17,0,.21-.08l.19.06Z" transform="translate(-167.2 -170.84)" style="fill:#028b83"/><path d="M319,242.24c.26,0,.31-.1.31-.36V234.3c0-.26,0-.35-.31-.35v-.17h7.69c.28,0,.4-.09.4-.26h.16v2h-.17c0-.21-.12-.31-.4-.31H321v2.11h3.72c.28,0,.4-.1.4-.31h.17v2h-.17c0-.19-.12-.28-.4-.28H321V241h5.81c.28,0,.4-.1.4-.28h.16v1.93h-.16c0-.16-.12-.26-.4-.26H319Z" transform="translate(-167.2 -170.84)" style="fill:#028b83"/><path d="M329.57,233.78H337c.28,0,.4-.09.4-.26h.16v2h-.17c0-.21-.12-.31-.4-.31h-5.4v2.11h3.48c.29,0,.4-.1.4-.31h.17v2h-.17c0-.19-.11-.28-.4-.28h-3.48v3.19c0,.26.05.35.31.35v.17h-2.32v-.17c.28,0,.33-.09.33-.35V234.3c0-.26,0-.35-.33-.35Z" transform="translate(-167.2 -170.84)" style="fill:#028b83"/><path d="M349.12,238.09c0,2.87-2.2,4.43-4.94,4.43s-4.93-1.54-4.93-4.43,2.2-4.43,4.93-4.43S349.12,235.23,349.12,238.09Zm-8.2,0a3.27,3.27,0,1,0,3.26-3,3,3,0,0,0-3.26,3Z" transform="translate(-167.2 -170.84)" style="fill:#028b83"/><path d="M360.4,241.89c0,.26.08.35.32.35v.17h-2.19v-.17c.12,0,.23,0,.23-.09s-.07-.16-.22-.32l-5.33-5.72v5.78c0,.26.06.35.32.35v.17h-2.09v-.17c.25,0,.28-.09.28-.35V234.3c0-.26,0-.35-.28-.35v-.17H354V234c-.23,0-.32,0-.32.15s0,.1.13.18l5.14,5.46V234.3c0-.26,0-.35-.31-.35v-.17h2.12V234c-.24,0-.32.09-.32.35Z" transform="translate(-167.2 -170.84)" style="fill:#028b83"/><path d="M363.61,234.3c0-.26-.05-.35-.34-.35v-.17h5.25c3,0,4.29,1.72,4.29,4.31,0,2.87-1.59,4.31-4,4.31h-5.51v-.16c.29,0,.34-.1.34-.36Zm1.68,6.71h3.48c1.46,0,2.34-.76,2.34-2.92s-1.18-2.91-2.73-2.91h-3.09Z" transform="translate(-167.2 -170.84)" style="fill:#028b83"/><polygon points="23.61 46.91 23.61 50.44 20.08 50.44 20.08 46.91 23.61 46.91" style="fill:#191817"/><polygon points="23.55 68.55 23.55 72.08 20.02 72.08 20.02 68.55 23.55 68.55" style="fill:#c6c6c5"/><polygon points="27.93 46.91 27.93 50.44 24.4 50.44 24.4 46.91 27.93 46.91" style="fill:#191817"/><polygon points="32.24 46.91 32.24 50.44 28.71 50.44 28.71 46.91 32.24 46.91" style="fill:#191817"/><polygon points="36.56 46.91 36.56 50.44 33.03 50.44 33.03 46.91 36.56 46.91" style="fill:#191817"/><polygon points="40.87 46.91 40.87 50.44 37.33 50.44 37.33 46.91 40.87 46.91" style="fill:#191817"/><polygon points="45.19 46.91 45.19 50.44 41.66 50.44 41.66 46.91 45.19 46.91" style="fill:#191817"/><polygon points="27.93 51.24 27.93 54.77 24.4 54.77 24.4 51.24 27.93 51.24" style="fill:#191817"/><polygon points="27.93 64.17 27.93 67.7 24.4 67.7 24.4 64.17 27.93 64.17" style="fill:#028b83"/><polygon points="32.24 51.24 32.24 54.77 28.71 54.77 28.71 51.24 32.24 51.24" style="fill:#e21f26"/><polygon points="36.56 51.24 36.56 54.77 33.03 54.77 33.03 51.24 36.56 51.24" style="fill:#191817"/><polygon points="40.87 51.24 40.87 54.77 37.33 54.77 37.33 51.24 40.87 51.24" style="fill:#fdec09"/><polygon points="45.19 51.24 45.19 54.77 41.66 54.77 41.66 51.24 45.19 51.24" style="fill:#191817"/><polygon points="32.24 55.56 32.24 59.1 28.71 59.1 28.71 55.56 32.24 55.56" style="fill:#191817"/><polygon points="36.56 55.56 36.56 59.1 33.03 59.1 33.03 55.56 36.56 55.56" style="fill:#219cd8"/><polygon points="40.87 55.56 40.87 59.1 37.33 59.1 37.33 55.56 40.87 55.56" style="fill:#191817"/><polygon points="45.19 55.56 45.19 59.1 41.66 59.1 41.66 55.56 45.19 55.56" style="fill:#191817"/><polygon points="32.24 59.89 32.24 63.42 28.71 63.42 28.71 59.89 32.24 59.89" style="fill:#191817"/><polygon points="36.56 59.89 36.56 63.42 33.03 63.42 33.03 59.89 36.56 59.89" style="fill:#191817"/><polygon points="40.87 59.89 40.87 63.42 37.33 63.42 37.33 59.89 40.87 59.89" style="fill:#191817"/><polygon points="45.19 59.89 45.19 63.42 41.66 63.42 41.66 59.89 45.19 59.89" style="fill:#191817"/><polygon points="40.87 64.22 40.87 67.75 37.33 67.75 37.33 64.22 40.87 64.22" style="fill:#191817"/><polygon points="45.19 64.22 45.19 67.75 41.66 67.75 41.66 64.22 45.19 64.22" style="fill:#51ae47"/><polygon points="45.19 68.55 45.19 72.08 41.66 72.08 41.66 68.55 45.19 68.55" style="fill:#191817"/><rect width="223.94" height="120" style="fill:none"/></svg>