<svg id="Layer_1" data-name="Layer 1" xmlns="http://www.w3.org/2000/svg" viewBox="0 0 16 16"><defs><style>.cls-1{fill:#f15c39;}.cls-2{fill:#fff;fill-rule:evenodd;}</style></defs><rect class="cls-1" width="16" height="16"/><path class="cls-2" d="M278.39,130.63s0-.07,0-.09v0l-.09-.06-.74-.32-.1,0h0s0,0,0,.09L276.17,133c-.17.4-.29.67-.39.87s-.09.16-.12.21l-.05,0h0a.53.53,0,0,1-.69,0h0l0-.06a1.28,1.28,0,0,1-.11-.21c-.1-.2-.21-.49-.37-.89l-.35-.9s0-.08-.05-.09h0l-.1,0-.75.3-.09,0a0,0,0,0,1,0,0,.29.29,0,0,0,0,.09l.36.92c.15.39.27.7.38.93a1.79,1.79,0,0,0,.42.62,1.59,1.59,0,0,0,2.07,0,1.9,1.9,0,0,0,.44-.6c.12-.23.25-.53.41-.91Zm1.22,4.09a.24.24,0,0,0-.05-.09h0l-.1,0-.92.36-.93.37a1.79,1.79,0,0,0-.62.42,1.58,1.58,0,0,0,0,2.06,1.9,1.9,0,0,0,.61.44c.23.12.54.25.92.42l2.86,1.25c.05,0,.07,0,.09,0h0a.24.24,0,0,0,.05-.09l.32-.73a.33.33,0,0,0,0-.1v0s0,0-.09-.05l-2.84-1.25c-.4-.17-.68-.29-.88-.39l-.21-.12a.17.17,0,0,1-.05-.05h0a.52.52,0,0,1,0-.69l.06,0a1,1,0,0,1,.21-.11l.89-.36.9-.35c.05,0,.08,0,.09,0v0a.26.26,0,0,0,0-.1Zm-7.78,0L269,133.49l-.1,0h0s0,0-.05.09l-.32.73c0,.05,0,.08,0,.1s0,0,0,0,0,0,.08.05l2.85,1.25c.4.17.67.29.87.39l.21.12a.16.16,0,0,1,.06.05.52.52,0,0,1,0,.68h0l-.06,0-.21.11-.89.36-.91.35c-.05,0-.07,0-.08.05v0s0,.05,0,.1l.3.75s0,.07.05.08,0,0,0,0,0,0,.09,0l.93-.36c.38-.15.69-.27.92-.38a1.91,1.91,0,0,0,.63-.41,1.58,1.58,0,0,0,0-2.06,1.86,1.86,0,0,0-.6-.44C272.51,135,272.21,134.91,271.83,134.74Zm4.24,3.77a1.62,1.62,0,0,0-2.08,0,1.78,1.78,0,0,0-.43.61c-.12.22-.25.53-.42.91l-1.24,2.84a.33.33,0,0,0,0,.1s0,0,0,0,0,0,.08.05l.74.33c.05,0,.08,0,.1,0h0a.24.24,0,0,0,.05-.09l1.24-2.83c.17-.4.3-.67.4-.87a1.19,1.19,0,0,1,.12-.21.25.25,0,0,1,0-.06h0a.53.53,0,0,1,.69,0h0s0,0,0,.06a1.52,1.52,0,0,1,.12.21c.09.2.2.48.36.89l.36.9a.24.24,0,0,0,.05.09h0l.09,0,.75-.29c.05,0,.08,0,.09,0s0,0,0,0,0,0,0-.1l-.36-.92c-.16-.38-.28-.69-.39-.92A1.77,1.77,0,0,0,276.07,138.51Z" transform="translate(-267.14 -128.73)"/></svg>