<?xml version="1.0" encoding="utf-8"?>
<!-- Generator: Adobe Illustrator 25.2.1, SVG Export Plug-In . SVG Version: 6.00 Build 0)  -->
<svg version="1.1" id="Layer_1" xmlns="http://www.w3.org/2000/svg" xmlns:xlink="http://www.w3.org/1999/xlink" x="0px" y="0px"
	 viewBox="0 0 2000 897.52" style="enable-background:new 0 0 2000 897.52;" xml:space="preserve">
<style type="text/css">
	.st0{fill:#FFFFFF;}
	.st1{fill:#1D1D1B;}
	.st2{fill:#1EC8FF;}
	.st3{fill:#000050;}
</style>
<g>
	<g>
		<path class="st2" d="M967.7,303.27c83.61,0,151.63-68.02,151.63-151.64C1119.33,68.02,1051.31,0,967.7,0
			S816.06,68.02,816.06,151.63C816.06,235.25,884.09,303.27,967.7,303.27z M889.79,151.63c0-42.95,34.95-77.9,77.9-77.9
			s77.9,34.95,77.9,77.9c0,42.96-34.95,77.9-77.9,77.9S889.79,194.59,889.79,151.63z"/>
		<path class="st2" d="M1406.76,87.96l-134.32,96.65c-3.53,2.54-2.36,8.05,1.89,8.95l72.31,15.25
			c-4.76,22.47-12.19,51.56-23.37,82.37c-19.97,55.01-56.21,126.26-115.5,153.31c-54.53,24.87-124.1,9.24-206.77-46.42
			c-100.37-67.59-197.77-90.38-289.49-67.72c-143.22,35.38-216.54,169.11-219.59,174.78l-3.15,5.87l60.51,32.57l5.85,3.14l3.17-5.84
			c0.6-1.1,60.88-110.05,171.28-137.33c70.17-17.33,147.32,1.86,229.29,57.07c105.91,71.32,200.17,88.97,280.18,52.48
			c55.08-25.13,100.7-75.31,135.59-149.16c24.27-51.38,38.23-104.01,45.59-138.46l74.88,20.48c4.32,1.18,7.89-3.47,5.64-7.34
			L1414,89.5C1412.52,86.95,1409.16,86.24,1406.76,87.96z"/>
	</g>
	<g>
		<path class="st3" d="M32.46,699.06v38.69H99.1v29.7H32.46v77.64H0V669.35h113.33v29.71H32.46z"/>
		<path class="st3" d="M224.88,768.21v76.89h-31.2v-18.22c-5.74,12.48-19.23,21.22-35.2,21.22c-25.21,0-43.19-17.23-43.19-40.94
			c0-23.46,18.97-39.44,44.94-39.44c13.48,0,25.71,4.49,33.45,10.48v-8.49c0-17.23-12.99-27.96-33.45-27.96
			c-13.48,0-26.96,5.49-37.95,15.48v-26.71c11.48-9.74,27.71-14.73,43.19-14.73C200.92,715.78,224.88,736.75,224.88,768.21z
			 M193.68,798.16v-1c-6.99-5.24-16.48-8.73-25.97-8.73c-13.23,0-22.47,7.73-22.47,17.97c0,10.23,9.24,18.22,22.47,18.22
			C181.94,824.62,193.18,813.39,193.68,798.16z"/>
		<path class="st3" d="M375.92,718.78v116.58c0,38.94-28.71,62.16-66.65,62.16c-16.73,0-36.7-5.24-51.68-14.73v-26.71
			c14.23,9.98,31.7,15.48,46.43,15.48c22.97,0,40.69-12.99,40.69-37.7v-13.98c-7.74,14.73-22.97,23.47-42.44,23.47
			c-33.95,0-60.91-27.21-60.91-63.66c0-36.7,26.96-63.91,60.91-63.91c19.47,0,34.7,8.74,42.44,23.47v-20.47H375.92z M344.72,779.69
			c0-20.97-15.48-36.45-35.7-36.45c-20.22,0-35.95,15.48-35.95,36.45c0,20.72,15.73,36.2,35.95,36.2
			C329.24,815.89,344.72,800.41,344.72,779.69z"/>
		<path class="st3" d="M394.08,781.93c0-37.69,29.71-66.15,68.15-66.15c38.19,0,68.15,28.46,68.15,66.15
			c0,37.45-29.95,66.16-68.15,66.16C423.79,848.09,394.08,819.38,394.08,781.93z M498.68,781.93c0-21.71-15.73-37.69-36.45-37.69
			s-36.45,15.98-36.45,37.69c0,21.72,15.73,37.7,36.45,37.7S498.68,803.65,498.68,781.93z"/>
		<path class="st3" d="M683.76,781.93c0,37.95-27.21,66.16-61.9,66.16c-19.48,0-34.95-8.99-42.69-24.46v70.89h-31.21V718.78h31.21
			v21.47c7.74-15.47,23.21-24.46,42.69-24.46C656.55,715.78,683.76,743.99,683.76,781.93z M652.06,781.93
			c0-21.71-15.73-37.69-36.45-37.69c-20.72,0-36.45,15.98-36.45,37.69c0,21.72,15.73,37.7,36.45,37.7
			C636.34,819.63,652.06,803.65,652.06,781.93z"/>
		<path class="st3" d="M837.72,781.93c0,37.95-27.21,66.16-61.9,66.16c-19.48,0-34.95-8.99-42.69-24.46v70.89h-31.21V718.78h31.21
			v21.47c7.74-15.47,23.21-24.46,42.69-24.46C810.51,715.78,837.72,743.99,837.72,781.93z M806.03,781.93
			c0-21.71-15.73-37.69-36.45-37.69c-20.72,0-36.45,15.98-36.45,37.69c0,21.72,15.73,37.7,36.45,37.7
			C790.3,819.63,806.03,803.65,806.03,781.93z"/>
		<path class="st3" d="M887.37,845.09h-31.21V669.35h31.21V845.09z"/>
		<path class="st3" d="M1012.51,787.2c-0.57,3.95-0.12,8.02,1.53,11.65c6.46,14.29,20.88,23.27,41.41,23.27
			c16.47,0,32.2-6.99,43.93-17.23v26.96c-9.98,9.74-27.21,16.23-49.43,16.23c-21.97,0-39.69-7.99-51.42-21.47
			c-10.74,15.48-27.46,21.47-41.44,21.47c-32.95,0-50.93-17.23-50.93-40.94c0-23.46,18.97-38.94,44.68-38.94
			c12.73,0,24.72,3.99,32.2,9.98c0.25-3.74,0.75-7.49,1.5-10.98c-1.25-15.73-13.98-25.46-33.7-25.46
			c-13.48,0-26.96,5.49-37.95,15.48v-26.71c11.74-9.74,27.96-14.73,43.44-14.73c19.47,0,35.2,6.49,45.43,17.97
			c10.98-11.23,26.46-17.97,44.68-17.97c39.94,0,61.91,31.46,56.92,71.4h-90.87L1012.51,787.2z M985.3,800.66l-0.75-3.49
			c-6.99-5.24-16.47-8.73-26.21-8.73c-13.23,0-22.47,7.73-22.47,17.97c0,10.23,9.49,18.22,22.47,18.22
			C971.57,824.62,983.05,814.39,985.3,800.66z M1013.26,761.47c0,1.5-0.25,3.49-0.5,5.24h59.91c-1-15.98-12.73-27.46-28.71-27.46
			C1029.99,739.25,1018.5,746.99,1013.26,761.47z"/>
		<path class="st3" d="M1210.16,720.53v29.96c-6.74-4.25-14.73-5.74-21.47-5.74c-18.72,0-33.95,16.23-34.2,42.44v57.91h-31.21
			V718.78h31.21v26.71c4.49-16.98,18.47-29.71,35.94-29.71C1196.92,715.78,1204.17,717.28,1210.16,720.53z"/>
		<path class="st3" d="M1257.02,682.83c0,10.74-8.74,19.72-19.97,19.72c-11.48,0-19.97-8.99-19.97-19.72
			c0-10.73,8.49-19.72,19.97-19.72C1248.28,663.11,1257.02,672.1,1257.02,682.83z M1252.77,845.09h-31.21V718.78h31.21V845.09z"/>
		<path class="st3" d="M1397.59,771.45v73.64h-31.21v-69.65c0-18.72-11.48-31.2-28.46-31.2c-16.97,0-29.21,14.73-29.21,34.95v65.9
			h-31.21V718.78h31.21v20.97c7.74-14.98,21.71-23.96,38.69-23.96C1377.61,715.78,1397.59,737,1397.59,771.45z"/>
		<path class="st3" d="M1548.63,718.78v116.58c0,38.94-28.71,62.16-66.66,62.16c-16.72,0-36.7-5.24-51.67-14.73v-26.71
			c14.23,9.98,31.7,15.48,46.43,15.48c22.96,0,40.69-12.99,40.69-37.7v-13.98c-7.74,14.73-22.96,23.47-42.43,23.47
			c-33.94,0-60.91-27.21-60.91-63.66c0-36.7,26.97-63.91,60.91-63.91c19.47,0,34.69,8.74,42.43,23.47v-20.47H1548.63z
			 M1517.41,779.69c0-20.97-15.47-36.45-35.69-36.45c-20.22,0-35.95,15.48-35.95,36.45c0,20.72,15.73,36.2,35.95,36.2
			C1501.95,815.89,1517.41,800.41,1517.41,779.69z"/>
		<path class="st3" d="M1736.13,686.33v34.45c-15.98-16.23-35.7-25.21-53.42-25.21c-17.23,0-27.71,6.99-27.71,18.72
			c0,9.98,5.99,15.98,19.97,20.97l24.47,8.49c30.7,10.48,43.68,25.71,43.68,51.42c0,31.7-26.47,52.92-64.4,52.92
			c-24.47,0-44.69-10.74-56.42-23.47v-35.2c17.23,19.22,38.19,29.21,56.92,29.21c18.97,0,30.21-7.99,30.21-21.71
			c0-11.48-6.99-17.47-22.72-22.97l-22.71-7.99c-29.96-10.73-42.69-25.46-42.69-50.17c0-29.45,25.46-49.43,61.9-49.43
			C1702.67,666.36,1723.65,674.34,1736.13,686.33z"/>
		<path class="st3" d="M1894.68,781.93c0,37.45-29.96,66.16-68.15,66.16c-13.98,0-26.71-3.74-37.45-10.49l-10.24,11.23l-13.98-12.98
			l9.49-10.48c-9.98-11.49-15.98-26.71-15.98-43.44c0-37.69,29.71-66.15,68.15-66.15c14.23,0,27.21,4,37.95,10.74l10.74-11.74
			l13.98,12.99L1878.94,739C1888.93,750.48,1894.68,765.21,1894.68,781.93z M1795.57,802.4l48.68-53.67
			c-5.24-3-11.23-4.49-17.72-4.49c-20.72,0-36.44,15.98-36.44,37.69C1790.08,789.67,1792.07,796.42,1795.57,802.4z M1862.97,781.93
			c0-7.49-1.75-14.22-4.99-19.72l-48.68,53.17c5,2.75,10.98,4.25,17.23,4.25C1847.24,819.63,1862.97,803.65,1862.97,781.93z"/>
		<path class="st3" d="M2000,720.53v29.96c-6.74-4.25-14.73-5.74-21.47-5.74c-18.72,0-33.94,16.23-34.2,42.44v57.91h-31.2V718.78
			h31.2v26.71c4.49-16.98,18.47-29.71,35.94-29.71C1986.77,715.78,1994.01,717.28,2000,720.53z"/>
	</g>
</g>
</svg>
