<svg id="Layer_1" data-name="Layer 1" xmlns="http://www.w3.org/2000/svg" viewBox="0 0 400.8 130.42"><defs><style>.cls-1{fill:#00589d;}</style></defs><path class="cls-1" d="M625.59,403.15v4.91H611.87v9.83h12.42v4.94H611.87v13.53h-6.23V403.15Z" transform="translate(-394.6 -355.58)"/><path class="cls-1" d="M637.78,431.26h11.3v5.1H631.6V403.15h6.18Z" transform="translate(-394.6 -355.58)"/><path class="cls-1" d="M676,403.15v4.91H661.23v9.21h11.6V422h-11.6v9.39H676v4.94H655V403.15Z" transform="translate(-394.6 -355.58)"/><path class="cls-1" d="M688,423.38v13h-6.18V403.15H692a21,21,0,0,1,5.82.7,11.06,11.06,0,0,1,4,2,7.58,7.58,0,0,1,2.27,3,10.1,10.1,0,0,1,.72,3.87,10,10,0,0,1-.49,3.17,9.11,9.11,0,0,1-1.42,2.71,9.63,9.63,0,0,1-2.3,2.14,12.23,12.23,0,0,1-3.11,1.47,6.1,6.1,0,0,1,2,1.91l8.31,12.26h-5.56a2.59,2.59,0,0,1-2.32-1.24l-7-10.63a2.39,2.39,0,0,0-.86-.85,3,3,0,0,0-1.39-.26Zm0-4.43h3.86a9.56,9.56,0,0,0,3-.44,5.89,5.89,0,0,0,2.14-1.2,4.9,4.9,0,0,0,1.25-1.83,6.42,6.42,0,0,0,.41-2.32,4.71,4.71,0,0,0-1.66-3.88,7.93,7.93,0,0,0-5.09-1.36h-4Z" transform="translate(-394.6 -355.58)"/><path class="cls-1" d="M732.18,403.15v4.91H717.45v9.21h11.6V422h-11.6v9.39h14.73v4.94H711.23V403.15Z" transform="translate(-394.6 -355.58)"/><path class="cls-1" d="M612,483.52h-6.2V450.3H612Z" transform="translate(-394.6 -355.58)"/><path class="cls-1" d="M656.44,483.52h-4.78a2.06,2.06,0,0,1-1.32-.41,2.21,2.21,0,0,1-.75-1l-2.48-6.78H633.35l-2.48,6.78a2.22,2.22,0,0,1-.72,1,2.07,2.07,0,0,1-1.33.44H624l13.05-33.22h6.32ZM634.93,471h10.59l-4-11c-.18-.5-.38-1.07-.61-1.74s-.44-1.39-.65-2.17c-.22.78-.43,1.51-.63,2.18s-.41,1.27-.61,1.77Z" transform="translate(-394.6 -355.58)"/><path class="cls-1" d="M666.7,470.54v13h-6.18V450.3h10.13a21.1,21.1,0,0,1,5.83.7,11.17,11.17,0,0,1,4,2,7.73,7.73,0,0,1,2.28,3,10.1,10.1,0,0,1,.72,3.87A10.36,10.36,0,0,1,683,463a9.26,9.26,0,0,1-1.43,2.71,9.59,9.59,0,0,1-2.3,2.13,11.45,11.45,0,0,1-3.11,1.47,6.11,6.11,0,0,1,2,1.91l8.32,12.27H680.9a2.78,2.78,0,0,1-1.37-.32,3,3,0,0,1-.95-.92l-7-10.64a2.42,2.42,0,0,0-.87-.85,3,3,0,0,0-1.38-.25Zm0-4.44h3.86a9.68,9.68,0,0,0,3.05-.43,5.8,5.8,0,0,0,2.13-1.21,4.75,4.75,0,0,0,1.25-1.82,6.26,6.26,0,0,0,.42-2.32,4.74,4.74,0,0,0-1.67-3.89,8,8,0,0,0-5.09-1.35H666.7Z" transform="translate(-394.6 -355.58)"/><path class="cls-1" d="M690.87,483.52V450.3h11.46a21.84,21.84,0,0,1,5.57.62,10.42,10.42,0,0,1,3.79,1.77,6.79,6.79,0,0,1,2.17,2.78,9.34,9.34,0,0,1,.69,3.67,7.19,7.19,0,0,1-.34,2.24,6.46,6.46,0,0,1-1.07,2,7.72,7.72,0,0,1-1.84,1.69,10.72,10.72,0,0,1-2.65,1.29q6.84,1.53,6.85,7.39a9.37,9.37,0,0,1-.81,3.91,8.69,8.69,0,0,1-2.34,3.09,11.33,11.33,0,0,1-3.79,2,16.58,16.58,0,0,1-5.15.74Zm6.18-18.84H702a8.25,8.25,0,0,0,4.78-1.15,4.16,4.16,0,0,0,1.63-3.65,4.34,4.34,0,0,0-1.47-3.7,7.73,7.73,0,0,0-4.6-1.1h-5.28Zm0,4.27v9.74h6.27a8.79,8.79,0,0,0,2.88-.41,4.94,4.94,0,0,0,1.86-1.1,4,4,0,0,0,1-1.61,6,6,0,0,0,.31-1.95,5.25,5.25,0,0,0-.34-1.95,3.6,3.6,0,0,0-1.08-1.46,5.11,5.11,0,0,0-1.88-.94,10.68,10.68,0,0,0-2.78-.32Z" transform="translate(-394.6 -355.58)"/><path class="cls-1" d="M743.21,450.3v4.92H728.48v9.21h11.61v4.75H728.48v9.4h14.73v4.94h-21V450.3Z" transform="translate(-394.6 -355.58)"/><path class="cls-1" d="M757,483.52h-6.2V450.3H757Z" transform="translate(-394.6 -355.58)"/><path class="cls-1" d="M795.4,466.91a17.84,17.84,0,0,1-1.22,6.71,15.44,15.44,0,0,1-3.42,5.26,15.28,15.28,0,0,1-5.31,3.42,18.61,18.61,0,0,1-6.86,1.22H765.91V450.3h12.68a18.41,18.41,0,0,1,6.86,1.23,15.57,15.57,0,0,1,5.31,3.42,15.21,15.21,0,0,1,3.42,5.25A17.8,17.8,0,0,1,795.4,466.91Zm-6.32,0a15.31,15.31,0,0,0-.73-4.91,10.46,10.46,0,0,0-2.09-3.67A9.12,9.12,0,0,0,783,456a11.23,11.23,0,0,0-4.37-.8h-6.46V478.6h6.46a11.42,11.42,0,0,0,4.37-.8,9.12,9.12,0,0,0,3.3-2.31,10.41,10.41,0,0,0,2.09-3.68A15.2,15.2,0,0,0,789.08,466.91Z" transform="translate(-394.6 -355.58)"/><path class="cls-1" d="M440.06,413.38A11.35,11.35,0,1,0,428.71,402,11.36,11.36,0,0,0,440.06,413.38Z" transform="translate(-394.6 -355.58)"/><path class="cls-1" d="M490.1,378.29a11.36,11.36,0,1,0-11.36-11.36A11.38,11.38,0,0,0,490.1,378.29Z" transform="translate(-394.6 -355.58)"/><path class="cls-1" d="M539.62,400.09a11.36,11.36,0,1,0-11.35-11.35A11.38,11.38,0,0,0,539.62,400.09Z" transform="translate(-394.6 -355.58)"/><path class="cls-1" d="M557.3,450.42V427a14.84,14.84,0,0,0-14.83-14.82h-5.74a14.84,14.84,0,0,0-14.81,14.54c0,.09,0,44.84,0,45a5.84,5.84,0,0,1-5.8,5.22H513.4a5.83,5.83,0,0,1-5.82-5.66c0-.06,0-66.22,0-66.22a14.84,14.84,0,0,0-14.82-14.82H487a14.84,14.84,0,0,0-14.83,14.82s0,66.46,0,66.66a5.82,5.82,0,0,1-5.79,5.22H463.7a5.83,5.83,0,0,1-5.82-5.67v-31.1a14.85,14.85,0,0,0-14.82-14.67h-5.74a14.84,14.84,0,0,0-14.82,14.83v10H394.6v9h36.9v-19a5.83,5.83,0,0,1,5.82-5.83h5.74a5.83,5.83,0,0,1,5.82,5.67v31.1A14.85,14.85,0,0,0,463.7,486h2.74a14.84,14.84,0,0,0,14.79-14.22c0-.2,0-66.66,0-66.66A5.83,5.83,0,0,1,487,399.3h5.74a5.83,5.83,0,0,1,5.82,5.82s0,66.16,0,66.22A14.85,14.85,0,0,0,513.4,486h2.74a14.83,14.83,0,0,0,14.8-14.22c0-.2,0-44.76,0-44.76a5.83,5.83,0,0,1,5.83-5.82h5.74A5.83,5.83,0,0,1,548.3,427v32.4h36.27v-9Z" transform="translate(-394.6 -355.58)"/></svg>