<svg xmlns="http://www.w3.org/2000/svg" width="260" height="88.955" viewBox="0 0 260 88.955">
  <g id="Group_2" data-name="Group 2" transform="translate(-28.755 -29.299)">
    <g id="Group_1" data-name="Group 1" transform="translate(28.755 29.299)">
      <path id="Path_1" data-name="Path 1" d="M95.412,29.3A43.4,43.4,0,0,0,61.653,44.933l.118-.08a43.5,43.5,0,0,1,4.938-2.884c.689-.345,1.385-.676,2.091-.983-.262.114-.524.228-.785.347a41.778,41.778,0,0,1,27.4-9.989c22.452,0,40.717,17.239,40.717,38.43a37.462,37.462,0,0,1-11.656,26.908,8.209,8.209,0,0,1-.7,1.182A40.854,40.854,0,0,1,120.5,102.5l-.089.109a39.956,39.956,0,0,0,17.76-32.835c0-22.318-19.183-40.475-42.762-40.475" transform="translate(-43.883 -29.299)" fill="#00a0b8"/>
      <path id="Path_2" data-name="Path 2" d="M105.157,116.017a43.42,43.42,0,0,1-4.939,2.884c-.686.344-1.379.673-2.082.979.26-.113.52-.226.777-.344a41.777,41.777,0,0,1-27.4,9.99c-22.452,0-40.717-17.24-40.717-38.43A37.465,37.465,0,0,1,42.455,64.188c-.22.393-.432.789-.638,1.187.415-.8.865-1.591,1.337-2.37a40.887,40.887,0,0,1,3.27-4.636l.09-.109A39.956,39.956,0,0,0,28.755,91.1c0,22.318,19.183,40.475,42.762,40.475a43.4,43.4,0,0,0,33.759-15.634Z" transform="translate(-28.755 -42.617)" fill="#00a0b8"/>
      <path id="Path_3" data-name="Path 3" d="M119.663,86.187c-.008.191-.025.381-.037.571-.019.338-.036.676-.065,1.012-.018.217-.047.433-.07.649-.032.307-.059.615-.1.92-.03.23-.069.459-.1.688-.043.289-.082.579-.131.866-.042.243-.095.483-.142.725-.053.271-.1.544-.16.813-.054.247-.118.492-.178.737-.063.262-.121.525-.19.785s-.141.493-.212.739-.142.511-.22.764-.164.492-.247.737-.162.5-.251.747-.184.483-.277.724-.185.5-.285.741-.205.476-.309.714-.206.486-.316.727-.228.47-.342.705-.227.478-.347.713-.246.458-.37.687-.25.473-.382.707-.263.442-.394.663-.276.473-.422.705c-.134.215-.277.426-.416.638-.153.234-.3.47-.461.7-.143.209-.294.413-.441.62-.165.231-.327.464-.5.692-.15.2-.308.4-.463.6s-.317.416-.482.621l0,.006-.008,0c-.2.135-.405.261-.607.392s-.422.278-.637.411c-.237.147-.478.287-.718.429-.207.123-.413.25-.622.369-.25.143-.5.278-.757.415-.2.11-.405.225-.61.332-.261.136-.526.264-.79.394-.2.1-.4.2-.6.3-.272.129-.548.25-.823.373-.2.089-.395.182-.595.268-.281.121-.566.233-.85.348-.2.079-.392.163-.591.24-.289.112-.582.214-.873.319-.2.071-.392.146-.589.214-.3.1-.6.194-.893.289-.2.063-.392.13-.59.19-.3.091-.606.173-.91.258-.2.055-.394.115-.593.166-.307.08-.616.152-.925.225-.2.048-.4.1-.6.144-.314.07-.631.131-.948.194-.2.039-.391.083-.588.119-.317.059-.637.107-.956.159-.2.032-.4.069-.6.1-.321.047-.646.084-.969.124-.2.025-.4.055-.6.077-.338.037-.677.064-1.017.093-.187.016-.374.037-.561.051-.384.028-.77.045-1.156.063-.144.006-.288.018-.433.023q-.8.029-1.6.029c-22.452,0-40.717-17.24-40.717-38.43q0-.8.034-1.594c.008-.187.025-.373.036-.56.02-.342.037-.684.066-1.024.019-.226.049-.451.072-.676.031-.3.058-.6.1-.892.033-.257.077-.51.116-.766s.075-.527.12-.788.1-.526.153-.789.093-.5.147-.75c.058-.266.127-.529.191-.792.059-.243.113-.488.177-.729.071-.268.152-.534.23-.8.068-.234.13-.47.2-.7.083-.268.177-.533.267-.8.077-.228.149-.458.23-.685.1-.266.2-.528.3-.792.086-.224.167-.449.258-.671.107-.261.224-.519.337-.778.1-.221.188-.444.288-.663.117-.254.244-.506.367-.758.107-.22.21-.442.322-.661.126-.246.261-.487.393-.731.119-.221.235-.444.359-.663.133-.234.275-.465.414-.7s.263-.45.4-.672.289-.443.434-.665.291-.453.444-.676.3-.425.454-.638.319-.452.485-.675c.151-.2.312-.4.468-.6s.314-.413.478-.615l0-.006.007,0c.2-.136.409-.264.614-.4s.418-.275.63-.407c.24-.15.485-.291.728-.435.2-.121.406-.246.613-.364.252-.144.508-.28.764-.418.2-.11.4-.223.6-.328.265-.138.533-.268.8-.4.2-.1.393-.2.592-.294.278-.132.559-.254.838-.38.193-.087.385-.178.58-.261.287-.123.578-.238.868-.355.191-.077.38-.158.573-.232.3-.115.6-.22.9-.328.189-.068.376-.14.566-.206.306-.1.615-.2.923-.3.187-.059.373-.124.561-.18.312-.095.627-.179.94-.266.188-.052.374-.109.563-.158.318-.083.638-.157.959-.233.187-.044.373-.093.561-.136.327-.073.656-.136.985-.2.184-.036.367-.078.552-.112.329-.061.661-.112.992-.165.187-.03.373-.065.561-.093.332-.049.667-.088,1-.129.189-.023.375-.051.564-.072.346-.038.694-.065,1.041-.1.179-.015.357-.036.537-.049.389-.028.781-.046,1.173-.064.139-.006.277-.018.416-.023q.8-.029,1.6-.029c22.452,0,40.717,17.239,40.717,38.43q0,.8-.034,1.594M78.98,44.118c-.5,0-1,.011-1.5.028-.143,0-.286.011-.429.017q-.579.024-1.158.063c-.126.009-.253.016-.38.025q-.74.056-1.475.135c-.091.01-.182.022-.272.032q-.611.07-1.218.157l-.432.064q-.61.093-1.216.2c-.085.015-.172.029-.257.045q-.724.135-1.44.294l-.361.083q-.561.129-1.116.272l-.4.1q-1.426.382-2.821.856c-.125.043-.251.087-.376.131q-.552.194-1.1.4c-.106.041-.212.079-.318.121q-.688.268-1.367.559c-.07.03-.138.062-.208.092-.706.308-1.4.638-2.091.984a43.494,43.494,0,0,0-4.938,2.884l-.118.08-.006,0-.005.006-.089.109A40.961,40.961,0,0,0,50.617,56.5c-.473.779-.922,1.568-1.337,2.37-.051.1-.1.2-.149.3q-.267.527-.517,1.061c-.066.142-.132.284-.2.426q-.242.535-.467,1.075c-.044.1-.089.207-.132.311q-.277.681-.528,1.372c-.044.121-.084.243-.127.364q-.186.532-.358,1.068-.071.223-.14.447-.178.584-.338,1.174c-.024.088-.05.176-.073.264q-.187.711-.346,1.43c-.03.134-.057.27-.085.4q-.115.544-.214,1.093c-.027.15-.055.3-.08.451q-.11.655-.2,1.314c-.008.056-.017.112-.024.168-.064.493-.115.988-.16,1.484-.012.142-.023.283-.034.424q-.044.564-.072,1.131c-.008.147-.016.294-.021.442-.019.5-.032,1.008-.032,1.516,0,22.318,19.183,40.475,42.762,40.475.5,0,1-.011,1.5-.028.143,0,.286-.011.428-.017q.583-.024,1.161-.064c.125-.008.25-.015.374-.025q.742-.056,1.48-.135l.259-.031q.62-.07,1.235-.159c.139-.02.278-.04.416-.062q.623-.095,1.243-.206l.233-.041q.729-.136,1.452-.3c.115-.025.228-.053.342-.079q.572-.131,1.139-.277c.127-.033.254-.065.38-.1q1.432-.382,2.832-.859c.123-.042.245-.085.367-.128q.557-.2,1.108-.405c.1-.04.209-.078.313-.118q.688-.269,1.367-.559c.073-.031.145-.065.217-.1.7-.306,1.4-.636,2.082-.979a43.387,43.387,0,0,0,4.939-2.884l.118-.08.006,0,.005-.006.089-.11a40.993,40.993,0,0,0,3.271-4.636c.473-.779.924-1.569,1.339-2.373.048-.092.092-.186.139-.278q.273-.539.529-1.085.1-.2.189-.408.249-.548.48-1.1c.04-.1.082-.19.121-.286q.28-.688.533-1.386c.041-.112.078-.225.118-.337q.193-.546.369-1.1c.045-.142.09-.285.134-.427q.183-.6.347-1.2c.021-.079.045-.157.065-.236.126-.478.241-.959.349-1.443.028-.127.053-.255.08-.382q.117-.556.219-1.115c.026-.146.053-.292.078-.439q.112-.662.2-1.33c.006-.051.016-.1.022-.154.064-.494.115-.99.16-1.487.013-.141.023-.283.034-.423q.044-.564.072-1.131c.008-.147.015-.294.021-.441.019-.5.032-1.01.032-1.517,0-22.318-19.183-40.475-42.762-40.475" transform="translate(-36.218 -36.113)" fill="#0a3659"/>
      <path id="Path_4" data-name="Path 4" d="M100.223,78.674a6.861,6.861,0,1,1-6.862,6.862,6.861,6.861,0,0,1,6.862-6.862m-5.146,36.213A24.205,24.205,0,1,0,70.871,90.681a24.205,24.205,0,0,0,24.205,24.205" transform="translate(-48.121 -46.394)" fill="#0a3659"/>
      <path id="Path_5" data-name="Path 5" d="M240.5,104.785c6.03,0,9.961-4.361,9.961-10.983,0-6.73-3.93-10.984-9.961-10.984-6.138,0-10.015,4.254-10.015,10.984,0,6.622,3.877,10.983,10.015,10.983m0,8.4A19.015,19.015,0,0,1,221.066,93.8c0-11.36,8.723-19.329,19.437-19.329,10.769,0,19.329,7.969,19.329,19.329A18.926,18.926,0,0,1,240.5,113.185" transform="translate(-117.186 -50.071)" fill="#0a3659"/>
    </g>
    <path id="Path_6" data-name="Path 6" d="M301.754,75.469h33.137v7.376H322.926v30.421H313.72V82.845H301.754Z" transform="translate(-125.534 -21.23)" fill="#0a3659"/>
    <path id="Path_7" data-name="Path 7" d="M404.854,82.845H387.007v7.646h12.329V97.6H387.007v8.292h17.847v7.377H377.8v-37.8h27.054Z" transform="translate(-160.502 -21.231)" fill="#0a3659"/>
    <path id="Path_8" data-name="Path 8" d="M470.493,75.469l-12.6,16.583V75.469h-9.207v37.8h9.207V96.575l12.707,16.69h11.252L466.67,93.99l14.645-18.521Z" transform="translate(-193.098 -21.231)" fill="#0a3659"/>
  </g>
</svg>
