<svg width="593" height="245" viewBox="0 0 593 245" fill="none" xmlns="http://www.w3.org/2000/svg">
<path fill-rule="evenodd" clip-rule="evenodd" d="M437.917 84.4257C438.262 83.7601 437.779 82.9658 437.03 82.9658H423.031C422.657 82.9658 422.315 83.1741 422.143 83.5059L379.821 165.207C379.476 165.873 379.959 166.667 380.709 166.667H394.712C395.086 166.667 395.429 166.459 395.6 166.127L437.917 84.4257ZM355.033 131.834C354.66 131.834 354.317 132.043 354.145 132.375L344.405 151.181C344.061 151.846 344.544 152.641 345.294 152.641L368.104 152.636C368.853 152.636 369.337 153.431 368.992 154.096L362.762 166.122C362.59 166.454 362.248 166.662 361.874 166.662H340.771C338.743 166.682 336.739 166.239 334.923 165.369C333.107 164.499 331.53 163.227 330.321 161.656C328.958 159.86 328.135 157.735 327.944 155.516C327.753 153.297 328.201 151.07 329.238 149.081L356.606 96.2418C358.67 92.2555 361.844 88.9027 365.773 86.5594C369.702 84.216 374.23 82.9749 378.849 82.9751H404.186C404.936 82.9751 405.419 83.7695 405.074 84.4351L398.845 96.4611C398.673 96.7929 398.33 97.0011 397.957 97.0011H378.849C376.93 96.9956 375.047 97.5087 373.415 98.4824C371.782 99.456 370.465 100.851 369.613 102.51L362.446 116.348C362.101 117.014 362.584 117.808 363.334 117.808H380.399C381.149 117.808 381.632 118.603 381.287 119.268L375.057 131.294C374.886 131.626 374.543 131.834 374.17 131.834H355.033ZM322.911 86.864L289.569 151.184C289.225 151.849 289.706 152.643 290.455 152.644L318.416 152.692C319.165 152.693 319.647 153.487 319.303 154.152L313.072 166.18C312.9 166.512 312.557 166.72 312.184 166.72H285.871C283.674 166.747 281.506 166.23 279.575 165.219C277.644 164.208 276.013 162.737 274.839 160.946C273.728 159.2 273.098 157.21 273.011 155.164C272.923 153.117 273.38 151.083 274.338 149.256L308.365 83.535C308.537 83.2031 308.88 82.9948 309.253 82.9948H310.425H323.247C323.993 82.9948 324.476 83.7824 324.138 84.4477L322.911 86.864ZM436.864 166.667H423.932C423.592 166.667 423.275 166.494 423.091 166.207L417.18 156.997C416.987 156.696 416.969 156.315 417.134 155.997L452.838 87.1179C452.924 86.952 453.055 86.8135 453.216 86.7182L459.252 83.1349C459.407 83.0432 459.583 82.9948 459.763 82.9948H472.305C474.75 82.9879 477.173 83.449 479.432 84.3514C481.691 85.2539 483.743 86.5797 485.467 88.2522C488.226 90.9091 490.05 94.3355 490.68 98.0467C491.31 101.758 490.714 105.566 488.977 108.933L469.637 146.402C466.858 151.814 462.751 156.489 457.673 160.022L457.227 160.331C451.297 164.452 444.173 166.668 436.864 166.667ZM435.9 151.181C435.556 151.847 436.039 152.641 436.788 152.641H438.529C441.702 152.642 444.795 151.679 447.369 149.889L449.33 148.525C452.383 146.407 454.853 143.601 456.525 140.352L475.935 102.68C476.271 102.025 476.412 101.292 476.341 100.564C476.27 99.8365 475.991 99.1421 475.534 98.5588C475.337 98.3131 475.085 98.1131 474.797 97.9736L473.217 97.2143C472.926 97.0741 472.605 97.0012 472.28 97.0015H464.564C464.191 97.0015 463.848 97.2098 463.676 97.5416L435.9 151.181ZM522.459 166.667C521.906 166.667 521.459 166.219 521.459 165.667V114.15C521.459 113.102 520.053 112.759 519.571 113.69L492.405 166.127C492.233 166.459 491.891 166.667 491.517 166.667H477.514C476.764 166.667 476.281 165.873 476.626 165.207L518.943 83.5152C519.114 83.1834 519.457 82.9751 519.831 82.9751H535C535.552 82.9751 536 83.4228 536 83.9751V165.667C536 166.219 535.552 166.667 535 166.667H522.459Z" fill="white"/>
<path fill-rule="evenodd" clip-rule="evenodd" d="M195.899 37.2876C196.199 36.6004 196.349 36.2568 196.28 35.9395C196.257 35.837 196.219 35.7387 196.166 35.6482C196.001 35.3679 195.658 35.2178 194.97 34.9174L184.628 30.3976C183.94 30.0973 183.597 29.9471 183.28 30.0169C183.177 30.0394 183.079 30.0779 182.988 30.131C182.708 30.2954 182.558 30.639 182.257 31.3262L164.967 70.891C162.545 76.4347 160.86 80.2818 159.449 83.046C158.755 84.4042 158.213 85.3296 157.777 85.9641C157.381 86.5414 157.169 86.7357 157.15 86.7529C157.15 86.7529 157.15 86.7529 157.15 86.7529C154.327 89.0614 150.231 88.9749 147.491 86.549C147.491 86.549 147.491 86.549 147.491 86.549C147.473 86.531 147.268 86.3279 146.892 85.7343C146.479 85.0819 145.969 84.1343 145.324 82.7478C144.01 79.9261 142.461 76.0107 140.234 70.3689L135.252 57.7322C134.978 57.0375 134.841 56.6901 134.568 56.5157C134.48 56.4593 134.384 56.4172 134.282 56.3907C133.969 56.3088 133.621 56.4441 132.925 56.7148L122.441 60.7914C121.739 61.0644 121.388 61.2008 121.212 61.4753C121.155 61.5639 121.113 61.661 121.086 61.7628C121.004 62.0783 121.142 62.4286 121.418 63.1293L126.486 75.9826C128.599 81.3364 130.31 85.67 131.834 88.9444C133.307 92.1079 135.055 95.3303 137.635 97.6143C145.855 104.892 158.144 105.151 166.612 98.226C169.27 96.0526 171.129 92.9063 172.712 89.8074C174.349 86.5999 176.21 82.342 178.509 77.0819L195.899 37.2876ZM212.973 94.3902C212.699 93.6956 212.562 93.3484 212.289 93.174C212.201 93.1177 212.104 93.0756 212.003 93.0492C211.69 92.9674 211.342 93.1029 210.646 93.3737L197.754 98.3924C192.39 100.478 188.048 102.166 184.768 103.673C181.599 105.129 178.372 106.859 176.09 109.421C168.817 117.585 168.603 129.83 175.585 138.295C177.776 140.952 180.94 142.817 184.056 144.405C187.281 146.049 191.56 147.919 196.847 150.23L236.855 167.713C237.542 168.014 237.886 168.164 238.203 168.094C238.305 168.072 238.404 168.033 238.494 167.98C238.775 167.816 238.925 167.472 239.225 166.785L243.714 156.512C244.015 155.825 244.165 155.481 244.095 155.164C244.073 155.061 244.034 154.963 243.981 154.872C243.817 154.592 243.473 154.442 242.786 154.142L203.009 136.759C197.437 134.324 193.57 132.631 190.791 131.214C189.425 130.518 188.495 129.973 187.856 129.537C187.275 129.14 187.08 128.928 187.062 128.909C187.062 128.909 187.062 128.909 187.062 128.909C184.735 126.088 184.807 122.006 187.231 119.284C187.211 119.306 187.391 119.101 188.046 118.691C188.699 118.282 189.648 117.777 191.037 117.139C193.864 115.841 197.787 114.312 203.44 112.114L216.082 107.192C216.784 106.919 217.135 106.782 217.311 106.508C217.367 106.419 217.41 106.322 217.436 106.22C217.518 105.905 217.38 105.554 217.103 104.854L212.973 94.3902ZM104.264 94.6845L64.2571 77.201C63.5699 76.9007 63.2263 76.7505 62.909 76.8203C62.8065 76.8428 62.7082 76.8813 62.6177 76.9344C62.3374 77.0988 62.1873 77.4424 61.887 78.1296L57.3976 88.4026C57.0973 89.0898 56.9471 89.4333 57.0169 89.7507C57.0394 89.8532 57.0779 89.9515 57.131 90.042C57.2954 90.3223 57.639 90.4724 58.3262 90.7727L98.1029 108.155C103.675 110.59 107.542 112.284 110.321 113.701C111.687 114.397 112.617 114.941 113.256 115.377C113.896 115.815 114.068 116.028 114.05 116.005C116.371 118.82 116.306 122.888 113.899 125.61C113.897 125.612 113.897 125.613 113.885 125.625C113.884 125.626 113.875 125.636 113.873 125.637C113.861 125.649 113.868 125.643 113.865 125.646C113.806 125.702 113.586 125.898 113.066 126.224C112.413 126.633 111.464 127.137 110.075 127.775C107.248 129.074 103.325 130.603 97.672 132.801L85.0297 137.722C84.3279 137.996 83.977 138.132 83.8012 138.407C83.7445 138.495 83.7021 138.593 83.6756 138.694C83.5937 139.01 83.7319 139.36 84.0085 140.061L88.1388 150.524C88.413 151.219 88.5501 151.566 88.8231 151.74C88.9112 151.797 89.0077 151.839 89.1089 151.865C89.4223 151.947 89.7702 151.812 90.4661 151.541L103.358 146.522C108.722 144.436 113.064 142.748 116.344 141.241C119.513 139.786 122.74 138.056 125.022 135.493C132.295 127.329 132.509 115.084 125.527 106.619C123.336 103.962 120.172 102.098 117.056 100.509C113.831 98.8652 109.552 96.995 104.264 94.6845ZM163.477 147.3C155.257 140.022 142.968 139.763 134.5 146.688C131.842 148.862 129.983 152.008 128.4 155.107C126.763 158.314 124.902 162.572 122.603 167.832L105.213 207.627C104.913 208.314 104.762 208.658 104.832 208.975C104.855 209.077 104.893 209.176 104.946 209.266C105.111 209.546 105.454 209.697 106.142 209.997L116.484 214.517C117.171 214.817 117.515 214.967 117.832 214.898C117.935 214.875 118.033 214.836 118.124 214.783C118.404 214.619 118.554 214.275 118.854 213.588L136.145 174.023C138.567 168.48 140.252 164.633 141.663 161.868C142.357 160.51 142.899 159.585 143.335 158.95C143.731 158.373 143.943 158.179 143.962 158.161C143.962 158.161 143.962 158.161 143.962 158.161C146.778 155.859 150.86 155.939 153.6 158.347C153.602 158.349 153.604 158.35 153.616 158.362C153.617 158.363 153.627 158.372 153.628 158.373C153.64 158.385 153.634 158.379 153.637 158.382C153.694 158.442 153.892 158.662 154.22 159.18C154.633 159.832 155.143 160.78 155.788 162.167C157.102 164.988 158.651 168.904 160.878 174.546L165.86 187.182C166.134 187.877 166.271 188.224 166.544 188.399C166.632 188.455 166.728 188.497 166.83 188.524C167.143 188.606 167.491 188.47 168.187 188.2L178.671 184.123C179.373 183.85 179.724 183.714 179.9 183.439C179.957 183.35 179.999 183.253 180.026 183.152C180.108 182.836 179.97 182.486 179.694 181.785L174.625 168.93C172.512 163.577 170.802 159.244 169.277 155.97C167.805 152.806 166.057 149.584 163.477 147.3Z" fill="white"/>
</svg>
