<svg id="Layer_1" data-name="Layer 1" xmlns="http://www.w3.org/2000/svg" viewBox="0 0 534.8 528.52"><defs><style>.cls-1{fill:#f15c39;fill-rule:evenodd;opacity:0.5;}</style></defs><path class="cls-1" d="M687.36,47.23c.86-2,1.29-2.95,1.09-3.86a2.8,2.8,0,0,0-.32-.83c-.48-.8-1.46-1.23-3.42-2.09L655.15,27.53c-2-.85-2.95-1.28-3.85-1.08a2.76,2.76,0,0,0-.84.32c-.8.47-1.23,1.45-2.09,3.42L599,143.27C592,159.12,587.21,170.11,583.18,178a74.7,74.7,0,0,1-4.78,8.34,14.19,14.19,0,0,1-1.79,2.26h0A21.32,21.32,0,0,1,549,188h0a15.64,15.64,0,0,1-1.71-2.33,78,78,0,0,1-4.48-8.54c-3.76-8.06-8.18-19.25-14.55-35.38L514,105.66c-.78-2-1.17-3-1.95-3.47a2.5,2.5,0,0,0-.82-.36c-.9-.24-1.89.15-3.88.92l-30,11.66c-2,.78-3,1.17-3.52,2a3,3,0,0,0-.36.82c-.23.9.16,1.91,1,3.91L489,157.83c6,15.3,10.93,27.68,15.28,37,4.21,9,9.21,18.25,16.58,24.78a64,64,0,0,0,82.82,1.75c7.6-6.21,12.92-15.2,17.44-24.06,4.68-9.17,10-21.34,16.57-36.37Zm48.8,163.21c-.78-2-1.17-3-1.95-3.48a2.71,2.71,0,0,0-.82-.35c-.89-.24-1.89.15-3.88.92l-36.85,14.35c-15.33,6-27.74,10.78-37.11,15.09-9.06,4.16-18.28,9.11-24.81,16.43a63.39,63.39,0,0,0-1.44,82.53c6.26,7.59,15.31,12.92,24.21,17.46,9.22,4.7,21.45,10,36.56,16.65l114.35,50c2,.86,3,1.29,3.86,1.09a3.13,3.13,0,0,0,.83-.33c.8-.47,1.23-1.45,2.09-3.41L824,388c.86-2,1.29-2.94,1.09-3.85a3.13,3.13,0,0,0-.33-.83c-.47-.8-1.45-1.23-3.42-2.09L707.68,331.54c-15.92-7-27-11.8-34.92-15.85a78.56,78.56,0,0,1-8.39-4.8,14.7,14.7,0,0,1-2.27-1.79h0a21.13,21.13,0,0,1,.49-27.51,13.23,13.23,0,0,1,2.33-1.7,78.12,78.12,0,0,1,8.55-4.43c8.08-3.71,19.29-8.08,35.45-14.36L745.05,247c2-.78,3-1.17,3.51-2a2.73,2.73,0,0,0,.36-.82c.23-.9-.16-1.9-.95-3.9Zm-310.71.84-114.35-50c-2-.86-2.94-1.29-3.85-1.09a2.58,2.58,0,0,0-.83.33c-.8.47-1.23,1.45-2.09,3.41L291.5,193.32c-.86,2-1.29,3-1.09,3.86a3.13,3.13,0,0,0,.33.83c.47.8,1.45,1.23,3.41,2.09l113.69,49.68c15.93,7,27,11.8,34.92,15.85a78.58,78.58,0,0,1,8.39,4.79,12.88,12.88,0,0,1,2.27,1.8,21.11,21.11,0,0,1-.43,27.45l0,0s0,0,0,0l0,0a14.16,14.16,0,0,1-2.28,1.65,78.74,78.74,0,0,1-8.55,4.44c-8.08,3.71-19.29,8.08-35.45,14.36l-36.13,14.07c-2,.78-3,1.17-3.51,2a2.5,2.5,0,0,0-.36.82c-.24.9.16,1.9.95,3.9l11.8,29.91c.79,2,1.18,3,2,3.47a2.5,2.5,0,0,0,.82.36c.89.24,1.89-.15,3.88-.92l36.84-14.35c15.33-6,27.74-10.79,37.12-15.09,9.06-4.16,18.28-9.11,24.8-16.43a63.37,63.37,0,0,0,1.45-82.53C480,237.8,470.92,232.47,462,227.93,452.8,223.23,440.57,217.88,425.45,211.28ZM594.69,361.66a64,64,0,0,0-82.82-1.75c-7.59,6.22-12.91,15.21-17.43,24.07-4.68,9.16-10,21.33-16.57,36.37L428.16,534.09c-.85,2-1.28,2.95-1.08,3.85a2.7,2.7,0,0,0,.32.83c.47.81,1.45,1.24,3.42,2.09l29.56,12.92c2,.86,2.95,1.29,3.85,1.09a2.78,2.78,0,0,0,.84-.33c.8-.47,1.23-1.45,2.08-3.41L516.57,438c6.93-15.84,11.74-26.83,15.78-34.74a78.68,78.68,0,0,1,4.77-8.34,13.32,13.32,0,0,1,1.8-2.25h0a21.31,21.31,0,0,1,27.54.53l0,0,0,0,0,0a15.44,15.44,0,0,1,1.67,2.28,77.9,77.9,0,0,1,4.48,8.54c3.75,8.06,8.18,19.25,14.55,35.38l14.24,36.11c.78,2,1.17,3,2,3.48a3,3,0,0,0,.82.36c.89.23,1.89-.15,3.88-.93l30-11.65c2-.78,3-1.17,3.51-2a2.7,2.7,0,0,0,.36-.82c.24-.91-.16-1.91-.94-3.91l-14.49-36.74c-6-15.3-10.93-27.69-15.29-37.05C607.06,377.4,602.07,368.19,594.69,361.66Z" transform="translate(-290.36 -26.4)"/></svg>